<svg xmlns="http://www.w3.org/2000/svg" width="1280" height="134" fill="none" xmlns:v="https://vecta.io/nano"><g clip-path="url(#A)" fill="#7c0851"><path d="M230.475 127.823H0v5.52h230.475v-5.52z"/><path d="M184.38 122.304H0v5.519h184.38v-5.519z"/><use href="#B"/><path d="M218.949 116.784H0v5.52h218.949v-5.52z"/><use href="#C"/><path d="M190.138 111.265H0v5.519h190.138v-5.519z"/><use href="#D"/><use href="#E"/><use href="#F"/><path d="M57.621 105.745H11.526v5.52h46.095v-5.52zm40.327 0H63.379v5.52h34.569v-5.52z"/><use href="#G"/><use href="#H"/><use href="#I"/><use href="#J"/><path d="M17.284 100.226H0v5.519h17.284v-5.519zm17.285 0H23.043v5.519h11.526v-5.519zm11.526 0h-5.758v5.519h5.758v-5.519z"/><use href="#K"/><path d="M80.664 100.226h-5.758v5.519h5.758v-5.519zm23.052 0H86.432v5.519h17.284v-5.519z"/><use href="#L"/><use href="#M"/><use href="#N"/><path d="M69.148 94.706H28.811v5.52h40.337v-5.52zm17.284 0H74.906v5.52h11.526v-5.52zm17.274 0h-5.758v5.52h5.758v-5.52z"/><use href="#O"/><path d="M184.38 94.706h-5.758v5.52h5.758v-5.52z"/><use href="#P"/><path d="M230.475 94.706h-5.758v5.52h5.758v-5.52zM23.043 89.187H0v5.52h23.043v-5.52zm23.052 0H28.811v5.52h17.284v-5.52zm23.043 0H51.853v5.52h17.284v-5.52zm46.105 0H74.906v5.52h40.337v-5.52zm17.284 0h-11.526v5.52h11.526v-5.52zm34.569 0h-28.811v5.52h28.811v-5.52z"/><use href="#Q"/><path d="M213.181 89.187h-5.758v5.52h5.758v-5.52zm17.294 0h-5.758v5.52h5.758v-5.52zM5.758 83.657H0v5.519h5.758v-5.519zm11.526 0h-5.758v5.519h5.758v-5.519zm28.811 0h-5.758v5.519h5.758v-5.519zm23.043 0H51.853v5.519h17.284v-5.519zm11.526 0h-5.758v5.519h5.758v-5.519z"/><use href="#R"/><use href="#S"/><path d="M132.517 83.657h-5.758v5.519h5.758v-5.519z"/><use href="#T"/><path d="M195.906 83.657H184.38v5.519h11.526v-5.519zm28.801 0h-5.758v5.519h5.758v-5.519zM17.284 78.138H0v5.52h17.284v-5.52zm17.285 0h-5.758v5.52h5.758v-5.52zm17.284 0h-5.758v5.52h5.758v-5.52zm17.285 0H63.38v5.52h5.758v-5.52zm28.82 0H74.906v5.52h23.053v-5.52z"/><use href="#U"/><path d="M155.57 78.138h-28.811v5.52h28.811v-5.52zm17.284 0h-5.758v5.52h5.758v-5.52zm17.294 0h-11.526v5.52h11.526v-5.52z"/><use href="#V"/><use href="#W"/><path d="M23.043 72.618h-5.758v5.519h5.758v-5.519zm34.568 0H34.569v5.519h23.043v-5.519zm17.285 0h-5.758v5.519h5.758v-5.519zm17.294 0H80.664v5.519H92.19v-5.519z"/><use href="#X"/><path d="M149.801 72.618h-5.758v5.519h5.758v-5.519zm80.674 0h-57.621v5.519h57.621v-5.519zM11.516 67.099H5.758v5.519h5.758v-5.519zm23.053 0h-5.758v5.519h5.758v-5.519zm11.526 0h-5.758v5.519h5.758v-5.519zm11.516 0h-5.758v5.519h5.758v-5.519zm17.285 0h-5.758v5.519h5.758v-5.519z"/><use href="#Y"/><use href="#Z"/><path d="M155.57 67.099h-11.527v5.519h11.527v-5.519zm11.516 0h-5.758v5.519h5.758v-5.519zm11.526 0h-5.758v5.519h5.758v-5.519zm28.821 0H184.38v5.519h23.053v-5.519zm11.516 0h-5.758v5.519h5.758v-5.519z"/><use href="#a"/><path d="M46.095 61.58h-5.758v5.52h5.758v-5.52zm28.801 0H51.853v5.52h23.043v-5.52zm17.294 0h-5.758v5.52h5.758v-5.52zm11.516 0h-5.758v5.52h5.758v-5.52zm23.053 0h-17.285v5.52h17.285v-5.52zm17.294 0h-11.526v5.52h11.526v-5.52zm17.275 0h-5.758v5.52h5.758v-5.52zm17.294 0h-11.526v5.52h11.526v-5.52zm40.327 0h-5.758v5.52h5.758v-5.52zm-184.38-5.52H17.284v5.519h17.284V56.06z"/><use href="#b"/><path d="M57.611 56.06h-5.758v5.519h5.758V56.06zm28.811 0H69.138v5.519h17.284V56.06zm11.526 0H92.19v5.519h5.758V56.06zm23.053 0h-11.527v5.519h11.527V56.06zm11.516 0h-5.758v5.519h5.758V56.06z"/><use href="#c"/><path d="M167.086 56.06h-5.758v5.519h5.758V56.06zm28.81 0h-5.758v5.519h5.758V56.06zm34.579 0h-5.758v5.519h5.758V56.06zM23.043 50.541h-5.758v5.52h5.758v-5.52zm34.568 0H34.569v5.52h23.043v-5.52zm17.295 0H63.379v5.52h11.526v-5.52zm23.042 0H92.19v5.52h5.758v-5.52zm17.295 0h-11.527v5.52h11.527v-5.52z"/><use href="#d"/><path d="M178.612 50.541h-17.284v5.52h17.284v-5.52zm11.526 0h-5.758v5.52h5.758v-5.52zm28.811 0h-11.526v5.52h11.526v-5.52zm11.526 0h-5.758v5.52h5.758v-5.52zm-213.191-5.52H5.758v5.52h11.526v-5.52zm17.285 0H23.043v5.52h11.526v-5.52zm11.526 0h-5.758v5.52h5.758v-5.52zm17.284 0h-5.758v5.52h5.758v-5.52zm17.285 0H69.138v5.52h11.526v-5.52zm23.052 0H86.432v5.52h17.284v-5.52zm28.801 0h-5.758v5.52h5.758v-5.52z"/><path d="M178.612 45.021h-5.758v5.52h5.758v-5.52zm11.526 0h-5.758v5.52h5.758v-5.52zm28.811 0h-17.284v5.52h17.284v-5.52zM17.284 39.502h-5.758v5.519h5.758v-5.519zm17.285 0h-5.758v5.519h5.758v-5.519zm40.337 0H57.621v5.519h17.284v-5.519zm28.81 0H92.19v5.519h11.526v-5.519zm17.285 0h-11.527v5.519h11.527v-5.519zm11.516 0h-5.758v5.519h5.758v-5.519zm17.294 0h-11.526v5.519h11.526v-5.519z"/><path d="M184.38 39.502h-28.81v5.519h28.81v-5.519zm23.043 0h-17.285v5.519h17.285v-5.519zm23.052 0h-17.284v5.519h17.284v-5.519zm-213.191-5.52H5.758v5.519h11.526v-5.519zm34.569 0H34.569v5.519h17.284v-5.519zm11.526 0h-5.758v5.519h5.758v-5.519zm11.517 0h-5.758v5.519h5.758v-5.519zm17.294 0h-5.758v5.519h5.758v-5.519z"/><use href="#e"/><path d="M138.285 33.982h-5.758v5.519h5.758v-5.519zm23.043 0h-17.285v5.519h17.285v-5.519zm28.82 0h-11.526v5.519h11.526v-5.519zm23.043 0h-11.526v5.519h11.526v-5.519zm11.516 0h-5.758v5.519h5.758v-5.519zM5.758 28.462H0v5.52h5.758v-5.52zm28.811 0H17.284v5.52h17.284v-5.52zm51.853 0h-5.758v5.52h5.758v-5.52z"/><path d="M138.285 28.462h-5.758v5.52h5.758v-5.52zm17.285 0h-11.527v5.52h11.527v-5.52zm17.284 0h-5.758v5.52h5.758v-5.52zm34.579 0h-11.527v5.52h11.527v-5.52zm23.042 0h-11.526v5.52h11.526v-5.52zM11.516 22.943H5.758v5.519h5.758v-5.519zm57.622 0H63.38v5.519h5.758v-5.519zm11.526 0h-5.758v5.519h5.758v-5.519z"/><use href="#f"/><path d="M109.474 22.943h-5.758v5.519h5.758v-5.519zm109.475 0h-11.526v5.519h11.526v-5.519zM28.801 17.424h-5.758v5.52h5.758v-5.52zm40.347 0H57.621v5.52h11.526v-5.52z"/><use href="#g"/><path d="M172.854 17.424h-5.758v5.52h5.758v-5.52zm17.284 0h-5.758v5.52h5.758v-5.52zm-167.085-5.52H11.526v5.52h11.526v-5.52zm23.042 0h-5.758v5.52h5.758v-5.52zm57.611 0h-5.758v5.52h5.758v-5.52zm17.285 0h-5.758v5.52h5.758v-5.52zm17.294 0h-5.758v5.52h5.758v-5.52z"/><path d="M184.38 11.904h-5.758v5.52h5.758v-5.52z"/><use href="#h"/><path d="M40.327 6.385h-5.758v5.519h5.758V6.385zm17.284 0h-5.758v5.519h5.758V6.385z"/><use href="#i"/><use href="#j"/><path d="M167.086 6.385h-5.758v5.519h5.758V6.385zm11.526 0h-5.758v5.519h5.758V6.385z"/><use href="#k"/><path d="M144.043.865h-5.758v5.519h5.758V.865zm-46.095 99.361H92.19v33.116h5.758v-33.116zm0-22.088H92.19v16.558h5.758V78.138zm0-11.039H92.19v5.519h5.758v-5.519zm0-27.597H92.19V61.58h5.758V39.502z"/><use href="#f"/><use href="#i"/><use href="#l"/><use href="#m"/><use href="#n"/><use href="#o"/><path d="M103.706 11.904h-5.758v5.52h5.758v-5.52z"/><use href="#p"/><path d="M109.474 89.187h-5.758v5.52h5.758v-5.52z"/><use href="#q"/><path d="M109.474 50.541h-5.758v5.52h5.758v-5.52zm0-27.598h-5.758v5.519h5.758v-5.519z"/><use href="#r"/><path d="M115.233 72.618h-5.759v27.598h5.759V72.618zm0-22.077h-5.759v16.558h5.759V50.541zm0-16.559h-5.759v11.039h5.759V33.982z"/><use href="#j"/><use href="#s"/><path d="M120.991 83.657h-5.758v5.519h5.758v-5.519z"/><use href="#t"/><path d="M120.991 39.502h-5.758v5.519h5.758v-5.519zm0-27.598h-5.758v5.52h5.758v-5.52z"/><use href="#u"/><use href="#v"/><path d="M126.759 50.541h-5.758v5.52h5.758v-5.52zm5.758 60.724h-5.758v22.078h5.758v-22.078z"/><use href="#w"/><path d="M132.517 67.099h-5.758v5.519h5.758v-5.519z"/><use href="#x"/><path d="M138.285 94.706h-5.758v38.636h5.758V94.706zm0-16.568h-5.758v5.52h5.758v-5.52zm0-16.558h-5.758v5.52h5.758v-5.52zm0-11.039h-5.758v5.52h5.758v-5.52z"/><use href="#y"/><path d="M138.285 11.904h-5.758v5.52h5.758v-5.52zm5.758 93.841h-5.758v27.597h5.758v-27.597z"/><use href="#z"/><path d="M144.043 78.138h-5.758v5.52h5.758v-5.52z"/><use href="#AA"/><path d="M144.043 39.502h-5.758v5.519h5.758v-5.519zm0-38.637h-5.758v5.519h5.758V.865zm5.758 104.88h-5.758v27.597h5.758v-27.597zm0-16.558h-5.758v11.039h5.758V89.187zm0-22.088h-5.758v16.558h5.758V67.099zm0-11.039h-5.758v5.519h5.758V56.06z"/><use href="#AB"/><path d="M155.57 105.745h-5.759v27.597h5.759v-27.597z"/><use href="#AC"/><path d="M155.57 78.138h-5.759v5.52h5.759v-5.52zm0-11.039h-5.759v5.519h5.759v-5.519zm0-38.637h-5.759v11.039h5.759V28.462z"/><use href="#g"/><path d="M161.328 105.745h-5.758v27.597h5.758v-27.597zm0-16.558h-5.758v11.039h5.758V89.187zm0-27.607h-5.758v5.52h5.758v-5.52z"/><use href="#AD"/><use href="#AE"/><path d="M167.086 67.099h-5.758v5.519h5.758v-5.519z"/><use href="#AF"/><path d="M167.086 39.502h-5.758v5.519h5.758v-5.519zm0-33.117h-5.758v5.519h5.758V6.385zm5.768 88.321h-5.758v38.636h5.758V94.706z"/><use href="#AG"/><path d="M172.854 61.58h-5.758v5.52h5.758v-5.52zm0-11.039h-5.758v5.52h5.758v-5.52zm0-11.039h-5.758v5.519h5.758v-5.519zm0-11.04h-5.758v5.52h5.758v-5.52zm0-11.038h-5.758v5.52h5.758v-5.52z"/><use href="#AH"/><path d="M178.612 89.187h-5.758v5.52h5.758v-5.52zm0-27.607h-5.758v16.558h5.758V61.58z"/><use href="#AI"/><path d="M178.612 6.385h-5.758v5.519h5.758V6.385zm5.768 82.802h-5.758v44.156h5.758V89.187z"/><use href="#AJ"/><path d="M184.38 33.982h-5.758v11.039h5.758V33.982zm0-22.078h-5.758v5.52h5.758v-5.52zm5.758 115.919h-5.758v5.52h5.758v-5.52z"/><use href="#AK"/><path d="M190.138 100.226h-5.758v5.519h5.758v-5.519z"/><use href="#AL"/><use href="#AM"/><path d="M190.138 33.982h-5.758v5.519h5.758v-5.519zm0-16.558h-5.758v5.52h5.758v-5.52z"/><use href="#AN"/><use href="#AO"/><use href="#AP"/><path d="M195.896 56.06h-5.758v5.519h5.758V56.06zm0-16.558h-5.758v5.519h5.758v-5.519zm5.769 55.204h-5.759v38.636h5.759V94.706z"/><use href="#AQ"/><path d="M201.665 39.502h-5.759v5.519h5.759v-5.519zm0-11.04h-5.759v5.52h5.759v-5.52zm5.758 66.244h-5.758v38.636h5.758V94.706zm0-27.607h-5.758v16.558h5.758V67.099z"/><use href="#AR"/><path d="M213.181 89.187h-5.758v44.156h5.758V89.187zm0-16.569h-5.758v11.039h5.758V72.618zm0-27.597h-5.758V56.06h5.758V45.021zm0-11.039h-5.758v5.519h5.758v-5.519zm0-11.039h-5.758v5.519h5.758v-5.519z"/><path d="M218.949 116.784h-5.758v16.559h5.758v-16.559z"/><use href="#AS"/><path d="M218.949 61.58h-5.758v16.558h5.758V61.58zm0-22.078h-5.758V56.06h5.758V39.502zm0-16.559h-5.758v5.519h5.758v-5.519zm5.758 99.361h-5.758v11.039h5.758v-11.039zm0-16.559h-5.758v5.52h5.758v-5.52zm0-22.088h-5.758v5.519h5.758v-5.519z"/><path d="M224.707 72.618h-5.758v5.519h5.758v-5.519zm0-44.156h-5.758V45.02h5.758V28.462zm5.768 77.283h-5.758v27.597h5.758v-27.597zm0-16.558h-5.758v11.039h5.758V89.187z"/><path d="M230.475 72.618h-5.758v5.519h5.758v-5.519zm0-22.077h-5.758V61.58h5.758V50.541zm0-11.039h-5.758v5.519h5.758v-5.519zm0-11.04h-5.758v5.52h5.758v-5.52zM5.758 100.226H0v33.116h5.758v-33.116zM0 89.187v5.52h5.758v-5.52-5.529-5.52H0v5.52 5.529zm5.758-60.725H0v5.52h5.758v-5.52z"/><path d="M11.516 111.265H5.758v22.078h5.758v-22.078zm0-22.078H5.758v16.559h5.758V89.187zm0-22.088H5.758v16.558h5.758V67.099zm0-22.078H5.758v5.52h5.758v-5.52zm0-11.039H5.758v5.519h5.758v-5.519zm0-11.039H5.758v5.519h5.758v-5.519z"/><use href="#AT"/><use href="#AU"/><path d="M17.284 11.904h-5.758v5.52h5.758v-5.52zm5.759 93.841h-5.758v27.597h5.758v-27.597zm0-16.558h-5.758v5.52h5.758v-5.52zm0-16.569h-5.758v5.519h5.758v-5.519zm0-22.077h-5.758V61.58h5.758V50.541zm0-22.079h-5.758v5.52h5.758v-5.52z"/><use href="#AV"/><path d="M28.801 100.226h-5.758v33.116h5.758v-33.116zm0-44.166h-5.758v11.039h5.758V56.06zm0-11.039h-5.758v5.52h5.758v-5.52zm0-16.559h-5.758v5.52h5.758v-5.52zm0-11.038h-5.758v5.52h5.758v-5.52zm5.768 71.763h-5.758v44.156h5.758V89.187zm0-11.049h-5.758v5.52h5.758v-5.52z"/><use href="#AW"/><path d="M34.569 39.502h-5.758V50.54h5.758V39.502zm0-11.04h-5.758v5.52h5.758v-5.52z"/><use href="#k"/><path d="M40.327 105.745h-5.758v27.597h5.758v-27.597zm0-16.558h-5.758v11.039h5.758V89.187zm0-16.569h-5.758v5.519h5.758v-5.519zm0-22.077h-5.758v5.52h5.758v-5.52zm0-16.559h-5.758v5.519h5.758v-5.519zm0-27.597h-5.758v5.519h5.758V6.385z"/><path d="M46.095 83.657h-5.758v49.675h5.758V83.657z"/><use href="#AX"/><path d="M46.095 33.982h-5.758v5.519h5.758v-5.519zm0-22.078h-5.758v5.52h5.758v-5.52zm5.758 93.841h-5.758v27.597h5.758v-27.597zm0-11.039h-5.758v5.52h5.758v-5.52zm0-22.088h-5.758v11.039h5.758V72.618zm0-22.077h-5.758v5.52h5.758v-5.52z"/><path d="M51.853 33.982h-5.758v5.519h5.758v-5.519zm5.758 49.675h-5.758v49.675h5.758V83.657z"/><use href="#AY"/><path d="M57.611 6.385h-5.758v5.519h5.758V6.385zm5.768 104.88h-5.758v22.078h5.758v-22.078zm0-27.608h-5.758v22.078h5.758V83.657zm0-22.077h-5.758v5.52h5.758v-5.52zm0-27.598h-5.758V50.54h5.758V33.982zm0-16.558h-5.758v5.52h5.758v-5.52z"/><path d="M69.138 78.138H63.38v55.194h5.758V78.138zm0-16.558H63.38v5.52h5.758v-5.52zm0-11.039H63.38v5.52h5.758v-5.52zm0-11.039H63.38v5.519h5.758v-5.519z"/><use href="#AZ"/><path d="M74.896 105.745h-5.758v27.597h5.758v-27.597z"/><use href="#Aa"/><path d="M80.664 78.138h-5.758v55.194h5.758V78.138zm0-22.078h-5.758v5.519h5.758V56.06zm0-11.039h-5.758v5.52h5.758v-5.52zm0-22.078h-5.758v5.519h5.758v-5.519z"/><path d="M86.422 105.745h-5.758v27.597h5.758v-27.597zm0-16.558h-5.758v11.039h5.758V89.187zm0-22.088h-5.758v16.558h5.758V67.099zm0-11.039h-5.758v5.519h5.758V56.06zm0-27.598h-5.758v5.52h5.758v-5.52zm5.768 71.764h-5.758v33.116h5.758v-33.116zm0-11.039h-5.758v5.52h5.758v-5.52z"/><use href="#Ab"/><path d="M92.19 45.021h-5.758v5.52h5.758v-5.52zm0-11.039h-5.758v5.519h5.758v-5.519zm366.98 93.841H228.695v5.52H459.17v-5.52z"/><use href="#Ac"/><path d="M459.17 122.304h-40.337v5.519h40.337v-5.519z"/><path d="M447.644 116.784H228.695v5.52h218.949v-5.52zm11.516 0h-5.758v5.52h5.758v-5.52z"/><path d="M418.833 111.265H228.695v5.519h190.138v-5.519zm23.043 0h-17.284v5.519h17.284v-5.519zm17.284 0h-5.758v5.519h5.758v-5.519z"/><path d="M234.453 105.745h-5.758v5.52h5.758v-5.52z"/><use href="#Ad"/><use href="#Ae"/><path d="M355.444 105.745h-23.043v5.52h23.043v-5.52zm57.621 0h-51.853v5.52h51.853v-5.52zm28.821 0h-23.053v5.52h23.053v-5.52zm17.284 0h-11.526v5.52h11.526v-5.52zm-213.191-5.519h-17.284v5.519h17.284v-5.519zm17.285 0h-11.526v5.519h11.526v-5.519zm11.516 0h-5.758v5.519h5.758v-5.519zm23.053 0h-17.285v5.519h17.285v-5.519zm11.516 0h-5.758v5.519h5.758v-5.519z"/><path d="M332.401 100.226h-17.284v5.519h17.284v-5.519zm34.569 0h-23.042v5.519h23.042v-5.519zm80.674 0h-57.621v5.519h57.621v-5.519zm-201.665-5.52h-11.526v5.52h11.526v-5.52z"/><use href="#Af"/><path d="M315.117 94.706h-11.526v5.52h11.526v-5.52zm17.284 0h-5.758v5.52h5.758v-5.52zm69.148 0H338.17v5.52h63.379v-5.52zm11.516 0h-5.758v5.52h5.758v-5.52zm34.579 0h-28.811v5.52h28.811v-5.52zm11.516 0h-5.758v5.52h5.758v-5.52zm-207.422-5.519h-23.043v5.52h23.043v-5.52zm23.042 0h-17.284v5.52h17.284v-5.52zm23.053 0h-17.285v5.52h17.285v-5.52z"/><path d="M343.928 89.187h-40.337v5.52h40.337v-5.52zm17.284 0h-11.526v5.52h11.526v-5.52zm34.579 0H366.98v5.52h28.811v-5.52zm28.811 0h-23.053v5.52h23.053v-5.52zm17.274 0h-5.758v5.52h5.758v-5.52zm17.284 0h-5.758v5.52h5.758v-5.52zm-224.707-5.53h-5.758v5.519h5.758v-5.519zm11.517 0h-5.759v5.519h5.759v-5.519zm28.81 0h-5.758v5.519h5.758v-5.519zm23.053 0h-17.285v5.519h17.285v-5.519zm11.516 0h-5.758v5.519h5.758v-5.519zm23.062 0h-11.526v5.519h11.526v-5.519z"/><use href="#Ag"/><path d="M361.212 83.657h-5.758v5.519h5.758v-5.519zm40.337 0h-11.526v5.519h11.526v-5.519zm23.053 0h-11.527v5.519h11.527v-5.519zm28.8 0h-5.758v5.519h5.758v-5.519zm-207.423-5.519h-17.284v5.52h17.284v-5.52zm17.275 0h-5.758v5.52h5.758v-5.52zm17.294 0h-5.758v5.52h5.758v-5.52zm17.285 0h-5.758v5.52h5.758v-5.52zm28.81 0h-23.052v5.52h23.052v-5.52zm17.285 0h-11.527v5.52h11.527v-5.52z"/><path d="M384.265 78.138h-28.811v5.52h28.811v-5.52zm17.274 0h-5.758v5.52h5.758v-5.52zm17.294 0h-11.526v5.52h11.526v-5.52zm23.043 0h-17.284v5.52h17.284v-5.52zm-201.665-5.52h-5.758v5.519h5.758v-5.519zm11.527 0h-5.759v5.519h5.759v-5.519zm34.568 0h-23.042v5.519h23.042v-5.519zm17.285 0h-5.758v5.519h5.758v-5.519zm17.294 0h-11.526v5.519h11.526v-5.519z"/><path d="M355.444 72.618h-23.043v5.519h23.043v-5.519zm23.053 0h-5.759v5.519h5.759v-5.519zm80.673 0h-57.621v5.519h57.621v-5.519zm-218.959-5.519h-5.758v5.519h5.758v-5.519zm23.043 0h-5.758v5.519h5.758v-5.519zm11.526 0h-5.758v5.519h5.758v-5.519zm11.526 0h-5.758v5.519h5.758v-5.519zm17.285 0h-5.758v5.519h5.758v-5.519z"/><use href="#Ah"/><path d="M361.212 67.099h-17.284v5.519h17.284v-5.519zm23.053 0h-11.527v5.519h11.527v-5.519zm11.516 0h-5.758v5.519h5.758v-5.519zm11.526 0h-5.758v5.519h5.758v-5.519zm28.821 0h-23.053v5.519h23.053v-5.519zm11.506 0h-5.758v5.519h5.758v-5.519zm-184.37-5.519h-11.526v5.52h11.526v-5.52zm11.516 0h-5.758v5.52h5.758v-5.52zm28.811 0h-23.043v5.52h23.043v-5.52zm17.284 0h-5.758v5.52h5.758v-5.52zm11.526 0h-5.758v5.52h5.758v-5.52z"/><path d="M355.454 61.58H338.17v5.52h17.284v-5.52zm17.284 0h-11.526v5.52h11.526v-5.52zm17.285 0h-5.758v5.52h5.758v-5.52zm17.284 0h-11.526v5.52h11.526v-5.52zm40.327 0h-5.758v5.52h5.758v-5.52z"/><use href="#Ai"/><path d="M274.78 56.06h-5.758v5.519h5.758V56.06zm11.526 0h-5.758v5.519h5.758V56.06z"/><use href="#Aj"/><path d="M326.643 56.06h-5.758v5.519h5.758V56.06zm23.053 0H338.17v5.519h11.526V56.06zm11.516 0h-5.758v5.519h5.758V56.06zm17.294 0H366.98v5.519h11.526V56.06zm17.275 0h-5.758v5.519h5.758V56.06z"/><use href="#Ak"/><path d="M459.16 56.06h-5.758v5.519h5.758V56.06zm-207.422-5.519h-5.759v5.52h5.759v-5.52z"/><use href="#Al"/><path d="M303.601 50.541h-11.526v5.52h11.526v-5.52zm23.042 0h-5.758v5.52h5.758v-5.52zm17.285 0h-11.527v5.52h11.527v-5.52zm23.042 0h-17.284v5.52h17.284v-5.52zm40.337 0h-17.284v5.52h17.284v-5.52zm11.526 0h-5.758v5.52h5.758v-5.52zm28.811 0h-11.526v5.52h11.526v-5.52zm11.516 0h-5.758v5.52h5.758v-5.52zm-213.181-5.52h-11.526v5.52h11.526v-5.52zm17.285 0h-11.526v5.52h11.526v-5.52zm11.516 0h-5.758v5.52h5.758v-5.52z"/><path d="M292.065 45.021h-5.759v5.52h5.759v-5.52zm17.294 0h-11.526v5.52h11.526v-5.52zm23.042 0h-17.284v5.52h17.284v-5.52zm28.811 0h-5.758v5.52h5.758v-5.52zm46.095 0h-5.758v5.52h5.758v-5.52zm11.526 0h-5.758v5.52h5.758v-5.52zm28.811 0H430.36v5.52h17.284v-5.52zM245.97 39.502h-5.759v5.519h5.759v-5.519zm17.284 0h-5.758v5.519h5.758v-5.519z"/><path d="M303.591 39.502h-17.285v5.519h17.285v-5.519zm28.82 0h-11.526v5.519h11.526v-5.519zm17.285 0H338.17v5.519h11.526v-5.519zm11.516 0h-5.758v5.519h5.758v-5.519zm17.294 0H366.98v5.519h11.526v-5.519zm34.569 0h-28.81v5.519h28.81v-5.519zm23.043 0h-17.285v5.519h17.285v-5.519zm23.042 0h-17.284v5.519h17.284v-5.519zm-213.181-5.52h-11.526v5.519h11.526v-5.519zm34.569 0h-17.284v5.519h17.284v-5.519z"/><path d="M292.065 33.982h-5.759v5.519h5.759v-5.519zm11.526 0h-5.758v5.519h5.758v-5.519zm17.284 0h-5.758v5.519h5.758v-5.519zm23.053 0h-5.758v5.519h5.758v-5.519zm23.042 0h-5.758v5.519h5.758v-5.519zm23.053 0h-17.285v5.519h17.285v-5.519zm28.81 0h-11.526v5.519h11.526v-5.519zm23.053 0H430.36v5.519h11.526v-5.519zm11.516 0h-5.758v5.519h5.758v-5.519zm-218.949-5.52h-5.758v5.52h5.758v-5.52zm28.811 0h-17.285v5.52h17.285v-5.52z"/><path d="M315.117 28.462h-5.758v5.52h5.758v-5.52zm51.853 0h-5.758v5.52h5.758v-5.52zm17.295 0h-11.527v5.52h11.527v-5.52zm17.274 0h-5.758v5.52h5.758v-5.52zm34.579 0h-11.526v5.52h11.526v-5.52zm23.052 0h-11.526v5.52h11.526v-5.52zm-218.959-5.519h-5.758v5.519h5.758v-5.519zm57.622 0h-5.758v5.519h5.758v-5.519zm11.516 0h-5.758v5.519h5.758v-5.519zm17.294 0h-5.758v5.519h5.758v-5.519zm11.517 0h-5.759v5.519h5.759v-5.519z"/><path d="M447.644 22.943h-11.526v5.519h11.526v-5.519zm-190.148-5.519h-5.758v5.52h5.758v-5.52zm40.337 0h-11.527v5.52h11.527v-5.52zm86.422 0h-5.758v5.52h5.758v-5.52zm17.284 0h-5.758v5.52h5.758v-5.52zm17.294 0h-5.758v5.52h5.758v-5.52z"/><path d="M251.738 11.904h-11.527v5.52h11.527v-5.52zm23.042 0h-5.758v5.52h5.758v-5.52zm57.621 0h-5.758v5.52h5.758v-5.52zm17.285 0h-5.758v5.52h5.758v-5.52zm17.284 0h-5.758v5.52h5.758v-5.52zm46.095 0h-5.758v5.52h5.758v-5.52z"/><path d="M251.738 6.385h-5.759v5.519h5.759V6.385zm17.284 0h-5.758v5.519h5.758V6.385zm17.284 0h-5.758v5.519h5.758V6.385zm40.337 0h-5.758v5.519h5.758V6.385zm17.285 0h-5.758v5.519h5.758V6.385zm51.853 0h-5.758v5.519h5.758V6.385zm11.526 0h-5.758v5.519h5.758V6.385z"/><path d="M263.254.865h-5.758v5.519h5.758V.865zm109.484 0h-5.758v5.519h5.758V.865zm-46.095 99.361h-5.758v33.116h5.758v-33.116z"/><use href="#Am"/><path d="M326.643 67.099h-5.758v5.519h5.758v-5.519zm0-27.597h-5.758V61.58h5.758V39.502zm0-16.559h-5.758v5.519h5.758v-5.519zm0-16.558h-5.758v5.519h5.758V6.385zm5.758 104.88h-5.758v22.078h5.758v-22.078zm0-27.608h-5.758v22.078h5.758V83.657z"/><path d="M332.401 61.58h-5.758v11.039h5.758V61.58zm0-22.078h-5.758V50.54h5.758V39.502zm0-27.598h-5.758v5.52h5.758v-5.52zm5.759 93.841h-5.759v27.597h5.759v-27.597zm0-16.558h-5.759v5.52h5.759v-5.52z"/><path d="M338.16 67.099h-5.759v16.558h5.759V67.099zm0-16.558h-5.759v5.52h5.759v-5.52zm0-27.598h-5.759v5.519h5.759v-5.519zm5.768 82.802h-5.758v27.597h5.758v-27.597z"/><use href="#An"/><use href="#Ao"/><path d="M343.928 33.982h-5.758v11.039h5.758V33.982zm0-27.597h-5.758v5.519h5.758V6.385zm5.758 88.321h-5.758v38.636h5.758V94.706zm0-11.049h-5.758v5.519h5.758v-5.519zm0-27.597h-5.758v22.078h5.758V56.06z"/><path d="M349.686 39.502h-5.758v5.519h5.758v-5.519zm0-27.598h-5.758v5.52h5.758v-5.52zm5.758 77.283h-5.758v44.156h5.758V89.187zm0-27.607h-5.758v16.558h5.758V61.58zm0-11.039h-5.758v5.52h5.758v-5.52z"/><path d="M361.212 111.265h-5.758v22.078h5.758v-22.078zm0-33.127h-5.758v27.597h5.758V78.138zm0-11.039h-5.758v5.519h5.758v-5.519zm0-27.597h-5.758V61.58h5.758V39.502z"/><path d="M366.97 94.706h-5.758v38.636h5.758V94.706zm0-16.568h-5.758v5.52h5.758v-5.52zm0-16.558h-5.758v5.52h5.758v-5.52zm0-11.039h-5.758v5.52h5.758v-5.52zm0-22.079h-5.758v11.039h5.758V28.462zm0-16.558h-5.758v5.52h5.758v-5.52z"/><path d="M372.738 105.745h-5.758v27.597h5.758v-27.597zm0-16.558h-5.758v11.039h5.758V89.187zm0-11.049h-5.758v5.52h5.758v-5.52zm0-22.078h-5.758v11.039h5.758V56.06zm0-16.558h-5.758v5.519h5.758v-5.519zm0-38.637h-5.758v5.519h5.758V.865z"/><path d="M378.497 105.745h-5.759v27.597h5.759v-27.597zm0-16.558h-5.759v11.039h5.759V89.187zm0-22.088h-5.759v16.558h5.759V67.099zm0-11.039h-5.759v5.519h5.759V56.06z"/><use href="#Ap"/><path d="M384.255 105.745h-5.758v27.597h5.758v-27.597zm0-16.558h-5.758v11.039h5.758V89.187zm0-11.049h-5.758v5.52h5.758v-5.52zm0-11.039h-5.758v5.519h5.758v-5.519zm0-38.637h-5.758v11.039h5.758V28.462zm0-11.038h-5.758v5.52h5.758v-5.52zm5.768 88.321h-5.758v27.597h5.758v-27.597zm0-16.558h-5.758v11.039h5.758V89.187zm0-27.607h-5.758v5.52h5.758v-5.52zm0-27.598h-5.758v11.039h5.758V33.982z"/><path d="M395.781 83.657h-5.758v49.675h5.758V83.657zm0-16.558h-5.758v5.519h5.758v-5.519zm0-16.558h-5.758V61.58h5.758V50.541zm0-11.039h-5.758v5.519h5.758v-5.519zm0-33.117h-5.758v5.519h5.758V6.385z"/><path d="M401.539 94.706h-5.758v38.636h5.758V94.706zm0-16.568h-5.758v11.039h5.758V78.138zm0-16.558h-5.758v5.52h5.758v-5.52zm0-11.039h-5.758v5.52h5.758v-5.52zm0-11.039h-5.758v5.519h5.758v-5.519zm0-11.04h-5.758v5.52h5.758v-5.52zm0-11.038h-5.758v5.52h5.758v-5.52zm5.768 82.802h-5.758v33.116h5.758v-33.116zm0-11.039h-5.758v5.52h5.758v-5.52zm0-27.607h-5.758v16.558h5.758V61.58zm0-22.078h-5.758V56.06h5.758V39.502zm0-33.117h-5.758v5.519h5.758V6.385z"/><path d="M413.065 89.187h-5.758v44.156h5.758V89.187zm0-16.569h-5.758v11.039h5.758V72.618zm0-38.636h-5.758v11.039h5.758V33.982zm0-22.078h-5.758v5.52h5.758v-5.52zm5.768 115.919h-5.758v5.52h5.758v-5.52zm0-16.558h-5.758v11.039h5.758v-11.039zm0-11.039h-5.758v5.519h5.758v-5.519zm0-33.127h-5.758v27.597h5.758V67.099zm0-22.078h-5.758V56.06h5.758V45.021zm0-11.039h-5.758v5.519h5.758v-5.519zm0-16.558h-5.758v5.52h5.758v-5.52z"/><use href="#Aq"/><path d="M424.592 83.657h-5.759v27.598h5.759V83.657zm0-16.558h-5.759v11.039h5.759V67.099z"/><use href="#Ak"/><path d="M424.592 39.502h-5.759v5.519h5.759v-5.519zm5.758 55.204h-5.758v38.636h5.758V94.706zm0-27.607h-5.758v16.558h5.758V67.099z"/><path d="M430.35 39.502h-5.758v5.519h5.758v-5.519zm0-11.04h-5.758v5.52h5.758v-5.52zm5.768 66.244h-5.758v38.636h5.758V94.706zm0-27.607h-5.758v16.558h5.758V67.099z"/><path d="M436.118 28.462h-5.758V50.54h5.758V28.462zm5.758 60.725h-5.758v44.156h5.758V89.187zm0-16.569h-5.758v11.039h5.758V72.618z"/><path d="M441.876 45.021h-5.758V56.06h5.758V45.021zm0-11.039h-5.758v5.519h5.758v-5.519zm0-11.039h-5.758v5.519h5.758v-5.519zm5.758 93.841h-5.758v16.559h5.758v-16.559zm0-22.078h-5.758v11.039h5.758V94.706zm0-33.126h-5.758v16.558h5.758V61.58z"/><path d="M447.634 39.502h-5.758V56.06h5.758V39.502zm0-16.559h-5.758v5.519h5.758v-5.519zm5.768 99.361h-5.758v11.039h5.758v-11.039zm0-16.559h-5.758v5.52h5.758v-5.52zm0-22.088h-5.758v5.519h5.758v-5.519zm0-11.039h-5.758v5.519h5.758v-5.519z"/><path d="M453.402 28.462h-5.758V45.02h5.758V28.462zm5.758 77.283h-5.758v27.597h5.758v-27.597zm0-16.558h-5.758v11.039h5.758V89.187zm0-16.569h-5.758v5.519h5.758v-5.519zm0-22.077h-5.758V61.58h5.758V50.541z"/><path d="M459.16 39.502h-5.758v5.519h5.758v-5.519zm0-11.04h-5.758v5.52h5.758v-5.52zm-224.707 71.764h-5.758v33.116h5.758v-33.116zm-5.758-11.039v5.52h5.758v-5.52-5.529-5.52h-5.758v5.52 5.529zm5.758-60.725h-5.758v5.52h5.758v-5.52z"/><path d="M240.211 111.265h-5.758v22.078h5.758v-22.078z"/><use href="#Ar"/><path d="M240.211 67.099h-5.758v16.558h5.758V67.099zm0-22.078h-5.758v5.52h5.758v-5.52zm0-11.039h-5.758v5.519h5.758v-5.519zm0-11.039h-5.758v5.519h5.758v-5.519z"/><path d="M245.97 78.138h-5.759v55.194h5.759V78.138z"/><use href="#As"/><path d="M245.97 11.904h-5.759v5.52h5.759v-5.52zm5.768 93.841h-5.759v27.597h5.759v-27.597zm0-16.558h-5.759v5.52h5.759v-5.52zm0-16.569h-5.759v5.519h5.759v-5.519z"/><use href="#At"/><path d="M251.738 28.462h-5.759v5.52h5.759v-5.52z"/><use href="#Au"/><path d="M257.496 100.226h-5.758v33.116h5.758v-33.116zm0-44.166h-5.758v11.039h5.758V56.06zm0-11.039h-5.758v5.52h5.758v-5.52zm0-16.559h-5.758v5.52h5.758v-5.52zm0-11.038h-5.758v5.52h5.758v-5.52z"/><path d="M263.254 89.187h-5.758v44.156h5.758V89.187zm0-11.049h-5.758v5.52h5.758v-5.52zm0-22.078h-5.758v16.558h5.758V56.06zm0-16.558h-5.758V50.54h5.758V39.502zm0-11.04h-5.758v5.52h5.758v-5.52zm0-27.597h-5.758v5.519h5.758V.865z"/><path d="M269.022 105.745h-5.758v27.597h5.758v-27.597zm0-16.558h-5.758v11.039h5.758V89.187zm0-16.569h-5.758v5.519h5.758v-5.519zm0-22.077h-5.758v5.52h5.758v-5.52zm0-16.559h-5.758v5.519h5.758v-5.519zm0-27.597h-5.758v5.519h5.758V6.385z"/><path d="M274.78 83.657h-5.758v49.675h5.758V83.657zm0-38.636h-5.758v33.117h5.758V45.021zm0-11.039h-5.758v5.519h5.758v-5.519zm0-22.078h-5.758v5.52h5.758v-5.52zm5.768 93.841h-5.758v27.597h5.758v-27.597zm0-11.039h-5.758v5.52h5.758v-5.52zm0-22.088h-5.758v11.039h5.758V72.618zm0-22.077h-5.758v5.52h5.758v-5.52zm0-16.559h-5.758v5.519h5.758v-5.519z"/><path d="M286.306 83.657h-5.758v49.675h5.758V83.657zm0-33.116h-5.758v27.597h5.758V50.541zm0-44.156h-5.758v5.519h5.758V6.385z"/><use href="#Av"/><use href="#Aw"/><path d="M292.065 61.58h-5.759v5.52h5.759v-5.52zm0-27.598h-5.759V50.54h5.759V33.982zm0-16.558h-5.759v5.52h5.759v-5.52zm5.768 60.714h-5.758v55.194h5.758V78.138zm0-16.558h-5.758v5.52h5.758v-5.52zm0-11.039h-5.758v5.52h5.758v-5.52zm0-11.039h-5.758v5.519h5.758v-5.519zm0-22.078h-5.758v11.039h5.758V17.424z"/><path d="M303.591 105.745h-5.758v27.597h5.758v-27.597zm0-71.763h-5.758v44.156h5.758V33.982z"/><path d="M309.349 78.138h-5.758v55.194h5.758V78.138zm0-22.078h-5.758v5.519h5.758V56.06zm0-11.039h-5.758v5.52h5.758v-5.52zm0-22.078h-5.758v5.519h5.758v-5.519zm5.768 82.802h-5.758v27.597h5.758v-27.597zm0-16.558h-5.758v11.039h5.758V89.187zm0-22.088h-5.758v16.558h5.758V67.099zm0-11.039h-5.758v5.519h5.758V56.06zm0-27.598h-5.758v5.52h5.758v-5.52z"/><path d="M320.875 100.226h-5.758v33.116h5.758v-33.116zm0-11.039h-5.758v5.52h5.758v-5.52zm0-27.607h-5.758v22.078h5.758V61.58zm0-16.559h-5.758v5.52h5.758v-5.52zm0-11.039h-5.758v5.519h5.758v-5.519zm316.5 93.841H406.899v5.52h230.476v-5.52z"/><path d="M591.28 122.304H406.899v5.519H591.28v-5.519zm46.095 0h-40.337v5.519h40.337v-5.519z"/><path d="M625.848 116.784H406.899v5.52h218.949v-5.52zm11.517 0h-5.758v5.52h5.758v-5.52z"/><path d="M597.038 111.265H406.899v5.519h190.139v-5.519zm23.042 0h-17.284v5.519h17.284v-5.519zm17.285 0h-5.758v5.519h5.758v-5.519z"/><path d="M412.658 105.745h-5.759v5.52h5.759v-5.52zm51.853 0h-46.095v5.52h46.095v-5.52z"/><use href="#Ax"/><path d="M533.648 105.745h-23.042v5.52h23.042v-5.52zm57.622 0h-51.853v5.52h51.853v-5.52zm28.82 0h-23.052v5.52h23.052v-5.52zm17.285 0h-11.527v5.52h11.527v-5.52zm-213.191-5.519h-17.285v5.519h17.285v-5.519zm17.284 0h-11.526v5.519h11.526v-5.519zm11.517 0h-5.759v5.519h5.759v-5.519zm23.052 0h-17.284v5.519h17.284v-5.519zm11.526 0h-5.758v5.519h5.758v-5.519z"/><path d="M510.606 100.226h-17.285v5.519h17.285v-5.519zm34.569 0h-23.043v5.519h23.043v-5.519zm80.673 0h-57.621v5.519h57.621v-5.519zm-201.664-5.52h-11.526v5.52h11.526v-5.52zm51.863 0H435.71v5.52h40.337v-5.52z"/><path d="M493.331 94.706h-11.526v5.52h11.526v-5.52zm17.275 0h-5.758v5.52h5.758v-5.52z"/><use href="#Ay"/><path d="M591.27 94.706h-5.758v5.52h5.758v-5.52z"/><use href="#Az"/><path d="M637.365 94.706h-5.758v5.52h5.758v-5.52zm-207.423-5.519h-23.043v5.52h23.043v-5.52zm23.052 0H435.71v5.52h17.284v-5.52zm23.043 0h-17.284v5.52h17.284v-5.52zm46.105 0h-40.337v5.52h40.337v-5.52zm17.284 0H527.9v5.52h11.526v-5.52zm34.569 0h-28.81v5.52h28.81v-5.52zm28.811 0h-23.053v5.52h23.053v-5.52zm17.274 0h-5.758v5.52h5.758v-5.52z"/><path d="M637.365 89.187h-5.758v5.52h5.758v-5.52zm-224.707-5.53h-5.759v5.519h5.759v-5.519zm11.516 0h-5.758v5.519h5.758v-5.519zm28.811 0h-5.759v5.519h5.759v-5.519zm23.052 0h-17.284v5.519h17.284v-5.519zm11.526 0h-5.758v5.519h5.758v-5.519z"/><use href="#BA"/><use href="#BB"/><path d="M539.417 83.657h-5.759v5.519h5.759v-5.519zm40.336 0h-11.526v5.519h11.526v-5.519zm23.053 0H591.28v5.519h11.526v-5.519zm28.801 0h-5.759v5.519h5.759v-5.519zm-207.423-5.519h-17.285v5.52h17.285v-5.52zm17.284 0h-5.758v5.52h5.758v-5.52zm17.285 0h-5.759v5.52h5.759v-5.52zm17.284 0h-5.758v5.52h5.758v-5.52zm28.821 0h-23.053v5.52h23.053v-5.52zm17.274 0h-11.526v5.52h11.526v-5.52z"/><path d="M562.469 78.138h-28.811v5.52h28.811v-5.52zm17.284 0h-5.758v5.52h5.758v-5.52zm17.285 0h-11.526v5.52h11.526v-5.52zm23.042 0h-17.284v5.52h17.284v-5.52zm-201.664-5.52h-5.758v5.519h5.758v-5.519zm11.526 0h-5.758v5.519h5.758v-5.519zm34.569 0h-23.043v5.519h23.043v-5.519zm17.284 0h-5.758v5.519h5.758v-5.519zm17.295 0h-11.527v5.519h11.527v-5.519z"/><path d="M533.648 72.618h-23.042v5.519h23.042v-5.519zm23.053 0h-5.758v5.519h5.758v-5.519z"/><use href="#BC"/><path d="M418.416 67.099h-5.758v5.519h5.758v-5.519zm23.052 0h-5.758v5.519h5.758v-5.519zm11.517 0h-5.759v5.519h5.759v-5.519zm11.526 0h-5.758v5.519h5.758v-5.519zm17.284 0h-5.758v5.519h5.758v-5.519zm34.579 0h-28.811v5.519h28.811v-5.519zm23.042 0h-17.284v5.519h17.284v-5.519zm23.053 0h-11.526v5.519h11.526v-5.519zm11.516 0h-5.758v5.519h5.758v-5.519zm11.527 0h-5.759v5.519h5.759v-5.519zm28.82 0H591.28v5.519h23.052v-5.519zm11.516 0h-5.758v5.519h5.758v-5.519z"/><path d="M441.468 61.58h-11.526v5.52h11.526v-5.52zm11.517 0h-5.759v5.52h5.759v-5.52zm28.81 0h-23.042v5.52h23.042v-5.52zm17.285 0h-5.759v5.52h5.759v-5.52zm11.526 0h-5.758v5.52h5.758v-5.52zm23.052 0h-17.284v5.52h17.284v-5.52zm17.285 0h-11.526v5.52h11.526v-5.52zm17.284 0h-5.758v5.52h5.758v-5.52zm17.294 0h-11.526v5.52h11.526v-5.52zm40.327 0h-5.758v5.52h5.758v-5.52z"/><path d="M441.468 56.06h-17.284v5.519h17.284V56.06zm11.517 0h-5.759v5.519h5.759V56.06zm11.526 0h-5.758v5.519h5.758V56.06zm28.81 0h-17.284v5.519h17.284V56.06zm11.527 0h-5.758v5.519h5.758V56.06zm23.052 0h-11.526v5.519H527.9V56.06zm11.517 0h-5.759v5.519h5.759V56.06zm17.294 0h-11.526v5.519h11.526V56.06zm17.274 0h-5.758v5.519h5.758V56.06zm28.811 0h-5.758v5.519h5.758V56.06zm34.569 0h-5.758v5.519h5.758V56.06z"/><path d="M429.942 50.541h-5.758v5.52h5.758v-5.52zm34.569 0h-23.043v5.52h23.043v-5.52zm17.294 0h-11.526v5.52h11.526v-5.52zm23.043 0h-5.758v5.52h5.758v-5.52zm17.284 0h-11.526v5.52h11.526v-5.52zm23.053 0H527.9v5.52h17.285v-5.52zm40.327 0h-17.285v5.52h17.285v-5.52zm11.526 0h-5.758v5.52h5.758v-5.52zm28.81 0h-11.526v5.52h11.526v-5.52zm11.517 0h-5.758v5.52h5.758v-5.52z"/><path d="M424.184 45.021h-11.526v5.52h11.526v-5.52zm17.284 0h-11.526v5.52h11.526v-5.52zm11.517 0h-5.759v5.52h5.759v-5.52zm17.284 0h-5.758v5.52h5.758v-5.52zm17.294 0h-11.526v5.52h11.526v-5.52zm23.043 0h-17.285v5.52h17.285v-5.52zm28.811 0h-5.759v5.52h5.759v-5.52zm46.095 0h-5.759v5.52h5.759v-5.52zm11.526 0h-5.758v5.52h5.758v-5.52zm28.81 0h-17.284v5.52h17.284v-5.52z"/><path d="M424.174 39.502h-5.758v5.519h5.758v-5.519zm17.294 0h-5.758v5.519h5.758v-5.519zm40.327 0h-17.284v5.519h17.284v-5.519zm28.821 0H499.09v5.519h11.526v-5.519zm17.284 0h-11.526v5.519H527.9v-5.519zm11.517 0h-5.759v5.519h5.759v-5.519zm17.294 0h-11.526v5.519h11.526v-5.519zm34.569 0h-28.811v5.519h28.811v-5.519zm23.042 0h-17.284v5.519h17.284v-5.519zm23.053 0H620.09v5.519h17.285v-5.519z"/><path d="M424.184 33.982h-11.526v5.519h11.526v-5.519zm34.569 0h-17.285v5.519h17.285v-5.519zm11.516 0h-5.758v5.519h5.758v-5.519zm11.526 0h-5.758v5.519h5.758v-5.519zm17.285 0h-5.759v5.519h5.759v-5.519zm23.052 0h-5.758v5.519h5.758v-5.519zm23.043 0h-5.758v5.519h5.758v-5.519zm23.052 0h-17.284v5.519h17.284v-5.519zm28.811 0h-11.526v5.519h11.526v-5.519zm23.052 0h-11.526v5.519h11.526v-5.519zm11.517 0h-5.759v5.519h5.759v-5.519z"/><path d="M412.658 28.462h-5.759v5.52h5.759v-5.52zm28.81 0h-17.284v5.52h17.284v-5.52zm51.853 0h-5.758v5.52h5.758v-5.52zm51.854 0h-5.758v5.52h5.758v-5.52zm17.294 0h-11.526v5.52h11.526v-5.52zm17.284 0h-5.758v5.52h5.758v-5.52zm34.569 0h-11.526v5.52h11.526v-5.52zm23.053 0h-11.527v5.52h11.527v-5.52z"/><path d="M418.416 22.943h-5.758v5.519h5.758v-5.519zm57.621 0h-5.758v5.519h5.758v-5.519zm11.526 0h-5.758v5.519h5.758v-5.519zm17.285 0h-5.758v5.519h5.758v-5.519zm11.516 0h-5.758v5.519h5.758v-5.519zm109.484 0h-11.526v5.519h11.526v-5.519zM435.7 17.424h-5.758v5.52h5.758v-5.52z"/><path d="M476.037 17.424h-11.526v5.52h11.526v-5.52zm86.422 0h-5.758v5.52h5.758v-5.52zm17.294 0h-5.758v5.52h5.758v-5.52zm17.285 0h-5.758v5.52h5.758v-5.52zm-167.096-5.52h-11.526v5.52h11.526v-5.52zm23.043 0h-5.759v5.52h5.759v-5.52zm57.621 0h-5.758v5.52h5.758v-5.52zm17.284 0h-5.758v5.52h5.758v-5.52zm17.285 0h-5.758v5.52h5.758v-5.52z"/><path d="M591.27 11.904h-5.758v5.52h5.758v-5.52zM429.942 6.385h-5.758v5.519h5.758V6.385zm17.284 0h-5.758v5.519h5.758V6.385zm17.285 0h-5.758v5.519h5.758V6.385zm40.337 0h-5.758v5.519h5.758V6.385zm17.284 0h-5.758v5.519h5.758V6.385zm51.853 0h-5.758v5.519h5.758V6.385z"/><path d="M585.512 6.385h-5.759v5.519h5.759V6.385zM441.468.865h-5.758v5.519h5.758V.865zm109.475 0h-5.758v5.519h5.758V.865zm-46.095 99.361h-5.758v33.116h5.758v-33.116zm0-22.088h-5.758v16.558h5.758V78.138zm0-11.039h-5.758v5.519h5.758v-5.519zm0-27.597h-5.758V61.58h5.758V39.502zm0-16.559h-5.758v5.519h5.758v-5.519zm0-16.558h-5.758v5.519h5.758V6.385z"/><path d="M510.606 111.265h-5.758v22.078h5.758v-22.078zm0-27.608h-5.758v22.078h5.758V83.657zm0-22.077h-5.758v11.039h5.758V61.58zm0-22.078h-5.758V50.54h5.758V39.502zm0-27.598h-5.758v5.52h5.758v-5.52z"/><path d="M516.364 105.745h-5.758v27.597h5.758v-27.597zm0-16.558h-5.758v5.52h5.758v-5.52zm0-22.088h-5.758v16.558h5.758V67.099zm0-16.558h-5.758v5.52h5.758v-5.52zm0-27.598h-5.758v5.519h5.758v-5.519z"/><path d="M522.132 105.745h-5.758v27.597h5.758v-27.597zm0-33.127h-5.758v27.598h5.758V72.618zm0-22.077h-5.758v16.558h5.758V50.541zm0-16.559h-5.758v11.039h5.758V33.982zm0-27.597h-5.758v5.519h5.758V6.385z"/><path d="M527.89 94.706h-5.758v38.636h5.758V94.706zm0-11.049h-5.758v5.519h5.758v-5.519zm0-27.597h-5.758v22.078h5.758V56.06zm0-16.558h-5.758v5.519h5.758v-5.519zm0-27.598h-5.758v5.52h5.758v-5.52z"/><path d="M533.658 89.187H527.9v44.156h5.758V89.187zm0-27.607H527.9v16.558h5.758V61.58zm0-11.039H527.9v5.52h5.758v-5.52z"/><path d="M539.417 111.265h-5.759v22.078h5.759v-22.078z"/><use href="#BD"/><path d="M539.417 67.099h-5.759v5.519h5.759v-5.519z"/><use href="#BE"/><path d="M545.175 94.706h-5.758v38.636h5.758V94.706zm0-16.568h-5.758v5.52h5.758v-5.52zm0-16.558h-5.758v5.52h5.758v-5.52zm0-11.039h-5.758v5.52h5.758v-5.52zm0-22.079h-5.758v11.039h5.758V28.462zm0-16.558h-5.758v5.52h5.758v-5.52z"/><path d="M550.943 105.745h-5.758v27.597h5.758v-27.597zm0-16.558h-5.758v11.039h5.758V89.187zm0-11.049h-5.758v5.52h5.758v-5.52zm0-22.078h-5.758v11.039h5.758V56.06zm0-16.558h-5.758v5.519h5.758v-5.519zm0-38.637h-5.758v5.519h5.758V.865z"/><path d="M556.701 105.745h-5.758v27.597h5.758v-27.597zm0-16.558h-5.758v11.039h5.758V89.187zm0-22.088h-5.758v16.558h5.758V67.099zm0-11.039h-5.758v5.519h5.758V56.06zm0-27.598h-5.758V45.02h5.758V28.462z"/><path d="M562.459 105.745h-5.758v27.597h5.758v-27.597zm0-16.558h-5.758v11.039h5.758V89.187zm0-11.049h-5.758v5.52h5.758v-5.52zm0-11.039h-5.758v5.519h5.758v-5.519zm0-38.637h-5.758v11.039h5.758V28.462zm0-11.038h-5.758v5.52h5.758v-5.52z"/><path d="M568.227 105.745h-5.758v27.597h5.758v-27.597zm0-16.558h-5.758v11.039h5.758V89.187zm0-27.607h-5.758v5.52h5.758v-5.52zm0-27.598h-5.758v11.039h5.758V33.982z"/><path d="M573.985 83.657h-5.758v49.675h5.758V83.657zm0-16.558h-5.758v5.519h5.758v-5.519zm0-16.558h-5.758V61.58h5.758V50.541zm0-11.039h-5.758v5.519h5.758v-5.519zm0-33.117h-5.758v5.519h5.758V6.385z"/><path d="M579.753 94.706h-5.758v38.636h5.758V94.706zm0-16.568h-5.758v11.039h5.758V78.138zm0-16.558h-5.758v5.52h5.758v-5.52zm0-11.039h-5.758v5.52h5.758v-5.52zm0-11.039h-5.758v5.519h5.758v-5.519zm0-11.04h-5.758v5.52h5.758v-5.52zm0-11.038h-5.758v5.52h5.758v-5.52z"/><use href="#BF"/><path d="M585.512 89.187h-5.759v5.52h5.759v-5.52z"/><use href="#BG"/><use href="#BH"/><path d="M585.512 6.385h-5.759v5.519h5.759V6.385zm5.758 82.802h-5.758v44.156h5.758V89.187zm0-16.569h-5.758v11.039h5.758V72.618zm0-38.636h-5.758v11.039h5.758V33.982z"/><path d="M591.27 11.904h-5.758v5.52h5.758v-5.52zm5.768 115.919h-5.758v5.52h5.758v-5.52zm0-16.558h-5.758v11.039h5.758v-11.039zm0-11.039h-5.758v5.519h5.758v-5.519zm0-33.127h-5.758v27.597h5.758V67.099zm0-22.078h-5.758V56.06h5.758V45.021zm0-11.039h-5.758v5.519h5.758v-5.519z"/><path d="M597.038 17.424h-5.758v5.52h5.758v-5.52zm5.758 99.36h-5.758v16.559h5.758v-16.559zm0-33.127h-5.758v27.598h5.758V83.657zm0-16.558h-5.758v11.039h5.758V67.099zm0-11.039h-5.758v5.519h5.758V56.06zm0-16.558h-5.758v5.519h5.758v-5.519z"/><path d="M608.554 94.706h-5.758v38.636h5.758V94.706zm0-27.607h-5.758v16.558h5.758V67.099zm0-27.597h-5.758v5.519h5.758v-5.519zm0-11.04h-5.758v5.52h5.758v-5.52z"/><path d="M614.322 94.706h-5.758v38.636h5.758V94.706zm0-27.607h-5.758v16.558h5.758V67.099zm0-38.637h-5.758V50.54h5.758V28.462z"/><path d="M620.08 89.187h-5.758v44.156h5.758V89.187zm0-16.569h-5.758v11.039h5.758V72.618zm0-27.597h-5.758V56.06h5.758V45.021zm0-11.039h-5.758v5.519h5.758v-5.519zm0-11.039h-5.758v5.519h5.758v-5.519z"/><path d="M625.848 116.784h-5.758v16.559h5.758v-16.559zm0-22.078h-5.758v11.039h5.758V94.706zm0-33.126h-5.758v16.558h5.758V61.58zm0-22.078h-5.758V56.06h5.758V39.502zm0-16.559h-5.758v5.519h5.758v-5.519z"/><path d="M631.607 122.304h-5.759v11.039h5.759v-11.039zm0-16.559h-5.759v5.52h5.759v-5.52zm0-22.088h-5.759v5.519h5.759v-5.519zm0-11.039h-5.759v5.519h5.759v-5.519zm0-44.156h-5.759V45.02h5.759V28.462z"/><path d="M637.365 105.745h-5.758v27.597h5.758v-27.597zm0-16.558h-5.758v11.039h5.758V89.187zm0-16.569h-5.758v5.519h5.758v-5.519zm0-22.077h-5.758V61.58h5.758V50.541zm0-11.039h-5.758v5.519h5.758v-5.519zm0-11.04h-5.758v5.52h5.758v-5.52zm-224.707 71.764h-5.759v33.116h5.759v-33.116zm-5.759-11.039v5.52h5.759v-5.52-5.529-5.52h-5.759v5.52 5.529zm5.759-60.725h-5.759v5.52h5.759v-5.52z"/><path d="M418.416 111.265h-5.758v22.078h5.758v-22.078zm0-22.078h-5.758v16.559h5.758V89.187zm0-22.088h-5.758v16.558h5.758V67.099zm0-22.078h-5.758v5.52h5.758v-5.52zm0-11.039h-5.758v5.519h5.758v-5.519zm0-11.039h-5.758v5.519h5.758v-5.519z"/><path d="M424.174 78.138h-5.758v55.194h5.758V78.138zm0-44.156h-5.758V50.54h5.758V33.982zm0-22.078h-5.758v5.52h5.758v-5.52zm5.768 93.841h-5.758v27.597h5.758v-27.597zm0-16.558h-5.758v5.52h5.758v-5.52zm0-16.569h-5.758v5.519h5.758v-5.519zm0-22.077h-5.758V61.58h5.758V50.541zm0-22.079h-5.758v5.52h5.758v-5.52zm0-22.077h-5.758v11.039h5.758V6.385z"/><path d="M435.7 100.226h-5.758v33.116h5.758v-33.116zm0-44.166h-5.758v11.039h5.758V56.06zm0-11.039h-5.758v5.52h5.758v-5.52zm0-16.559h-5.758v5.52h5.758v-5.52zm0-11.038h-5.758v5.52h5.758v-5.52zm5.768 71.763h-5.758v44.156h5.758V89.187zm0-11.049h-5.758v5.52h5.758v-5.52zm0-22.078h-5.758v16.558h5.758V56.06zm0-16.558h-5.758V50.54h5.758V39.502zm0-11.04h-5.758v5.52h5.758v-5.52zm0-27.597h-5.758v5.519h5.758V.865z"/><path d="M447.226 105.745h-5.758v27.597h5.758v-27.597zm0-16.558h-5.758v11.039h5.758V89.187zm0-16.569h-5.758v5.519h5.758v-5.519zm0-22.077h-5.758v5.52h5.758v-5.52zm0-16.559h-5.758v5.519h5.758v-5.519zm0-27.597h-5.758v5.519h5.758V6.385z"/><use href="#BI"/><use href="#BJ"/><path d="M452.985 33.982h-5.759v5.519h5.759v-5.519zm0-22.078h-5.759v5.52h5.759v-5.52zm5.768 93.841h-5.759v27.597h5.759v-27.597zm0-11.039h-5.759v5.52h5.759v-5.52zm0-22.088h-5.759v11.039h5.759V72.618zm0-22.077h-5.759v5.52h5.759v-5.52z"/><path d="M458.753 33.982h-5.759v5.519h5.759v-5.519zm5.758 49.675h-5.758v49.675h5.758V83.657zm0-33.116h-5.758v27.597h5.758V50.541zm0-44.156h-5.758v5.519h5.758V6.385z"/><path d="M470.269 111.265h-5.758v22.078h5.758v-22.078zm0-27.608h-5.758v22.078h5.758V83.657zm0-22.077h-5.758v5.52h5.758v-5.52zm0-27.598h-5.758V50.54h5.758V33.982zm0-16.558h-5.758v5.52h5.758v-5.52z"/><path d="M476.037 78.138h-5.758v55.194h5.758V78.138zm0-16.558h-5.758v5.52h5.758v-5.52zm0-11.039h-5.758v5.52h5.758v-5.52zm0-11.039h-5.758v5.519h5.758v-5.519zm0-22.078h-5.758v11.039h5.758V17.424z"/><path d="M481.795 105.745h-5.758v27.597h5.758v-27.597zm0-71.763h-5.758v44.156h5.758V33.982z"/><path d="M487.563 78.138h-5.758v55.194h5.758V78.138zm0-22.078h-5.758v5.519h5.758V56.06zm0-11.039h-5.758v5.52h5.758v-5.52zm0-22.078h-5.758v5.519h5.758v-5.519z"/><path d="M493.321 105.745h-5.758v27.597h5.758v-27.597zm0-16.558h-5.758v11.039h5.758V89.187zm0-22.088h-5.758v16.558h5.758V67.099zm0-11.039h-5.758v5.519h5.758V56.06zm0-27.598h-5.758v5.52h5.758v-5.52z"/><path d="M499.08 100.226h-5.759v33.116h5.759v-33.116zm0-11.039h-5.759v5.52h5.759v-5.52zm0-27.607h-5.759v22.078h5.759V61.58zm0-16.559h-5.759v5.52h5.759v-5.52zm0-11.039h-5.759v5.519h5.759v-5.519zM1280 127.823h-230.47v5.52H1280v-5.52z"/><path d="M1233.91 122.304h-184.38v5.519h184.38v-5.519zm46.09 0h-40.34v5.519H1280v-5.519z"/><path d="M1268.47 116.784h-218.94v5.52h218.94v-5.52z"/><use href="#BK"/><path d="M1239.66 111.265h-190.13v5.519h190.13v-5.519z"/><use href="#BL"/><use href="#BM"/><use href="#BN"/><path d="M1107.15 105.745h-46.1v5.52h46.1v-5.52zm40.32 0h-34.57v5.52h34.57v-5.52z"/><use href="#BO"/><path d="M1233.9 105.745h-51.86v5.52h51.86v-5.52z"/><use href="#BP"/><path d="M1280 105.745h-11.53v5.52H1280v-5.52z"/><use href="#BQ"/><use href="#BR"/><path d="M1095.61 100.226h-5.76v5.519h5.76v-5.519zm23.05 0h-17.28v5.519h17.28v-5.519zm11.53 0h-5.76v5.519h5.76v-5.519zm23.04 0h-17.28v5.519h17.28v-5.519zm34.57 0h-23.04v5.519h23.04v-5.519zm80.67 0h-57.62v5.519h57.62v-5.519z"/><use href="#BS"/><path d="M1118.67 94.706h-40.33v5.52h40.33v-5.52zm17.29 0h-11.53v5.52h11.53v-5.52zm17.27 0h-5.76v5.52h5.76v-5.52zm69.15 0H1159v5.52h63.38v-5.52zm11.52 0h-5.76v5.52h5.76v-5.52zm34.57 0h-28.81v5.52h28.81v-5.52zm11.52 0h-5.76v5.52h5.76v-5.52zm-207.42-5.519h-23.04v5.52h23.04v-5.52z"/><use href="#BT"/><path d="M1118.66 89.187h-17.28v5.52h17.28v-5.52zm46.11 0h-40.34v5.52h40.34v-5.52z"/><use href="#BU"/><path d="M1216.62 89.187h-28.81v5.52h28.81v-5.52z"/><use href="#BV"/><path d="M1262.71 89.187h-5.76v5.52h5.76v-5.52zm17.28 0h-5.76v5.52h5.76v-5.52z"/><use href="#BW"/><path d="M1066.81 83.657h-5.76v5.519h5.76v-5.519zm28.8 0h-5.76v5.519h5.76v-5.519zm23.05 0h-17.28v5.519h17.28v-5.519zm11.53 0h-5.76v5.519h5.76v-5.519zm23.05 0h-11.52v5.519h11.52v-5.519z"/><use href="#BX"/><path d="M1182.04 83.657h-5.76v5.519h5.76v-5.519z"/><use href="#BY"/><path d="M1245.43 83.657h-11.52v5.519h11.52v-5.519zm28.8 0h-5.76v5.519h5.76v-5.519zm-207.42-5.519h-17.28v5.52h17.28v-5.52zm17.28 0h-5.75v5.52h5.75v-5.52zm17.29 0h-5.76v5.52h5.76v-5.52zm17.28 0h-5.76v5.52h5.76v-5.52zm28.82 0h-23.05v5.52h23.05v-5.52zm17.29 0h-11.53v5.52h11.53v-5.52zm40.32 0h-28.81v5.52h28.81v-5.52zm17.29 0h-5.76v5.52h5.76v-5.52z"/><path d="M1239.66 78.138h-11.52v5.52h11.52v-5.52z"/><use href="#BZ"/><path d="M1061.04 72.618h-5.76v5.519h5.76v-5.519zm11.53 0h-5.76v5.519h5.76v-5.519z"/><use href="#Ba"/><path d="M1124.42 72.618h-5.76v5.519h5.76v-5.519zm17.3 0h-11.53v5.519h11.53v-5.519zm34.56 0h-23.04v5.519h23.04v-5.519zm23.05 0h-5.76v5.519h5.76v-5.519zm80.67 0h-57.62v5.519H1280v-5.519zm-218.96-5.519h-5.76v5.519h5.76v-5.519zm23.05 0h-5.75v5.519h5.75v-5.519zm11.52 0h-5.76v5.519h5.76v-5.519zm11.53 0h-5.76v5.519h5.76v-5.519z"/><path d="M1124.42 67.099h-5.76v5.519h5.76v-5.519zm34.58 0h-28.81v5.519H1159v-5.519zm23.04 0h-17.28v5.519h17.28v-5.519zm23.05 0h-11.52v5.519h11.52v-5.519zm11.52 0h-5.76v5.519h5.76v-5.519zm11.53 0h-5.76v5.519h5.76v-5.519zm28.82 0h-23.05v5.519h23.05v-5.519zm11.51 0h-5.75v5.519h5.75v-5.519zm-184.38-5.519h-11.52v5.52h11.52v-5.52zm11.52 0h-5.76v5.52h5.76v-5.52z"/><path d="M1124.42 61.58h-23.04v5.52h23.04v-5.52zm17.29 0h-5.76v5.52h5.76v-5.52zm11.52 0h-5.76v5.52h5.76v-5.52zm23.05 0H1159v5.52h17.28v-5.52zm17.29 0h-11.53v5.52h11.53v-5.52zm17.28 0h-5.76v5.52h5.76v-5.52zm17.3 0h-11.53v5.52h11.53v-5.52zm40.32 0h-5.75v5.52h5.75v-5.52zm-184.38-5.52h-17.28v5.519h17.28V56.06z"/><use href="#Bb"/><path d="M1107.14 56.06h-5.76v5.519h5.76V56.06zm28.81 0h-17.29v5.519h17.29V56.06zm11.52 0h-5.75v5.519h5.75V56.06zm23.06 0H1159v5.519h11.53V56.06zm11.51 0h-5.76v5.519h5.76V56.06zm17.3 0h-11.53v5.519h11.53V56.06zm17.27 0h-5.76v5.519h5.76V56.06zm28.81 0h-5.76v5.519h5.76V56.06zm34.57 0h-5.76v5.519h5.76V56.06zm-207.42-5.519h-5.76v5.52h5.76v-5.52z"/><path d="M1107.14 50.541h-23.05v5.52h23.05v-5.52zm17.29 0h-11.53v5.52h11.53v-5.52zm23.04 0h-5.75v5.52h5.75v-5.52zm17.3 0h-11.53v5.52h11.53v-5.52zm23.04 0h-17.28v5.52h17.28v-5.52zm40.33 0h-17.29v5.52h17.29v-5.52zm11.52 0h-5.75v5.52h5.75v-5.52zm28.81 0h-11.52v5.52h11.52v-5.52zm11.52 0h-5.76v5.52h5.76v-5.52zm-213.18-5.52h-11.53v5.52h11.53v-5.52z"/><path d="M1084.09 45.021h-11.52v5.52h11.52v-5.52zm11.52 0h-5.76v5.52h5.76v-5.52zm17.29 0h-5.75v5.52h5.75v-5.52zm17.29 0h-11.53v5.52h11.53v-5.52zm23.04 0h-17.28v5.52h17.28v-5.52zm28.81 0h-5.76v5.52h5.76v-5.52zm46.1 0h-5.76v5.52h5.76v-5.52zm11.52 0h-5.75v5.52h5.75v-5.52zm28.81 0h-17.28v5.52h17.28v-5.52zm-201.66-5.519h-5.76v5.519h5.76v-5.519z"/><path d="M1084.09 39.502h-5.75v5.519h5.75v-5.519zm40.34 0h-17.28v5.519h17.28v-5.519zm28.81 0h-11.52v5.519h11.52v-5.519zm17.29 0H1159v5.519h11.53v-5.519zm11.51 0h-5.76v5.519h5.76v-5.519zm17.3 0h-11.53v5.519h11.53v-5.519zm34.57 0h-28.82v5.519h28.82v-5.519zm23.04 0h-17.29v5.519h17.29v-5.519zm23.05 0h-17.28v5.519H1280v-5.519zm-213.19-5.52h-11.53v5.519h11.53v-5.519z"/><path d="M1101.38 33.982h-17.29v5.519h17.29v-5.519zm11.52 0h-5.75v5.519h5.75v-5.519zm11.52 0h-5.76v5.519h5.76v-5.519zm17.29 0h-5.76v5.519h5.76v-5.519zm23.05 0H1159v5.519h5.76v-5.519zm23.04 0h-5.76v5.519h5.76v-5.519zm23.05 0h-17.28v5.519h17.28v-5.519zm28.81 0h-11.52v5.519h11.52v-5.519zm23.06 0h-11.53v5.519h11.53v-5.519zm11.51 0h-5.76v5.519h5.76v-5.519zm-218.95-5.52h-5.75v5.52h5.75v-5.52z"/><path d="M1084.09 28.462h-17.28v5.52h17.28v-5.52zm51.86 0h-5.76v5.52h5.76v-5.52zm51.85 0h-5.76v5.52h5.76v-5.52zm17.29 0h-11.52v5.52h11.52v-5.52zm17.29 0h-5.76v5.52h5.76v-5.52zm34.58 0h-11.53v5.52h11.53v-5.52zm23.04 0h-11.53v5.52H1280v-5.52zm-218.96-5.519h-5.76v5.519h5.76v-5.519zm57.62 0h-5.76v5.519h5.76v-5.519z"/><path d="M1130.19 22.943h-5.76v5.519h5.76v-5.519zm17.28 0h-5.75v5.519h5.75v-5.519zm11.53 0h-5.76v5.519h5.76v-5.519zm109.47 0h-11.52v5.519h11.52v-5.519zm-190.14-5.519h-5.76v5.52h5.76v-5.52zm40.34 0h-11.52v5.52h11.52v-5.52zm86.42 0h-5.75v5.52h5.75v-5.52zm17.29 0h-5.76v5.52h5.76v-5.52zm17.28 0h-5.75v5.52h5.75v-5.52z"/><path d="M1072.58 11.904h-11.53v5.52h11.53v-5.52zm23.03 0h-5.76v5.52h5.76v-5.52zm57.62 0h-5.76v5.52h5.76v-5.52zm17.29 0h-5.76v5.52h5.76v-5.52zm17.28 0h-5.76v5.52h5.76v-5.52zm46.1 0h-5.76v5.52h5.76v-5.52z"/><use href="#Bc"/><path d="M1089.85 6.385h-5.76v5.519h5.76V6.385zm17.29 0h-5.76v5.519h5.76V6.385z"/><use href="#Bd"/><use href="#Be"/><path d="M1216.61 6.385h-5.76v5.519h5.76V6.385zm11.53 0h-5.76v5.519h5.76V6.385z"/><use href="#Bf"/><use href="#Bg"/><use href="#Bh"/><path d="M1147.47 78.138h-5.75v16.558h5.75V78.138zm0-11.039h-5.75v5.519h5.75v-5.519zm0-27.597h-5.75V61.58h5.75V39.502zm0-16.559h-5.75v5.519h5.75v-5.519z"/><use href="#Bd"/><use href="#Bi"/><path d="M1153.23 83.657h-5.76v22.078h5.76V83.657zm0-22.077h-5.76v11.039h5.76V61.58zm0-22.078h-5.76V50.54h5.76V39.502zm0-27.598h-5.76v5.52h5.76v-5.52z"/><use href="#Bj"/><path d="M1159 89.187h-5.76v5.52h5.76v-5.52z"/><use href="#Bk"/><path d="M1159 50.541h-5.76v5.52h5.76v-5.52zm0-27.598h-5.76v5.519h5.76v-5.519zm5.76 82.802H1159v27.597h5.76v-27.597zm0-33.127H1159v27.598h5.76V72.618z"/><path d="M1164.76 50.541H1159v16.558h5.76V50.541zm0-16.559H1159v11.039h5.76V33.982z"/><use href="#Be"/><use href="#Bl"/><path d="M1170.52 83.657h-5.76v5.519h5.76v-5.519zm0-27.597h-5.76v22.078h5.76V56.06zm0-16.558h-5.76v5.519h5.76v-5.519zm0-27.598h-5.76v5.52h5.76v-5.52z"/><use href="#Bm"/><use href="#Bn"/><path d="M1176.28 50.541h-5.75v5.52h5.75v-5.52zm5.76 60.724h-5.76v22.078h5.76v-22.078zm0-33.127h-5.76v27.597h5.76V78.138zm0-11.039h-5.76v5.519h5.76v-5.519z"/><path d="M1182.04 39.502h-5.76V61.58h5.76V39.502zm5.76 55.204h-5.76v38.636h5.76V94.706zm0-16.568h-5.76v5.52h5.76v-5.52z"/><path d="M1187.8 61.58h-5.76v5.52h5.76v-5.52zm0-11.039h-5.76v5.52h5.76v-5.52zm0-22.079h-5.76v11.039h5.76V28.462zm0-16.558h-5.76v5.52h5.76v-5.52zm5.77 93.841h-5.76v27.597h5.76v-27.597z"/><use href="#Bo"/><path d="M1193.57 78.138h-5.76v5.52h5.76v-5.52z"/><use href="#Bp"/><path d="M1193.57 39.502h-5.76v5.519h5.76v-5.519z"/><use href="#Bg"/><path d="M1199.33 105.745h-5.76v27.597h5.76v-27.597zm0-16.558h-5.76v11.039h5.76V89.187zm0-22.088h-5.76v16.558h5.76V67.099zm0-11.039h-5.76v5.519h5.76V56.06z"/><use href="#Bq"/><path d="M1205.09 105.745h-5.75v27.597h5.75v-27.597zm0-16.558h-5.75v11.039h5.75V89.187zm0-11.049h-5.75v5.52h5.75v-5.52zm0-11.039h-5.75v5.519h5.75v-5.519zm0-38.637h-5.75v11.039h5.75V28.462zm0-11.038h-5.75v5.52h5.75v-5.52z"/><path d="M1210.85 105.745h-5.76v27.597h5.76v-27.597zm0-16.558h-5.76v11.039h5.76V89.187zm0-27.607h-5.76v5.52h5.76v-5.52z"/><use href="#Br"/><use href="#Bs"/><path d="M1216.61 67.099h-5.76v5.519h5.76v-5.519z"/><use href="#Bt"/><path d="M1216.61 39.502h-5.76v5.519h5.76v-5.519zm0-33.117h-5.76v5.519h5.76V6.385zm5.77 88.321h-5.76v38.636h5.76V94.706zm0-16.568h-5.76v11.039h5.76V78.138zm0-16.558h-5.76v5.52h5.76v-5.52zm0-11.039h-5.76v5.52h5.76v-5.52zm0-11.039h-5.76v5.519h5.76v-5.519zm0-11.04h-5.76v5.52h5.76v-5.52zm0-11.038h-5.76v5.52h5.76v-5.52z"/><use href="#Bu"/><path d="M1228.14 89.187h-5.76v5.52h5.76v-5.52z"/><use href="#Bv"/><use href="#Bw"/><path d="M1228.14 6.385h-5.76v5.519h5.76V6.385z"/><use href="#Bx"/><use href="#By"/><path d="M1233.9 33.982h-5.76v11.039h5.76V33.982zm0-22.078h-5.76v5.52h5.76v-5.52zm5.76 115.919h-5.75v5.52h5.75v-5.52z"/><use href="#Bz"/><path d="M1239.66 100.226h-5.75v5.519h5.75v-5.519z"/><use href="#CA"/><use href="#CB"/><path d="M1239.66 33.982h-5.75v5.519h5.75v-5.519zm0-16.558h-5.75v5.52h5.75v-5.52z"/><use href="#CC"/><use href="#CD"/><use href="#CE"/><path d="M1245.42 56.06h-5.76v5.519h5.76V56.06zm0-16.558h-5.76v5.519h5.76v-5.519zm5.77 55.204h-5.76v38.636h5.76V94.706zm0-27.607h-5.76v16.558h5.76V67.099z"/><path d="M1251.19 39.502h-5.76v5.519h5.76v-5.519zm0-11.04h-5.76v5.52h5.76v-5.52zm5.76 66.244h-5.76v38.636h5.76V94.706zm0-27.607h-5.76v16.558h5.76V67.099z"/><path d="M1256.95 28.462h-5.76V50.54h5.76V28.462zm5.76 60.725h-5.76v44.156h5.76V89.187zm0-16.569h-5.76v11.039h5.76V72.618z"/><path d="M1262.71 45.021h-5.76V56.06h5.76V45.021zm0-11.039h-5.76v5.519h5.76v-5.519zm0-11.039h-5.76v5.519h5.76v-5.519zm5.76 93.841h-5.75v16.559h5.75v-16.559zm0-22.078h-5.75v11.039h5.75V94.706zm0-33.126h-5.75v16.558h5.75V61.58z"/><path d="M1268.47 39.502h-5.75V56.06h5.75V39.502zm0-16.559h-5.75v5.519h5.75v-5.519zm5.76 99.361h-5.76v11.039h5.76v-11.039zm0-16.559h-5.76v5.52h5.76v-5.52zm0-22.088h-5.76v5.519h5.76v-5.519zm0-11.039h-5.76v5.519h5.76v-5.519z"/><path d="M1274.23 28.462h-5.76V45.02h5.76V28.462zm5.76 77.283h-5.76v27.597h5.76v-27.597zm0-16.558h-5.76v11.039h5.76V89.187zm0-16.569h-5.76v5.519h5.76v-5.519zm0-22.077h-5.76V61.58h5.76V50.541z"/><path d="M1279.99 39.502h-5.76v5.519h5.76v-5.519zm0-11.04h-5.76v5.52h5.76v-5.52zm-224.71 71.764h-5.75v33.116h5.75v-33.116zm-5.75-11.039v5.52h5.75v-5.52-5.529-5.52h-5.75v5.52 5.529zm5.75-60.725h-5.75v5.52h5.75v-5.52z"/><path d="M1061.04 111.265h-5.76v22.078h5.76v-22.078zm0-22.078h-5.76v16.559h5.76V89.187zm0-22.088h-5.76v16.558h5.76V67.099zm0-22.078h-5.76v5.52h5.76v-5.52zm0-11.039h-5.76v5.519h5.76v-5.519zm0-11.039h-5.76v5.519h5.76v-5.519z"/><use href="#CF"/><path d="M1066.81 33.982h-5.76V50.54h5.76V33.982zm0-22.078h-5.76v5.52h5.76v-5.52zm5.76 93.841h-5.76v27.597h5.76v-27.597zm0-16.558h-5.76v5.52h5.76v-5.52zm0-16.569h-5.76v5.519h5.76v-5.519z"/><path d="M1072.57 50.541h-5.76V61.58h5.76V50.541zm0-22.079h-5.76v5.52h5.76v-5.52zm0-22.077h-5.76v11.039h5.76V6.385zm5.76 93.841h-5.76v33.116h5.76v-33.116z"/><path d="M1078.33 56.06h-5.76v11.039h5.76V56.06zm0-11.039h-5.76v5.52h5.76v-5.52zm0-16.559h-5.76v5.52h5.76v-5.52zm0-11.038h-5.76v5.52h5.76v-5.52zm5.76 71.763h-5.75v44.156h5.75V89.187zm0-11.049h-5.75v5.52h5.75v-5.52z"/><path d="M1084.09 56.06h-5.75v16.558h5.75V56.06zm0-16.558h-5.75V50.54h5.75V39.502zm0-11.04h-5.75v5.52h5.75v-5.52z"/><use href="#Bf"/><path d="M1089.85 105.745h-5.76v27.597h5.76v-27.597zm0-16.558h-5.76v11.039h5.76V89.187zm0-16.569h-5.76v5.519h5.76v-5.519zm0-22.077h-5.76v5.52h5.76v-5.52zm0-16.559h-5.76v5.519h5.76v-5.519zm0-27.597h-5.76v5.519h5.76V6.385z"/><path d="M1095.61 83.657h-5.76v49.675h5.76V83.657zm0-38.636h-5.76v33.117h5.76V45.021zm0-11.039h-5.76v5.519h5.76v-5.519zm0-22.078h-5.76v5.52h5.76v-5.52zm5.77 93.841h-5.76v27.597h5.76v-27.597zm0-11.039h-5.76v5.52h5.76v-5.52zm0-22.088h-5.76v11.039h5.76V72.618zm0-22.077h-5.76v5.52h5.76v-5.52zm0-16.559h-5.76v5.519h5.76v-5.519z"/><path d="M1107.14 83.657h-5.76v49.675h5.76V83.657zm0-33.116h-5.76v27.597h5.76V50.541zm0-44.156h-5.76v5.519h5.76V6.385z"/><path d="M1112.9 111.265h-5.75v22.078h5.75v-22.078zm0-27.608h-5.75v22.078h5.75V83.657zm0-22.077h-5.75v5.52h5.75v-5.52zm0-27.598h-5.75V50.54h5.75V33.982zm0-16.558h-5.75v5.52h5.75v-5.52z"/><path d="M1118.66 78.138h-5.76v55.194h5.76V78.138zm0-16.558h-5.76v5.52h5.76v-5.52zm0-11.039h-5.76v5.52h5.76v-5.52zm0-11.039h-5.76v5.519h5.76v-5.519zm0-22.078h-5.76v11.039h5.76V17.424z"/><path d="M1124.42 105.745h-5.76v27.597h5.76v-27.597zm0-71.763h-5.76v44.156h5.76V33.982z"/><path d="M1130.19 78.138h-5.76v55.194h5.76V78.138zm0-22.078h-5.76v5.519h5.76V56.06zm0-11.039h-5.76v5.52h5.76v-5.52zm0-22.078h-5.76v5.519h5.76v-5.519z"/><path d="M1135.95 105.745h-5.76v27.597h5.76v-27.597zm0-16.558h-5.76v11.039h5.76V89.187zm0-22.088h-5.76v16.558h5.76V67.099zm0-11.039h-5.76v5.519h5.76V56.06zm0-27.598h-5.76v5.52h5.76v-5.52z"/><path d="M1141.71 100.226h-5.76v33.116h5.76v-33.116zm0-11.039h-5.76v5.52h5.76v-5.52zm0-27.607h-5.76v22.078h5.76V61.58zm0-16.559h-5.76v5.52h5.76v-5.52zm0-11.039h-5.76v5.519h5.76v-5.519zm-275.65 93.841H635.585v5.52H866.06v-5.52z"/><path d="M819.965 122.304h-184.38v5.519h184.38v-5.519zm46.105 0h-40.337v5.519h40.337v-5.519z"/><path d="M854.534 116.784H635.585v5.52h218.949v-5.52zm11.526 0h-5.758v5.52h5.758v-5.52z"/><path d="M825.723 111.265H635.585v5.519h190.138v-5.519zm23.052 0h-17.284v5.519h17.284v-5.519zm17.285 0h-5.758v5.519h5.758v-5.519z"/><path d="M641.343 105.745h-5.758v5.52h5.758v-5.52zm51.863 0h-46.095v5.52h46.095v-5.52zm40.327 0h-34.569v5.52h34.569v-5.52zm28.81 0h-23.042v5.52h23.042v-5.52zm57.622 0h-51.853v5.52h51.853v-5.52zm28.82 0h-23.052v5.52h23.052v-5.52zm17.285 0h-11.526v5.52h11.526v-5.52z"/><path d="M652.869 100.226h-17.284v5.519h17.284v-5.519zm17.294 0h-11.526v5.519h11.526v-5.519zm11.517 0h-5.759v5.519h5.759v-5.519zm23.052 0h-17.284v5.519h17.284v-5.519zm11.516 0h-5.758v5.519h5.758v-5.519zm23.053 0h-17.284v5.519h17.284v-5.519zm34.569 0h-23.043v5.519h23.043v-5.519zm80.674 0h-57.622v5.519h57.622v-5.519z"/><path d="M652.879 94.706h-11.526v5.52h11.526v-5.52zm51.853 0h-40.337v5.52h40.337v-5.52zm17.285 0H710.49v5.52h11.527v-5.52zm17.284 0h-5.758v5.52h5.758v-5.52zm69.138 0h-63.38v5.52h63.38v-5.52zm11.526 0h-5.758v5.52h5.758v-5.52zm34.579 0h-28.811v5.52h28.811v-5.52zm11.516 0h-5.758v5.52h5.758v-5.52z"/><path d="M658.627 89.187h-23.042v5.52h23.042v-5.52zm23.053 0h-17.285v5.52h17.285v-5.52zm23.052 0h-17.284v5.52h17.284v-5.52zm46.095 0H710.49v5.52h40.337v-5.52zm17.285 0h-11.527v5.52h11.527v-5.52zm34.568 0h-28.81v5.52h28.81v-5.52zm28.821 0h-23.053v5.52h23.053v-5.52zm17.274 0h-5.758v5.52h5.758v-5.52zm17.285 0h-5.758v5.52h5.758v-5.52zm-224.717-5.53h-5.758v5.519h5.758v-5.519zm11.526 0h-5.758v5.519h5.758v-5.519zm28.811 0h-5.759v5.519h5.759v-5.519zm23.052 0h-17.284v5.519h17.284v-5.519zm11.516 0h-5.758v5.519h5.758v-5.519zm23.053 0h-11.526v5.519h11.526v-5.519zm17.284 0h-11.526v5.519h11.526v-5.519zm11.527 0h-5.759v5.519h5.759v-5.519zm40.336 0h-11.526v5.519h11.526v-5.519zm23.043 0h-11.526v5.519h11.526v-5.519zm28.811 0h-5.758v5.519h5.758v-5.519z"/><path d="M652.869 78.138h-17.284v5.52h17.284v-5.52zm17.284 0h-5.758v5.52h5.758v-5.52zm17.285 0h-5.758v5.52h5.758v-5.52zm17.284 0h-5.758v5.52h5.758v-5.52zm28.821 0H710.49v5.52h23.053v-5.52zm17.284 0h-11.526v5.52h11.526v-5.52zm40.337 0h-28.811v5.52h28.811v-5.52zm17.274 0h-5.758v5.52h5.758v-5.52zm17.295 0h-11.526v5.52h11.526v-5.52zm23.042 0h-17.284v5.52h17.284v-5.52z"/><path d="M647.111 72.618h-5.758v5.519h5.758v-5.519zm11.516 0h-5.758v5.519h5.758v-5.519zm34.579 0h-23.043v5.519h23.043v-5.519zm17.284 0h-5.758v5.519h5.758v-5.519zm17.295 0h-11.527v5.519h11.527v-5.519zm34.558 0h-23.042v5.519h23.042v-5.519zm23.053 0h-5.758v5.519h5.758v-5.519zm80.674 0h-57.622v5.519h57.622v-5.519z"/><path d="M647.111 67.099h-5.758v5.519h5.758v-5.519zm23.042 0h-5.758v5.519h5.758v-5.519zm11.527 0h-5.759v5.519h5.759v-5.519zm11.526 0h-5.758v5.519h5.758v-5.519zm17.284 0h-5.758v5.519h5.758v-5.519zm34.579 0h-28.811v5.519h28.811v-5.519zm23.043 0h-17.285v5.519h17.285v-5.519zm23.052 0h-11.526v5.519h11.526v-5.519zm11.516 0h-5.758v5.519h5.758v-5.519zm11.527 0h-5.759v5.519h5.759v-5.519zm28.81 0h-23.052v5.519h23.052v-5.519zm11.517 0h-5.759v5.519h5.759v-5.519z"/><path d="M670.163 61.58h-11.526v5.52h11.526v-5.52zm11.517 0h-5.759v5.52h5.759v-5.52zm28.81 0h-23.042v5.52h23.042v-5.52zm17.285 0h-5.758v5.52h5.758v-5.52zm11.526 0h-5.758v5.52h5.758v-5.52zm23.042 0h-17.284v5.52h17.284v-5.52zm17.295 0h-11.526v5.52h11.526v-5.52zm17.274 0h-5.758v5.52h5.758v-5.52zm17.295 0H802.68v5.52h11.527v-5.52zm40.327 0h-5.759v5.52h5.759v-5.52z"/><path d="M670.153 56.06h-17.284v5.519h17.284V56.06zm11.527 0h-5.759v5.519h5.759V56.06zm11.526 0h-5.758v5.519h5.758V56.06zm28.811 0h-17.285v5.519h17.285V56.06zm11.516 0h-5.758v5.519h5.758V56.06zm23.052 0h-11.526v5.519h11.526V56.06zm11.527 0h-5.759v5.519h5.759V56.06zm17.284 0H773.87v5.519h11.526V56.06zm17.284 0h-5.758v5.519h5.758V56.06zm28.811 0h-5.758v5.519h5.758V56.06zm34.569 0h-5.758v5.519h5.758V56.06z"/><path d="M658.627 50.541h-5.758v5.52h5.758v-5.52zm34.579 0h-23.043v5.52h23.043v-5.52zm17.284 0h-11.526v5.52h11.526v-5.52zm23.043 0h-5.758v5.52h5.758v-5.52zm17.294 0h-11.526v5.52h11.526v-5.52zm23.043 0h-17.285v5.52h17.285v-5.52zm40.337 0h-17.285v5.52h17.285v-5.52zm11.516 0h-5.758v5.52h5.758v-5.52zm28.821 0h-11.527v5.52h11.527v-5.52zm11.516 0h-5.758v5.52h5.758v-5.52z"/><path d="M652.879 45.021h-11.526v5.52h11.526v-5.52zm17.284 0h-11.526v5.52h11.526v-5.52zm11.517 0h-5.759v5.52h5.759v-5.52zm17.284 0h-5.758v5.52h5.758v-5.52zm17.294 0h-11.526v5.52h11.526v-5.52zm23.043 0h-17.284v5.52h17.284v-5.52zm28.811 0h-5.759v5.52h5.759v-5.52zm46.095 0h-5.759v5.52h5.759v-5.52zm11.516 0h-5.758v5.52h5.758v-5.52zm28.811 0h-17.285v5.52h17.285v-5.52z"/><path d="M652.869 39.502h-5.758v5.519h5.758v-5.519zm17.284 0h-5.758v5.519h5.758v-5.519zm40.337 0h-17.284v5.519h17.284v-5.519zm28.811 0h-11.526v5.519h11.526v-5.519zm17.284 0h-11.526v5.519h11.526v-5.519zm11.527 0h-5.759v5.519h5.759v-5.519zm17.284 0H773.87v5.519h11.526v-5.519zm34.569 0h-28.811v5.519h28.811v-5.519zm23.052 0h-17.284v5.519h17.284v-5.519zm23.043 0h-17.285v5.519h17.285v-5.519z"/><path d="M652.879 33.982h-11.526v5.519h11.526v-5.519zm34.569 0h-17.285v5.519h17.285v-5.519zm11.516 0h-5.758v5.519h5.758v-5.519zm11.526 0h-5.758v5.519h5.758v-5.519zm17.285 0h-5.758v5.519h5.758v-5.519zm23.042 0h-5.758v5.519h5.758v-5.519zm23.053 0h-5.758v5.519h5.758v-5.519zm23.052 0h-17.284v5.519h17.284v-5.519zm28.811 0h-11.526v5.519h11.526v-5.519zm23.042 0h-11.526v5.519h11.526v-5.519zm11.527 0h-5.758v5.519h5.758v-5.519zm-218.959-5.52h-5.758v5.52h5.758v-5.52z"/><path d="M670.153 28.462h-17.284v5.52h17.284v-5.52zm51.863 0h-5.758v5.52h5.758v-5.52zm51.854 0h-5.758v5.52h5.758v-5.52zm17.294 0h-11.526v5.52h11.526v-5.52zm17.274 0h-5.758v5.52h5.758v-5.52zm34.579 0h-11.526v5.52h11.526v-5.52zm23.053 0h-11.526v5.52h11.526v-5.52zm-218.959-5.519h-5.758v5.519h5.758v-5.519zm57.611 0h-5.758v5.519h5.758v-5.519z"/><path d="M716.248 22.943h-5.758v5.519h5.758v-5.519zm17.285 0h-5.758v5.519h5.758v-5.519zm11.526 0h-5.758v5.519h5.758v-5.519zm109.485 0h-11.527v5.519h11.527v-5.519zm-190.149-5.519h-5.758v5.52h5.758v-5.52zm40.337 0h-11.526v5.52h11.526v-5.52zm86.422 0h-5.758v5.52h5.758v-5.52zm17.284 0h-5.758v5.52h5.758v-5.52zm17.285 0h-5.758v5.52h5.758v-5.52z"/><path d="M658.637 11.904h-11.526v5.52h11.526v-5.52zm23.043 0h-5.759v5.52h5.759v-5.52zm57.621 0h-5.758v5.52h5.758v-5.52zm17.284 0h-5.758v5.52h5.758v-5.52zm17.285 0h-5.758v5.52h5.758v-5.52zm46.095 0h-5.758v5.52h5.758v-5.52z"/><path d="M658.627 6.385h-5.758v5.519h5.758V6.385zm17.294 0h-5.758v5.519h5.758V6.385zm17.285 0h-5.758v5.519h5.758V6.385zm40.327 0h-5.758v5.519h5.758V6.385zm17.284 0h-5.758v5.519h5.758V6.385zm51.863 0h-5.758v5.519h5.758V6.385zm11.527 0h-5.759v5.519h5.759V6.385z"/><path d="M670.153.865h-5.758v5.519h5.758V.865zm109.475 0h-5.758v5.519h5.758V.865zm-46.095 99.361h-5.758v33.116h5.758v-33.116zm0-22.088h-5.758v16.558h5.758V78.138zm0-11.039h-5.758v5.519h5.758v-5.519zm0-27.597h-5.758V61.58h5.758V39.502zm0-16.559h-5.758v5.519h5.758v-5.519zm0-16.558h-5.758v5.519h5.758V6.385z"/><path d="M739.301 111.265h-5.758v22.078h5.758v-22.078zm0-27.608h-5.758v22.078h5.758V83.657zm0-22.077h-5.758v11.039h5.758V61.58zm0-22.078h-5.758V50.54h5.758V39.502zm0-27.598h-5.758v5.52h5.758v-5.52z"/><path d="M745.059 105.745h-5.758v27.597h5.758v-27.597zm0-16.558h-5.758v5.52h5.758v-5.52zm0-22.088h-5.758v16.558h5.758V67.099zm0-16.558h-5.758v5.52h5.758v-5.52zm0-27.598h-5.758v5.519h5.758v-5.519z"/><path d="M750.817 105.745h-5.758v27.597h5.758v-27.597zm0-33.127h-5.758v27.598h5.758V72.618zm0-22.077h-5.758v16.558h5.758V50.541zm0-16.559h-5.758v11.039h5.758V33.982zm0-27.597h-5.758v5.519h5.758V6.385z"/><path d="M756.585 94.706h-5.758v38.636h5.758V94.706zm0-11.049h-5.758v5.519h5.758v-5.519zm0-27.597h-5.758v22.078h5.758V56.06zm0-16.558h-5.758v5.519h5.758v-5.519zm0-27.598h-5.758v5.52h5.758v-5.52z"/><path d="M762.343 89.187h-5.758v44.156h5.758V89.187zm0-27.607h-5.758v16.558h5.758V61.58zm0-11.039h-5.758v5.52h5.758v-5.52z"/><path d="M768.112 111.265h-5.759v22.078h5.759v-22.078zm0-33.127h-5.759v27.597h5.759V78.138zm0-11.039h-5.759v5.519h5.759v-5.519zm0-27.597h-5.759V61.58h5.759V39.502z"/><path d="M773.87 94.706h-5.758v38.636h5.758V94.706zm0-16.568h-5.758v5.52h5.758v-5.52zm0-16.558h-5.758v5.52h5.758v-5.52zm0-11.039h-5.758v5.52h5.758v-5.52zm0-22.079h-5.758v11.039h5.758V28.462zm0-16.558h-5.758v5.52h5.758v-5.52z"/><path d="M779.628 105.745h-5.758v27.597h5.758v-27.597zm0-16.558h-5.758v11.039h5.758V89.187zm0-11.049h-5.758v5.52h5.758v-5.52zm0-22.078h-5.758v11.039h5.758V56.06zm0-16.558h-5.758v5.519h5.758v-5.519zm0-38.637h-5.758v5.519h5.758V.865z"/><path d="M785.396 105.745h-5.758v27.597h5.758v-27.597zm0-16.558h-5.758v11.039h5.758V89.187zm0-22.088h-5.758v16.558h5.758V67.099zm0-11.039h-5.758v5.519h5.758V56.06zm0-27.598h-5.758V45.02h5.758V28.462z"/><path d="M791.154 105.745h-5.758v27.597h5.758v-27.597zm0-16.558h-5.758v11.039h5.758V89.187zm0-11.049h-5.758v5.52h5.758v-5.52zm0-11.039h-5.758v5.519h5.758v-5.519zm0-38.637h-5.758v11.039h5.758V28.462zm0-11.038h-5.758v5.52h5.758v-5.52z"/><path d="M796.912 105.745h-5.758v27.597h5.758v-27.597zm0-16.558h-5.758v11.039h5.758V89.187zm0-27.607h-5.758v5.52h5.758v-5.52zm0-27.598h-5.758v11.039h5.758V33.982z"/><path d="M802.68 83.657h-5.758v49.675h5.758V83.657zm0-16.558h-5.758v5.519h5.758v-5.519zm0-16.558h-5.758V61.58h5.758V50.541zm0-11.039h-5.758v5.519h5.758v-5.519zm0-33.117h-5.758v5.519h5.758V6.385z"/><path d="M808.438 94.706h-5.758v38.636h5.758V94.706zm0-16.568h-5.758v11.039h5.758V78.138zm0-16.558h-5.758v5.52h5.758v-5.52zm0-11.039h-5.758v5.52h5.758v-5.52zm0-11.039h-5.758v5.519h5.758v-5.519zm0-11.04h-5.758v5.52h5.758v-5.52zm0-11.038h-5.758v5.52h5.758v-5.52z"/><path d="M814.207 100.226h-5.759v33.116h5.759v-33.116zm0-11.039h-5.759v5.52h5.759v-5.52zm0-27.607h-5.759v16.558h5.759V61.58zm0-22.078h-5.759V56.06h5.759V39.502zm0-33.117h-5.759v5.519h5.759V6.385z"/><path d="M819.965 89.187h-5.758v44.156h5.758V89.187zm0-16.569h-5.758v11.039h5.758V72.618zm0-38.636h-5.758v11.039h5.758V33.982zm0-22.078h-5.758v5.52h5.758v-5.52z"/><path d="M825.723 127.823h-5.758v5.52h5.758v-5.52zm0-16.558h-5.758v11.039h5.758v-11.039zm0-11.039h-5.758v5.519h5.758v-5.519zm0-33.127h-5.758v27.597h5.758V67.099zm0-22.078h-5.758V56.06h5.758V45.021zm0-11.039h-5.758v5.519h5.758v-5.519zm0-16.558h-5.758v5.52h5.758v-5.52z"/><path d="M831.491 116.784h-5.758v16.559h5.758v-16.559zm0-33.127h-5.758v27.598h5.758V83.657zm0-16.558h-5.758v11.039h5.758V67.099zm0-11.039h-5.758v5.519h5.758V56.06zm0-16.558h-5.758v5.519h5.758v-5.519z"/><path d="M837.249 94.706h-5.758v38.636h5.758V94.706zm0-27.607h-5.758v16.558h5.758V67.099zm0-27.597h-5.758v5.519h5.758v-5.519zm0-11.04h-5.758v5.52h5.758v-5.52z"/><path d="M843.007 94.706h-5.758v38.636h5.758V94.706zm0-27.607h-5.758v16.558h5.758V67.099zm0-38.637h-5.758V50.54h5.758V28.462z"/><path d="M848.775 89.187h-5.758v44.156h5.758V89.187zm0-16.569h-5.758v11.039h5.758V72.618zm0-27.597h-5.758V56.06h5.758V45.021zm0-11.039h-5.758v5.519h5.758v-5.519zm0-11.039h-5.758v5.519h5.758v-5.519z"/><path d="M854.534 116.784h-5.759v16.559h5.759v-16.559zm0-22.078h-5.759v11.039h5.759V94.706zm0-33.126h-5.759v16.558h5.759V61.58zm0-22.078h-5.759V56.06h5.759V39.502zm0-16.559h-5.759v5.519h5.759v-5.519z"/><path d="M860.302 122.304h-5.758v11.039h5.758v-11.039zm0-16.559h-5.758v5.52h5.758v-5.52zm0-22.088h-5.758v5.519h5.758v-5.519zm0-11.039h-5.758v5.519h5.758v-5.519zm0-44.156h-5.758V45.02h5.758V28.462z"/><path d="M866.06 105.745h-5.758v27.597h5.758v-27.597zm0-16.558h-5.758v11.039h5.758V89.187zm0-16.569h-5.758v5.519h5.758v-5.519zm0-22.077h-5.758V61.58h5.758V50.541zm0-11.039h-5.758v5.519h5.758v-5.519zm0-11.04h-5.758v5.52h5.758v-5.52zm-224.717 71.764h-5.758v33.116h5.758v-33.116zm-5.758-11.039v5.52h5.768v-5.52-5.529-5.52h-5.768v5.52 5.529zm5.758-60.725h-5.758v5.52h5.758v-5.52z"/><path d="M647.111 111.265h-5.758v22.078h5.758v-22.078zm0-22.078h-5.758v16.559h5.758V89.187zm0-22.088h-5.758v16.558h5.758V67.099zm0-22.078h-5.758v5.52h5.758v-5.52zm0-11.039h-5.758v5.519h5.758v-5.519zm0-11.039h-5.758v5.519h5.758v-5.519z"/><path d="M652.869 78.138h-5.758v55.194h5.758V78.138zm0-44.156h-5.758V50.54h5.758V33.982zm0-22.078h-5.758v5.52h5.758v-5.52z"/><path d="M658.627 105.745h-5.758v27.597h5.758v-27.597zm0-16.558h-5.758v5.52h5.758v-5.52zm0-16.569h-5.758v5.519h5.758v-5.519zm0-22.077h-5.758V61.58h5.758V50.541zm0-22.079h-5.758v5.52h5.758v-5.52zm0-22.077h-5.758v11.039h5.758V6.385z"/><path d="M664.395 100.226h-5.758v33.116h5.758v-33.116zm0-44.166h-5.758v11.039h5.758V56.06zm0-11.039h-5.758v5.52h5.758v-5.52zm0-16.559h-5.758v5.52h5.758v-5.52zm0-11.038h-5.758v5.52h5.758v-5.52z"/><path d="M670.153 89.187h-5.758v44.156h5.758V89.187zm0-11.049h-5.758v5.52h5.758v-5.52zm0-22.078h-5.758v16.558h5.758V56.06zm0-16.558h-5.758V50.54h5.758V39.502zm0-11.04h-5.758v5.52h5.758v-5.52zm0-27.597h-5.758v5.519h5.758V.865z"/><path d="M675.921 105.745h-5.758v27.597h5.758v-27.597zm0-16.558h-5.758v11.039h5.758V89.187zm0-16.569h-5.758v5.519h5.758v-5.519zm0-22.077h-5.758v5.52h5.758v-5.52zm0-16.559h-5.758v5.519h5.758v-5.519zm0-27.597h-5.758v5.519h5.758V6.385z"/><path d="M681.68 83.657h-5.759v49.675h5.759V83.657zm0-38.636h-5.759v33.117h5.759V45.021zm0-11.039h-5.759v5.519h5.759v-5.519zm0-22.078h-5.759v5.52h5.759v-5.52z"/><path d="M687.438 105.745h-5.758v27.597h5.758v-27.597zm0-11.039h-5.758v5.52h5.758v-5.52zm0-22.088h-5.758v11.039h5.758V72.618zm0-22.077h-5.758v5.52h5.758v-5.52zm0-16.559h-5.758v5.519h5.758v-5.519z"/><path d="M693.206 83.657h-5.758v49.675h5.758V83.657zm0-33.116h-5.758v27.597h5.758V50.541zm0-44.156h-5.758v5.519h5.758V6.385z"/><path d="M698.964 111.265h-5.758v22.078h5.758v-22.078zm0-27.608h-5.758v22.078h5.758V83.657zm0-22.077h-5.758v5.52h5.758v-5.52zm0-27.598h-5.758V50.54h5.758V33.982zm0-16.558h-5.758v5.52h5.758v-5.52z"/><path d="M704.722 78.138h-5.758v55.194h5.758V78.138zm0-16.558h-5.758v5.52h5.758v-5.52zm0-11.039h-5.758v5.52h5.758v-5.52zm0-11.039h-5.758v5.519h5.758v-5.519zm0-22.078h-5.758v11.039h5.758V17.424z"/><path d="M710.49 105.745h-5.758v27.597h5.758v-27.597zm0-71.763h-5.758v44.156h5.758V33.982z"/><path d="M716.248 78.138h-5.758v55.194h5.758V78.138zm0-22.078h-5.758v5.519h5.758V56.06zm0-11.039h-5.758v5.52h5.758v-5.52zm0-22.078h-5.758v5.519h5.758v-5.519z"/><path d="M722.016 105.745h-5.758v27.597h5.758v-27.597zm0-16.558h-5.758v11.039h5.758V89.187zm0-22.088h-5.758v16.558h5.758V67.099zm0-11.039h-5.758v5.519h5.758V56.06zm0-27.598h-5.758v5.52h5.758v-5.52z"/><path d="M727.775 100.226h-5.758v33.116h5.758v-33.116zm0-11.039h-5.758v5.52h5.758v-5.52zm0-27.607h-5.758v22.078h5.758V61.58zm0-16.559h-5.758v5.52h5.758v-5.52zm0-11.039h-5.758v5.519h5.758v-5.519zm333.275 88.322h-40.34v5.519h40.34v-5.519z"/><path d="M1061.04 116.784h-5.76v5.52h5.76v-5.52zm-17.28-5.519h-17.29v5.519h17.29v-5.519z"/><path d="M1061.04 111.265h-5.76v5.519h5.76v-5.519zm-132.516-5.52h-34.568v5.52h34.568v-5.52zm28.801 0h-23.043v5.52h23.043v-5.52zm57.625 0h-51.857v5.52h51.857v-5.52zm28.82 0h-23.06v5.52h23.06v-5.52z"/><path d="M1061.05 105.745h-11.52v5.52h11.52v-5.52zm-195.905-5.519h-11.526v5.519h11.526v-5.519zm11.516 0h-5.758v5.519h5.758v-5.519zm23.053 0h-17.285v5.519h17.285v-5.519zm11.516 0h-5.758v5.519h5.758v-5.519zm23.052 0h-17.284v5.519h17.284v-5.519zm34.569 0h-23.042v5.519h23.042v-5.519z"/><path d="M1049.52 100.226h-57.616v5.519h57.616v-5.519zm-149.796-5.52h-40.337v5.52h40.337v-5.52zm17.274 0h-11.526v5.52h11.526v-5.52zm17.284 0h-5.758v5.52h5.758v-5.52z"/><path d="M1003.43 94.706h-63.379v5.52h63.379v-5.52zm11.52 0h-5.76v5.52h5.76v-5.52zm34.58 0h-28.82v5.52h28.82v-5.52zm11.51 0h-5.76v5.52h5.76v-5.52zm-184.369-5.519h-17.284v5.52h17.284v-5.52zm23.043 0h-17.285v5.52h17.285v-5.52z"/><path d="M945.809 89.187h-40.337v5.52h40.337v-5.52zm17.284 0h-11.526v5.52h11.526v-5.52zm34.579 0h-28.811v5.52h28.811v-5.52zm28.808 0h-23.05v5.52h23.05v-5.52zm17.28 0H1038v5.52h5.76v-5.52zm17.28 0h-5.76v5.52h5.76v-5.52zm-184.379-5.53h-5.758v5.519h5.758v-5.519zm23.053 0h-17.285v5.519h17.285v-5.519zm11.516 0h-5.758v5.519h5.758v-5.519zm23.062 0h-11.526v5.519h11.526v-5.519zm17.285 0h-11.526v5.519h11.526v-5.519zm11.516 0h-5.758v5.519h5.758v-5.519zm40.337 0h-11.526v5.519h11.526v-5.519zm23.05 0h-11.52v5.519h11.52v-5.519z"/><use href="#BW"/><path d="M865.145 78.138h-5.758v5.52h5.758v-5.52zm17.284 0h-5.758v5.52h5.758v-5.52zm17.285 0h-5.758v5.52h5.758v-5.52zm28.81 0h-23.052v5.52h23.052v-5.52zm17.285 0h-11.527v5.52h11.527v-5.52zm40.337 0h-28.811v5.52h28.811v-5.52zm17.274 0h-5.758v5.52h5.758v-5.52zm17.29 0h-11.52v5.52h11.52v-5.52zm23.05 0h-17.29v5.52h17.29v-5.52z"/><path d="M888.187 72.618h-23.042v5.519h23.042v-5.519zm17.285 0h-5.758v5.519h5.758v-5.519zm17.294 0H911.24v5.519h11.526v-5.519zm34.559 0h-23.043v5.519h23.043v-5.519zm23.053 0h-5.759v5.519h5.759v-5.519zm80.672 0h-57.62v5.519h57.62v-5.519z"/><path d="M865.145 67.099h-5.758v5.519h5.758v-5.519zm11.516 0h-5.758v5.519h5.758v-5.519zm11.526 0h-5.758v5.519h5.758v-5.519zm17.285 0h-5.758v5.519h5.758v-5.519zm34.579 0H911.24v5.519h28.811v-5.519zm23.042 0h-17.284v5.519h17.284v-5.519zm23.053 0h-11.527v5.519h11.527v-5.519zm11.516 0h-5.758v5.519h5.758v-5.519zm11.528 0h-5.76v5.519h5.76v-5.519zm28.82 0h-23.05v5.519h23.05v-5.519zm11.51 0h-5.76v5.519h5.76v-5.519z"/><path d="M865.145 61.58h-11.526v5.52h11.526v-5.52zm11.516 0h-5.758v5.52h5.758v-5.52zm28.811 0h-23.043v5.52h23.043v-5.52zm17.284 0h-5.758v5.52h5.758v-5.52zm11.526 0h-5.758v5.52h5.758v-5.52zm23.053 0h-17.284v5.52h17.284v-5.52zm17.284 0h-11.526v5.52h11.526v-5.52zm17.285 0h-5.758v5.52h5.758v-5.52zm17.286 0h-11.528v5.52h11.528v-5.52zm40.33 0h-5.76v5.52h5.76v-5.52z"/><path d="M865.145 56.06H847.86v5.519h17.285V56.06zm11.516 0h-5.758v5.519h5.758V56.06zm11.526 0h-5.758v5.519h5.758V56.06zm28.811 0h-17.284v5.519h17.284V56.06zm11.526 0h-5.758v5.519h5.758V56.06zm23.053 0h-11.526v5.519h11.526V56.06zm11.516 0h-5.758v5.519h5.758V56.06zm17.294 0h-11.526v5.519h11.526V56.06zm17.275 0h-5.758v5.519h5.758V56.06zm28.808 0h-5.76v5.519h5.76V56.06zm34.57 0h-5.76v5.519h5.76V56.06z"/><path d="M853.619 50.541h-5.759v5.52h5.759v-5.52zm34.568 0h-23.042v5.52h23.042v-5.52zm17.295 0h-11.526v5.52h11.526v-5.52zm23.042 0h-5.758v5.52h5.758v-5.52zm17.285 0h-11.527v5.52h11.527v-5.52zm23.042 0h-17.284v5.52h17.284v-5.52zm40.339 0h-17.286v5.52h17.286v-5.52zm11.52 0h-5.75v5.52h5.75v-5.52zm28.81 0H1038v5.52h11.52v-5.52zm11.52 0h-5.76v5.52h5.76v-5.52z"/><path d="M847.86 45.021h-11.526v5.52h11.526v-5.52zm17.285 0h-11.526v5.52h11.526v-5.52zm11.516 0h-5.758v5.52h5.758v-5.52zm17.285 0h-5.759v5.52h5.759v-5.52zm17.294 0h-11.526v5.52h11.526v-5.52zm23.042 0h-17.284v5.52h17.284v-5.52zm28.811 0h-5.758v5.52h5.758v-5.52zm46.097 0h-5.76v5.52h5.76v-5.52zm11.52 0h-5.75v5.52h5.75v-5.52zm28.82 0h-17.29v5.52h17.29v-5.52z"/><path d="M847.85 39.502h-5.758v5.519h5.758v-5.519zm17.295 0h-5.758v5.519h5.758v-5.519zm40.327 0h-17.285v5.519h17.285v-5.519zm28.82 0h-11.526v5.519h11.526v-5.519zm17.285 0h-11.526v5.519h11.526v-5.519zm11.516 0h-5.758v5.519h5.758v-5.519zm17.294 0h-11.526v5.519h11.526v-5.519zm34.573 0h-28.814v5.519h28.814v-5.519zm23.04 0h-17.29v5.519H1038v-5.519zm23.04 0h-17.28v5.519h17.28v-5.519z"/><path d="M847.86 33.982h-11.526v5.519h11.526v-5.519zm34.569 0h-17.284v5.519h17.284v-5.519zm11.517 0h-5.759v5.519h5.759v-5.519zm11.526 0h-5.758v5.519h5.758v-5.519zm17.284 0h-5.758v5.519h5.758v-5.519zm23.053 0h-5.758v5.519h5.758v-5.519zm23.042 0h-5.758v5.519h5.758v-5.519zm23.053 0h-17.285v5.519h17.285v-5.519zm28.806 0h-11.52v5.519h11.52v-5.519zm23.06 0h-11.53v5.519h11.53v-5.519zm11.51 0h-5.75v5.519h5.75v-5.519z"/><path d="M836.334 28.462h-5.758v5.52h5.758v-5.52zm28.811 0H847.86v5.52h17.285v-5.52zm51.853 0h-5.758v5.52h5.758v-5.52zm51.853 0h-5.758v5.52h5.758v-5.52zm17.295 0h-11.527v5.52h11.527v-5.52zm17.274 0h-5.758v5.52h5.758v-5.52zm34.58 0h-11.53v5.52H1038v-5.52zm23.05 0h-11.52v5.52h11.52v-5.52z"/><path d="M842.092 22.943h-5.758v5.519h5.758v-5.519zm57.622 0h-5.758v5.519h5.758v-5.519zm11.516 0h-5.758v5.519h5.758v-5.519zm17.294 0h-5.758v5.519h5.758v-5.519zm11.517 0h-5.759v5.519h5.759v-5.519zm109.479 0H1038v5.519h11.52v-5.519zm-190.143-5.519h-5.758v5.52h5.758v-5.52z"/><path d="M899.714 17.424h-11.527v5.52h11.527v-5.52zm86.422 0h-5.758v5.52h5.758v-5.52zm17.284 0h-5.758v5.52h5.758v-5.52zm17.29 0h-5.75v5.52h5.75v-5.52zm-167.091-5.52h-11.527v5.52h11.527v-5.52zm23.042 0h-5.758v5.52h5.758v-5.52zm57.621 0h-5.758v5.52h5.758v-5.52zm17.285 0h-5.758v5.52h5.758v-5.52zm17.284 0h-5.758v5.52h5.758v-5.52z"/><path d="M1014.95 11.904h-5.76v5.52h5.76v-5.52zM853.619 6.385h-5.759v5.519h5.759V6.385zm17.284 0h-5.758v5.519h5.758V6.385zm17.284 0h-5.758v5.519h5.758V6.385zm40.337 0h-5.758v5.519h5.758V6.385zm17.285 0h-5.758v5.519h5.758V6.385zm51.853 0h-5.758v5.519h5.758V6.385z"/><path d="M1009.19 6.385h-5.76v5.519h5.76V6.385zM865.145.865h-5.758v5.519h5.758V.865zm109.474 0h-5.758v5.519h5.758V.865zm-46.095 99.361h-5.758v33.116h5.758v-33.116zm0-22.088h-5.758v16.558h5.758V78.138zm0-11.039h-5.758v5.519h5.758v-5.519zm0-27.597h-5.758V61.58h5.758V39.502zm0-16.559h-5.758v5.519h5.758v-5.519zm0-16.558h-5.758v5.519h5.758V6.385z"/><path d="M934.282 111.265h-5.758v22.078h5.758v-22.078zm0-27.608h-5.758v22.078h5.758V83.657zm0-22.077h-5.758v11.039h5.758V61.58zm0-22.078h-5.758V50.54h5.758V39.502zm0-27.598h-5.758v5.52h5.758v-5.52z"/><path d="M940.041 105.745h-5.759v27.597h5.759v-27.597zm0-16.558h-5.759v5.52h5.759v-5.52zm0-22.088h-5.759v16.558h5.759V67.099zm0-16.558h-5.759v5.52h5.759v-5.52zm0-27.598h-5.759v5.519h5.759v-5.519z"/><path d="M945.809 105.745h-5.758v27.597h5.758v-27.597zm0-33.127h-5.758v27.598h5.758V72.618zm0-22.077h-5.758v16.558h5.758V50.541zm0-16.559h-5.758v11.039h5.758V33.982zm0-27.597h-5.758v5.519h5.758V6.385z"/><path d="M951.567 94.706h-5.758v38.636h5.758V94.706zm0-11.049h-5.758v5.519h5.758v-5.519zm0-27.597h-5.758v22.078h5.758V56.06zm0-16.558h-5.758v5.519h5.758v-5.519zm0-27.598h-5.758v5.52h5.758v-5.52z"/><path d="M957.325 89.187h-5.758v44.156h5.758V89.187zm0-27.607h-5.758v16.558h5.758V61.58zm0-11.039h-5.758v5.52h5.758v-5.52z"/><path d="M963.093 111.265h-5.758v22.078h5.758v-22.078zm0-33.127h-5.758v27.597h5.758V78.138zm0-11.039h-5.758v5.519h5.758v-5.519zm0-27.597h-5.758V61.58h5.758V39.502z"/><path d="M968.851 94.706h-5.758v38.636h5.758V94.706zm0-16.568h-5.758v5.52h5.758v-5.52zm0-16.558h-5.758v5.52h5.758v-5.52zm0-11.039h-5.758v5.52h5.758v-5.52zm0-22.079h-5.758v11.039h5.758V28.462zm0-16.558h-5.758v5.52h5.758v-5.52z"/><path d="M974.619 105.745h-5.758v27.597h5.758v-27.597zm0-16.558h-5.758v11.039h5.758V89.187zm0-11.049h-5.758v5.52h5.758v-5.52zm0-22.078h-5.758v11.039h5.758V56.06zm0-16.558h-5.758v5.519h5.758v-5.519zm0-38.637h-5.758v5.519h5.758V.865z"/><path d="M980.378 105.745h-5.759v27.597h5.759v-27.597zm0-16.558h-5.759v11.039h5.759V89.187zm0-22.088h-5.759v16.558h5.759V67.099zm0-11.039h-5.759v5.519h5.759V56.06zm0-27.598h-5.759V45.02h5.759V28.462z"/><path d="M986.136 105.745h-5.758v27.597h5.758v-27.597zm0-16.558h-5.758v11.039h5.758V89.187zm0-11.049h-5.758v5.52h5.758v-5.52zm0-11.039h-5.758v5.519h5.758v-5.519zm0-38.637h-5.758v11.039h5.758V28.462zm0-11.038h-5.758v5.52h5.758v-5.52z"/><path d="M991.904 105.745h-5.758v27.597h5.758v-27.597zm0-16.558h-5.758v11.039h5.758V89.187zm0-27.607h-5.758v5.52h5.758v-5.52zm0-27.598h-5.758v11.039h5.758V33.982z"/><path d="M997.662 83.657h-5.758v49.675h5.758V83.657zm0-16.558h-5.758v5.519h5.758v-5.519zm0-16.558h-5.758V61.58h5.758V50.541zm0-11.039h-5.758v5.519h5.758v-5.519zm0-33.117h-5.758v5.519h5.758V6.385z"/><path d="M1003.42 94.706h-5.758v38.636h5.758V94.706zm0-16.568h-5.758v11.039h5.758V78.138zm0-16.558h-5.758v5.52h5.758v-5.52zm0-11.039h-5.758v5.52h5.758v-5.52zm0-11.039h-5.758v5.519h5.758v-5.519zm0-11.04h-5.758v5.52h5.758v-5.52zm0-11.038h-5.758v5.52h5.758v-5.52zm5.77 82.802h-5.76v33.116h5.76v-33.116zm0-11.039h-5.76v5.52h5.76v-5.52zm0-27.607h-5.76v16.558h5.76V61.58zm0-22.078h-5.76V56.06h5.76V39.502zm0-33.117h-5.76v5.519h5.76V6.385z"/><path d="M1014.95 89.187h-5.76v44.156h5.76V89.187zm0-16.569h-5.76v11.039h5.76V72.618zm0-38.636h-5.76v11.039h5.76V33.982zm0-22.078h-5.76v5.52h5.76v-5.52z"/><path d="M1020.71 127.823h-5.75v5.52h5.75v-5.52zm0-16.558h-5.75v11.039h5.75v-11.039zm0-11.039h-5.75v5.519h5.75v-5.519zm0-33.127h-5.75v27.597h5.75V67.099zm0-22.078h-5.75V56.06h5.75V45.021zm0-11.039h-5.75v5.519h5.75v-5.519zm0-16.558h-5.75v5.52h5.75v-5.52z"/><path d="M1026.47 116.784h-5.76v16.559h5.76v-16.559zm0-33.127h-5.76v27.598h5.76V83.657zm0-16.558h-5.76v11.039h5.76V67.099zm0-11.039h-5.76v5.519h5.76V56.06zm0-16.558h-5.76v5.519h5.76v-5.519z"/><path d="M1032.23 94.706h-5.76v38.636h5.76V94.706zm0-27.607h-5.76v16.558h5.76V67.099zm0-27.597h-5.76v5.519h5.76v-5.519zm0-11.04h-5.76v5.52h5.76v-5.52z"/><path d="M1038 94.706h-5.76v38.636h5.76V94.706zm0-27.607h-5.76v16.558h5.76V67.099zm0-38.637h-5.76V50.54h5.76V28.462z"/><path d="M1043.76 89.187H1038v44.156h5.76V89.187zm0-16.569H1038v11.039h5.76V72.618zm0-27.597H1038V56.06h5.76V45.021z"/><use href="#CG"/><path d="M1043.76 22.943H1038v5.519h5.76v-5.519zm5.76 93.841h-5.76v16.559h5.76v-16.559zm0-22.078h-5.76v11.039h5.76V94.706zm0-33.126h-5.76v16.558h5.76V61.58zm0-22.078h-5.76V56.06h5.76V39.502z"/><path d="M1049.52 22.943h-5.76v5.519h5.76v-5.519zm5.76 99.361h-5.75v11.039h5.75v-11.039z"/><use href="#BN"/><use href="#BW"/><path d="M1055.28 72.618h-5.75v5.519h5.75v-5.519zm0-44.156h-5.75V45.02h5.75V28.462zm5.76 77.283h-5.76v27.597h5.76v-27.597zm0-16.558h-5.76v11.039h5.76V89.187z"/><path d="M1061.04 72.618h-5.76v5.519h5.76v-5.519zm0-22.077h-5.76V61.58h5.76V50.541zm0-11.039h-5.76v5.519h5.76v-5.519zm0-11.04h-5.76v5.52h5.76v-5.52zm-224.706 0h-5.758v5.52h5.758v-5.52zm5.758 16.559h-5.758v5.52h5.758v-5.52z"/><path d="M842.092 33.982h-5.758v5.519h5.758v-5.519zm0-11.039h-5.758v5.519h5.758v-5.519z"/><path d="M847.85 33.982h-5.758V50.54h5.758V33.982zm0-22.078h-5.758v5.52h5.758v-5.52z"/><path d="M853.619 50.541h-5.759V61.58h5.759V50.541zm0-22.079h-5.759v5.52h5.759v-5.52zm0-22.077h-5.759v11.039h5.759V6.385zm5.758 93.841h-5.758v33.116h5.758v-33.116z"/><path d="M859.377 56.06h-5.758v11.039h5.758V56.06zm0-11.039h-5.758v5.52h5.758v-5.52zm0-16.559h-5.758v5.52h5.758v-5.52zm0-11.038h-5.758v5.52h5.758v-5.52zm5.768 71.763h-5.758v44.156h5.758V89.187zm0-11.049h-5.758v5.52h5.758v-5.52z"/><path d="M865.145 56.06h-5.758v16.558h5.758V56.06zm0-16.558h-5.758V50.54h5.758V39.502zm0-11.04h-5.758v5.52h5.758v-5.52zm0-27.597h-5.758v5.519h5.758V.865zm5.758 104.88h-5.758v27.597h5.758v-27.597zm0-16.558h-5.758v11.039h5.758V89.187z"/><path d="M870.903 72.618h-5.758v5.519h5.758v-5.519zm0-22.077h-5.758v5.52h5.758v-5.52zm0-16.559h-5.758v5.519h5.758v-5.519zm0-27.597h-5.758v5.519h5.758V6.385zm5.758 77.272h-5.758v49.675h5.758V83.657z"/><path d="M876.661 45.021h-5.758v33.117h5.758V45.021zm0-11.039h-5.758v5.519h5.758v-5.519zm0-22.078h-5.758v5.52h5.758v-5.52zm5.768 93.841h-5.758v27.597h5.758v-27.597zm0-11.039h-5.758v5.52h5.758v-5.52z"/><path d="M882.429 72.618h-5.758v11.039h5.758V72.618zm0-22.077h-5.758v5.52h5.758v-5.52zm0-16.559h-5.758v5.519h5.758v-5.519z"/><path d="M888.187 83.657h-5.758v49.675h5.758V83.657zm0-33.116h-5.758v27.597h5.758V50.541zm0-44.156h-5.758v5.519h5.758V6.385z"/><path d="M893.946 111.265h-5.759v22.078h5.759v-22.078zm0-27.608h-5.759v22.078h5.759V83.657zm0-22.077h-5.759v5.52h5.759v-5.52zm0-27.598h-5.759V50.54h5.759V33.982zm0-16.558h-5.759v5.52h5.759v-5.52z"/><path d="M899.714 78.138h-5.758v55.194h5.758V78.138zm0-16.558h-5.758v5.52h5.758v-5.52zm0-11.039h-5.758v5.52h5.758v-5.52zm0-11.039h-5.758v5.519h5.758v-5.519zm0-22.078h-5.758v11.039h5.758V17.424z"/><path d="M905.472 105.745h-5.758v27.597h5.758v-27.597zm0-71.763h-5.758v44.156h5.758V33.982z"/><path d="M911.23 78.138h-5.758v55.194h5.758V78.138zm0-22.078h-5.758v5.519h5.758V56.06zm0-11.039h-5.758v5.52h5.758v-5.52zm0-22.078h-5.758v5.519h5.758v-5.519z"/><path d="M916.998 105.745h-5.758v27.597h5.758v-27.597zm0-16.558h-5.758v11.039h5.758V89.187zm0-22.088h-5.758v16.558h5.758V67.099zm0-11.039h-5.758v5.519h5.758V56.06zm0-27.598h-5.758v5.52h5.758v-5.52z"/><path d="M922.756 100.226h-5.758v33.116h5.758v-33.116zm0-11.039h-5.758v5.52h5.758v-5.52zm0-27.607h-5.758v22.078h5.758V61.58zm0-16.559h-5.758v5.52h5.758v-5.52zm0-11.039h-5.758v5.519h5.758v-5.519z"/></g><defs><clipPath id="A"><path fill="#fff" transform="translate(0 .865)" d="M0 0h1280v132.477H0z"/></clipPath><path id="B" d="M230.475 122.304h-40.337v5.519h40.337v-5.519z"/><path id="C" d="M230.475 116.784h-5.758v5.52h5.758v-5.52z"/><path id="D" d="M213.191 111.265h-17.285v5.519h17.285v-5.519z"/><path id="E" d="M230.475 111.265h-5.758v5.519h5.758v-5.519z"/><path id="F" d="M5.758 105.745H0v5.52h5.758v-5.52z"/><path id="G" d="M126.759 105.745h-23.043v5.52h23.043v-5.52z"/><path id="H" d="M184.38 105.745h-51.853v5.52h51.853v-5.52z"/><path id="I" d="M213.191 105.745h-23.053v5.52h23.053v-5.52z"/><path id="J" d="M230.475 105.745h-11.526v5.52h11.526v-5.52z"/><path id="K" d="M69.138 100.226H51.853v5.519h17.284v-5.519z"/><path id="L" d="M138.275 100.226h-23.042v5.519h23.042v-5.519z"/><path id="M" d="M218.949 100.226h-57.621v5.519h57.621v-5.519z"/><path id="N" d="M17.284 94.706H5.758v5.52h11.526v-5.52z"/><path id="O" d="M172.854 94.706h-63.38v5.52h63.38v-5.52z"/><path id="P" d="M218.949 94.706h-28.811v5.52h28.811v-5.52z"/><path id="Q" d="M195.906 89.187h-23.052v5.52h23.052v-5.52z"/><path id="R" d="M103.716 83.657H92.19v5.519h11.526v-5.519z"/><path id="S" d="M121.001 83.657h-11.527v5.519h11.527v-5.519z"/><path id="T" d="M172.854 83.657h-11.526v5.519h11.526v-5.519z"/><path id="U" d="M115.243 78.138h-11.527v5.52h11.527v-5.52z"/><path id="V" d="M213.191 78.138h-17.285v5.52h17.285v-5.52z"/><path id="W" d="M11.516 72.618H5.758v5.519h5.758v-5.519z"/><path id="X" d="M126.759 72.618h-23.043v5.519h23.043v-5.519z"/><path id="Y" d="M109.474 67.099h-28.81v5.519h28.81v-5.519z"/><path id="Z" d="M132.517 67.099h-17.284v5.519h17.284v-5.519z"/><path id="a" d="M34.569 61.58H23.043v5.52h11.526v-5.52z"/><path id="b" d="M46.095 56.06h-5.758v5.519h5.758V56.06z"/><path id="c" d="M149.811 56.06h-11.526v5.519h11.526V56.06z"/><path id="d" d="M138.285 50.541h-17.284v5.52h17.284v-5.52z"/><path id="e" d="M115.233 33.982h-5.759v5.519h5.759v-5.519z"/><path id="f" d="M97.948 22.943H92.19v5.519h5.758v-5.519z"/><path id="g" d="M155.57 17.424h-5.759v5.52h5.759v-5.52z"/><path id="h" d="M23.043 6.385h-5.758v5.519h5.758V6.385z"/><path id="i" d="M97.948 6.385H92.19v5.519h5.758V6.385z"/><path id="j" d="M115.233 6.385h-5.759v5.519h5.759V6.385z"/><path id="k" d="M34.569.865h-5.758v5.519h5.758V.865z"/><path id="l" d="M103.706 111.265h-5.758v22.078h5.758v-22.078z"/><path id="m" d="M103.706 83.657h-5.758v22.078h5.758V83.657z"/><path id="n" d="M103.706 61.58h-5.758v11.039h5.758V61.58z"/><path id="o" d="M103.706 39.502h-5.758V50.54h5.758V39.502z"/><path id="p" d="M109.474 105.745h-5.758v27.597h5.758v-27.597z"/><path id="q" d="M109.474 67.099h-5.758v16.558h5.758V67.099z"/><path id="r" d="M115.233 105.745h-5.759v27.597h5.759v-27.597z"/><path id="s" d="M120.991 94.706h-5.758v38.636h5.758V94.706z"/><path id="t" d="M120.991 56.06h-5.758v22.078h5.758V56.06z"/><path id="u" d="M126.759 89.187h-5.758v44.156h5.758V89.187z"/><path id="v" d="M126.759 61.58h-5.758v16.558h5.758V61.58z"/><path id="w" d="M132.517 78.138h-5.758v27.597h5.758V78.138z"/><path id="x" d="M132.517 39.502h-5.758v22.078h5.758V39.502z"/><path id="y" d="M138.285 28.462h-5.758v11.039h5.758V28.462z"/><path id="z" d="M144.043 89.187h-5.758v11.039h5.758V89.187z"/><path id="AA" d="M144.043 56.06h-5.758v11.039h5.758V56.06z"/><path id="AB" d="M149.801 28.462h-5.758v16.558h5.758V28.462z"/><path id="AC" d="M155.57 89.187h-5.759v11.039h5.759V89.187z"/><path id="AD" d="M161.328 33.982h-5.758v11.039h5.758V33.982z"/><path id="AE" d="M167.086 83.657h-5.758v49.675h5.758V83.657z"/><path id="AF" d="M167.086 50.541h-5.758V61.58h5.758V50.541z"/><path id="AG" d="M172.854 78.138h-5.758v11.039h5.758V78.138z"/><path id="AH" d="M178.612 100.226h-5.758v33.116h5.758v-33.116z"/><path id="AI" d="M178.612 39.502h-5.758V56.06h5.758V39.502z"/><path id="AJ" d="M184.38 72.618h-5.758v11.039h5.758V72.618z"/><path id="AK" d="M190.138 111.265h-5.758v11.039h5.758v-11.039z"/><path id="AL" d="M190.138 67.099h-5.758v27.597h5.758V67.099z"/><path id="AM" d="M190.138 45.021h-5.758V56.06h5.758V45.021z"/><path id="AN" d="M195.896 116.784h-5.758v16.559h5.758v-16.559z"/><path id="AO" d="M195.896 83.657h-5.758v27.598h5.758V83.657z"/><path id="AP" d="M195.896 67.099h-5.758v11.039h5.758V67.099z"/><path id="AQ" d="M201.665 67.099h-5.759v16.558h5.759V67.099z"/><path id="AR" d="M207.423 28.462h-5.758V50.54h5.758V28.462z"/><path id="AS" d="M218.949 94.706h-5.758v11.039h5.758V94.706z"/><path id="AT" d="M17.284 78.138h-5.758v55.194h5.758V78.138z"/><path id="AU" d="M17.284 33.982h-5.758V50.54h5.758V33.982z"/><path id="AV" d="M23.043 6.385h-5.758v11.039h5.758V6.385z"/><path id="AW" d="M34.569 56.06h-5.758v16.558h5.758V56.06z"/><path id="AX" d="M46.095 45.021h-5.758v33.117h5.758V45.021z"/><path id="AY" d="M57.611 50.541h-5.758v27.597h5.758V50.541z"/><path id="AZ" d="M69.138 17.424h-5.758v11.039h5.758V17.424z"/><path id="Aa" d="M74.896 33.982h-5.758v44.156h5.758V33.982z"/><path id="Ab" d="M92.19 61.58h-5.758v22.078h5.758V61.58z"/><path id="Ac" d="M413.075 122.304h-184.38v5.519h184.38v-5.519z"/><path id="Ad" d="M286.306 105.745h-46.095v5.52h46.095v-5.52z"/><path id="Ae" d="M326.643 105.745h-34.568v5.52h34.568v-5.52z"/><path id="Af" d="M297.833 94.706h-40.337v5.52h40.337v-5.52z"/><path id="Ag" d="M349.696 83.657H338.17v5.519h11.526v-5.519z"/><path id="Ah" d="M338.17 67.099h-28.811v5.519h28.811v-5.519z"/><path id="Ai" d="M263.264 56.06h-17.285v5.519h17.285V56.06z"/><path id="Aj" d="M315.117 56.06h-17.284v5.519h17.284V56.06z"/><path id="Ak" d="M424.592 56.06h-5.759v5.519h5.759V56.06z"/><path id="Al" d="M286.306 50.541h-23.042v5.52h23.042v-5.52z"/><path id="Am" d="M326.643 78.138h-5.758v16.558h5.758V78.138z"/><path id="An" d="M343.928 72.618h-5.758v27.598h5.758V72.618z"/><path id="Ao" d="M343.928 50.541h-5.758v16.558h5.758V50.541z"/><path id="Ap" d="M378.497 28.462h-5.759v16.558h5.759V28.462z"/><path id="Aq" d="M424.592 116.784h-5.759v16.559h5.759v-16.559z"/><path id="Ar" d="M240.211 89.187h-5.758v16.559h5.758V89.187z"/><path id="As" d="M245.97 33.982h-5.759V50.54h5.759V33.982z"/><path id="At" d="M251.738 50.541h-5.759V61.58h5.759V50.541z"/><path id="Au" d="M251.738 6.385h-5.759v11.039h5.759V6.385z"/><path id="Av" d="M292.065 111.265h-5.759v22.078h5.759v-22.078z"/><path id="Aw" d="M292.065 83.657h-5.759v22.078h5.759V83.657z"/><path id="Ax" d="M504.848 105.745h-34.569v5.52h34.569v-5.52z"/><path id="Ay" d="M579.753 94.706h-63.379v5.52h63.379v-5.52z"/><path id="Az" d="M625.848 94.706h-28.81v5.52h28.81v-5.52z"/><path id="BA" d="M510.616 83.657H499.09v5.519h11.526v-5.519z"/><path id="BB" d="M527.9 83.657h-11.526v5.519H527.9v-5.519z"/><path id="BC" d="M637.375 72.618h-57.622v5.519h57.622v-5.519z"/><path id="BD" d="M539.417 78.138h-5.759v27.597h5.759V78.138z"/><path id="BE" d="M539.417 39.502h-5.759v22.078h5.759V39.502z"/><path id="BF" d="M585.512 100.226h-5.759v33.116h5.759v-33.116z"/><path id="BG" d="M585.512 61.58h-5.759v16.558h5.759V61.58z"/><path id="BH" d="M585.512 39.502h-5.759V56.06h5.759V39.502z"/><path id="BI" d="M452.985 83.657h-5.759v49.675h5.759V83.657z"/><path id="BJ" d="M452.985 45.021h-5.759v33.117h5.759V45.021z"/><path id="BK" d="M1279.99 116.784h-5.76v5.52h5.76v-5.52z"/><path id="BL" d="M1262.72 111.265h-17.29v5.519h17.29v-5.519z"/><path id="BM" d="M1279.99 111.265h-5.76v5.519h5.76v-5.519z"/><path id="BN" d="M1055.28 105.745h-5.75v5.52h5.75v-5.52z"/><path id="BO" d="M1176.28 105.745h-23.04v5.52h23.04v-5.52z"/><path id="BP" d="M1262.72 105.745h-23.06v5.52h23.06v-5.52z"/><path id="BQ" d="M1066.81 100.226h-17.28v5.519h17.28v-5.519z"/><path id="BR" d="M1084.09 100.226h-11.52v5.519h11.52v-5.519z"/><path id="BS" d="M1066.81 94.706h-11.53v5.52h11.53v-5.52z"/><path id="BT" d="M1095.62 89.187h-17.28v5.52h17.28v-5.52z"/><path id="BU" d="M1182.05 89.187h-11.52v5.52h11.52v-5.52z"/><path id="BV" d="M1245.43 89.187h-23.05v5.52h23.05v-5.52z"/><path id="BW" d="M1055.28 83.657h-5.75v5.519h5.75v-5.519z"/><path id="BX" d="M1170.53 83.657H1159v5.519h11.53v-5.519z"/><path id="BY" d="M1222.38 83.657h-11.53v5.519h11.53v-5.519z"/><path id="BZ" d="M1262.72 78.138h-17.29v5.52h17.29v-5.52z"/><path id="Ba" d="M1107.14 72.618h-23.05v5.519h23.05v-5.519z"/><path id="Bb" d="M1095.61 56.06h-5.76v5.519h5.76V56.06z"/><path id="Bc" d="M1072.57 6.385h-5.76v5.519h5.76V6.385z"/><path id="Bd" d="M1147.47 6.385h-5.75v5.519h5.75V6.385z"/><path id="Be" d="M1164.76 6.385H1159v5.519h5.76V6.385z"/><path id="Bf" d="M1084.09.865h-5.75v5.519h5.75V.865z"/><path id="Bg" d="M1193.57.865h-5.76v5.519h5.76V.865z"/><path id="Bh" d="M1147.47 100.226h-5.75v33.116h5.75v-33.116z"/><path id="Bi" d="M1153.23 111.265h-5.76v22.078h5.76v-22.078z"/><path id="Bj" d="M1159 105.745h-5.76v27.597h5.76v-27.597z"/><path id="Bk" d="M1159 67.099h-5.76v16.558h5.76V67.099z"/><path id="Bl" d="M1170.52 94.706h-5.76v38.636h5.76V94.706z"/><path id="Bm" d="M1176.28 89.187h-5.75v44.156h5.75V89.187z"/><path id="Bn" d="M1176.28 61.58h-5.75v16.558h5.75V61.58z"/><path id="Bo" d="M1193.57 89.187h-5.76v11.039h5.76V89.187z"/><path id="Bp" d="M1193.57 56.06h-5.76v11.039h5.76V56.06z"/><path id="Bq" d="M1199.33 28.462h-5.76v16.558h5.76V28.462z"/><path id="Br" d="M1210.85 33.982h-5.76v11.039h5.76V33.982z"/><path id="Bs" d="M1216.61 83.657h-5.76v49.675h5.76V83.657z"/><path id="Bt" d="M1216.61 50.541h-5.76V61.58h5.76V50.541z"/><path id="Bu" d="M1228.14 100.226h-5.76v33.116h5.76v-33.116z"/><path id="Bv" d="M1228.14 61.58h-5.76v16.558h5.76V61.58z"/><path id="Bw" d="M1228.14 39.502h-5.76V56.06h5.76V39.502z"/><path id="Bx" d="M1233.9 89.187h-5.76v44.156h5.76V89.187z"/><path id="By" d="M1233.9 72.618h-5.76v11.039h5.76V72.618z"/><path id="Bz" d="M1239.66 111.265h-5.75v11.039h5.75v-11.039z"/><path id="CA" d="M1239.66 67.099h-5.75v27.597h5.75V67.099z"/><path id="CB" d="M1239.66 45.021h-5.75V56.06h5.75V45.021z"/><path id="CC" d="M1245.42 116.784h-5.76v16.559h5.76v-16.559z"/><path id="CD" d="M1245.42 83.657h-5.76v27.598h5.76V83.657z"/><path id="CE" d="M1245.42 67.099h-5.76v11.039h5.76V67.099z"/><path id="CF" d="M1066.81 78.138h-5.76v55.194h5.76V78.138z"/><path id="CG" d="M1043.76 33.982H1038v5.519h5.76v-5.519z"/></defs></svg>