<svg xmlns="http://www.w3.org/2000/svg" width="12" height="12" fill="#470b3a" xmlns:v="https://vecta.io/nano"><path d="M8.713.757H3.287C1.888.757.754 1.89.754 3.288v5.424a2.53 2.53 0 0 0 2.532 2.531h5.426a2.53 2.53 0 0 0 2.532-2.531V3.288A2.53 2.53 0 0 0 8.712.757zm1.628 7.774a1.81 1.81 0 0 1-1.809 1.808H3.467a1.81 1.81 0 0 1-1.809-1.808V3.469a1.81 1.81 0 0 1 1.809-1.808h5.065a1.81 1.81 0 0 1 1.809 1.808v5.062zM6.005 3.288C4.507 3.288 3.292 4.503 3.292 6s1.216 2.712 2.713 2.712S8.718 7.496 8.718 6 7.502 3.288 6.005 3.288zm0 4.52A1.81 1.81 0 0 1 4.196 6a1.81 1.81 0 0 1 1.809-1.808A1.81 1.81 0 0 1 7.814 6a1.81 1.81 0 0 1-1.809 1.808zM8.899 3.65c-.299 0-.543-.244-.543-.542s.244-.542.543-.542.543.244.543.542-.244.542-.543.542z"/></svg>