<svg width="11" height="11" viewBox="0 0 11 11" fill="none" xmlns="http://www.w3.org/2000/svg">
<path d="M1.79665 3.32649C2.50546 3.32649 3.08007 2.74983 3.08007 2.03849C3.08007 1.32715 2.50546 0.750488 1.79665 0.750488C1.08784 0.750488 0.513229 1.32715 0.513229 2.03849C0.513229 2.74983 1.08784 3.32649 1.79665 3.32649Z" fill="#470B3A"/>
<path d="M2.77013 4.18518H0.822685C0.76978 4.18518 0.726892 4.22822 0.726892 4.28131V10.5285C0.726892 10.5816 0.76978 10.6247 0.822685 10.6247H2.77013C2.82304 10.6247 2.86593 10.5816 2.86593 10.5285V4.28131C2.86593 4.22822 2.82304 4.18518 2.77013 4.18518Z" fill="#470B3A"/>
<path d="M10.1386 6.54627V10.1954C10.1386 10.4314 9.94606 10.6247 9.71084 10.6247H8.42742C8.1922 10.6247 7.99961 10.4314 7.99961 10.1954V7.19002C7.99961 6.59761 7.52065 6.11694 6.93035 6.11694C6.34004 6.11694 5.86108 6.59761 5.86108 7.19002V10.1954C5.86108 10.4314 5.66849 10.6247 5.43327 10.6247H4.14985C3.91463 10.6247 3.72204 10.4314 3.72204 10.1954V4.61402C3.72204 4.37796 3.91463 4.18468 4.14985 4.18468H5.43327C5.66849 4.18468 5.86108 4.37796 5.86108 4.61402V4.88883C6.28889 4.33266 6.99705 3.97027 7.78596 3.97027C8.96657 3.97027 10.1386 4.82894 10.1386 6.54627Z" fill="#470B3A"/>
</svg>
