<svg viewBox="0 0 124 124" fill="none" xmlns="http://www.w3.org/2000/svg">
<mask id="mask0_7821_12111" style="mask-type:luminance" maskUnits="userSpaceOnUse" x="0" y="0" width="124" height="124">
<path d="M0 0H124V123.071H0V0Z" fill="white"/>
</mask>
<g mask="url(#mask0_7821_12111)">
<mask id="mask1_7821_12111" style="mask-type:luminance" maskUnits="userSpaceOnUse" x="0" y="0" width="124" height="124">
<path d="M64.8381 1.99746L64.8576 2.05045C65.3875 3.50071 66.6928 4.52426 68.2295 4.6916C69.7634 4.85893 71.2611 4.13938 72.0894 2.83694L72.1229 2.78673C72.7894 1.7353 74.0445 1.21655 75.2604 1.48708C76.4764 1.75761 77.394 2.75885 77.553 3.99435C77.751 5.52271 78.7969 6.80563 80.2555 7.31043C81.7113 7.81244 83.3261 7.44709 84.425 6.36776L84.5031 6.29246C85.4067 5.40278 86.7705 5.17409 87.9168 5.71514C89.0658 6.25899 89.7519 7.45824 89.6375 8.72164C89.5009 10.2472 90.2455 11.7142 91.5591 12.5035C92.8699 13.2928 94.5154 13.2621 95.7983 12.4282L95.8653 12.3835C96.9195 11.6947 98.2917 11.7421 99.2957 12.4979C100.303 13.2565 100.726 14.5617 100.356 15.7638C99.9009 17.2503 100.325 18.8707 101.454 19.9416C102.584 21.0126 104.221 21.3528 105.682 20.8202L105.752 20.7951C106.94 20.36 108.271 20.7142 109.085 21.6819C109.899 22.6469 110.022 24.0191 109.395 25.1152C108.619 26.465 108.678 28.1356 109.54 29.4269C110.404 30.7182 111.924 31.4126 113.466 31.2146L113.5 31.209C114.758 31.0473 115.985 31.6915 116.571 32.8183C117.156 33.945 116.975 35.3172 116.119 36.2543L116.096 36.2822C115.062 37.4117 114.763 39.0349 115.327 40.46C115.89 41.8852 117.218 42.8641 118.746 42.9812C120.004 43.0761 121.066 43.949 121.407 45.1622C121.747 46.3754 121.292 47.6723 120.269 48.4086L120.185 48.4671C118.924 49.3735 118.286 50.9158 118.537 52.4498C118.791 53.9837 119.889 55.2387 121.373 55.6961L121.418 55.7101C122.609 56.0754 123.445 57.1464 123.504 58.393C123.565 59.6369 122.84 60.786 121.688 61.2657C120.277 61.8541 119.323 63.1956 119.231 64.724C119.139 66.2523 119.926 67.697 121.259 68.45L121.465 68.5672C122.556 69.1835 123.144 70.419 122.935 71.6518C122.726 72.8873 121.766 73.8606 120.534 74.0865C119.008 74.3626 117.773 75.4782 117.346 76.9675C116.916 78.4568 117.368 80.0605 118.512 81.1035L118.576 81.1621C119.507 82.0127 119.806 83.3542 119.329 84.52C118.849 85.6858 117.694 86.4277 116.434 86.3803C114.903 86.3217 113.475 87.1389 112.75 88.4887C112.025 89.8386 112.131 91.4813 113.026 92.7251L113.101 92.8311C113.84 93.8575 113.86 95.238 113.148 96.2867C112.437 97.3325 111.146 97.8262 109.919 97.5194C108.416 97.1429 106.829 97.6532 105.827 98.833C104.823 100.013 104.575 101.661 105.189 103.083L105.194 103.1C105.694 104.26 105.417 105.607 104.5 106.475C103.582 107.339 102.221 107.54 101.092 106.977C99.7001 106.279 98.0323 106.43 96.7856 107.364C95.539 108.299 94.9282 109.858 95.2071 111.389V111.392C95.4358 112.652 94.8585 113.921 93.7596 114.577C92.658 115.232 91.2663 115.134 90.2678 114.331L90.2511 114.317C89.0463 113.352 87.4008 113.151 85.9979 113.801C84.5979 114.448 83.6887 115.837 83.6469 117.38C83.6162 118.64 82.799 119.745 81.6053 120.149C80.4117 120.553 79.0925 120.166 78.3032 119.184L78.2809 119.156C77.3187 117.96 75.7625 117.416 74.2676 117.753C72.7727 118.091 71.6013 119.251 71.2471 120.743C70.9599 121.962 69.9391 122.871 68.6924 123.013C67.4486 123.158 66.2465 122.508 65.6859 121.387L65.6776 121.373C64.9831 119.979 63.558 119.1 62.0017 119.1C60.4427 119.1 59.0203 119.979 58.3231 121.373L58.3147 121.387C57.7541 122.508 56.5521 123.158 55.3082 123.013C54.0643 122.871 53.0436 121.962 52.7535 120.743C52.3993 119.251 51.228 118.091 49.7331 117.753C48.2382 117.416 46.682 117.96 45.7226 119.156L45.6975 119.184C44.9082 120.166 43.589 120.553 42.3953 120.149C41.2017 119.745 40.3845 118.64 40.3538 117.38C40.3148 115.837 39.4028 114.448 38.0027 113.801C36.6027 113.151 34.9544 113.352 33.7523 114.317L33.7328 114.331C32.7344 115.134 31.3427 115.232 30.2438 114.577C29.1422 113.921 28.5649 112.652 28.7936 111.392V111.389C29.0725 109.858 28.4617 108.299 27.215 107.364C25.9683 106.43 24.3033 106.279 22.9089 106.977C21.7821 107.54 20.4211 107.339 19.5035 106.475C18.586 105.607 18.3071 104.26 18.8063 103.1L18.8147 103.083C19.4254 101.661 19.18 100.013 18.176 98.833C17.172 97.6532 15.585 97.1429 14.0818 97.5194C12.8547 97.8262 11.5662 97.3325 10.855 96.2867C10.1438 95.238 10.1605 93.8575 10.8996 92.8311L10.9777 92.7251C11.8701 91.4813 11.9761 89.8386 11.2538 88.4887C10.5287 87.1389 9.09792 86.3217 7.56678 86.3803C6.30896 86.4277 5.15154 85.6858 4.67463 84.52C4.19493 83.3542 4.49613 82.0127 5.42486 81.1621L5.489 81.1035C6.63248 80.0605 7.08429 78.4568 6.65758 76.9675C6.22808 75.4782 4.99257 74.3626 3.4698 74.0865C2.23708 73.8606 1.27488 72.8873 1.0685 71.6518C0.859328 70.419 1.44501 69.1835 2.53828 68.5672L2.74467 68.45C4.075 67.697 4.86149 66.2523 4.77224 64.724C4.68021 63.1956 3.72638 61.8541 2.31238 61.2657C1.16332 60.786 0.435406 59.6369 0.496763 58.393C0.55812 57.1464 1.39202 56.0754 2.58291 55.7101L2.62753 55.6961C4.11405 55.2387 5.2129 53.9837 5.4639 52.4498C5.71491 50.9158 5.07624 49.3735 3.81563 48.4671L3.73475 48.4086C2.7112 47.6723 2.2566 46.3754 2.59685 45.1622C2.9371 43.949 3.9997 43.0761 5.25473 42.9812C6.78308 42.8641 8.11063 41.8852 8.674 40.46C9.23737 39.0349 8.93895 37.4117 7.90703 36.2822L7.88193 36.2543C7.02572 35.3172 6.84444 33.945 7.43012 32.8183C8.0158 31.6915 9.24295 31.0473 10.5036 31.209L10.5342 31.2146C12.0765 31.4126 13.5965 30.7182 14.4611 29.4269C15.3257 28.1356 15.3814 26.465 14.6089 25.1152C13.9786 24.0191 14.1013 22.6469 14.9157 21.6819C15.7301 20.7142 17.0604 20.36 18.2485 20.7951L18.3182 20.8202C19.7796 21.3528 21.4195 21.0126 22.5463 19.9416C23.6758 18.8707 24.1025 17.2503 23.6451 15.7638C23.277 14.5617 23.7009 13.2565 24.7049 12.4979C25.709 11.7421 27.0811 11.6947 28.1354 12.3835L28.2051 12.4282C29.4852 13.2621 31.1335 13.2928 32.4443 12.5035C33.7551 11.7142 34.4998 10.2472 34.3631 8.72164C34.2516 7.45824 34.9376 6.25899 36.0839 5.71514C37.2302 5.17409 38.594 5.40278 39.5004 6.29246L39.5757 6.36776C40.6745 7.44709 42.2921 7.81244 43.748 7.31043C45.2038 6.80563 46.2497 5.52271 46.4477 3.99435C46.6094 2.75885 47.5242 1.75761 48.7402 1.48708C49.9562 1.21655 51.2112 1.7353 51.8806 2.78673L51.9141 2.83694C52.7424 4.13938 54.2373 4.85893 55.774 4.6916C57.3079 4.52426 58.6159 3.50071 59.143 2.05045L59.1626 1.99746C59.5976 0.806572 60.7327 0.0117188 62.0017 0.0117188C63.2707 0.0117188 64.403 0.806572 64.8381 1.99746Z" fill="white"/>
</mask>
<g mask="url(#mask1_7821_12111)">
<path d="M-5.25391 -5.77832H129.255V128.728H-5.25391V-5.77832Z" fill="#0DA84A"/>
</g>
</g>
<path d="M14.7842 92.1936V25.4287H41.7897V40.2465H30.7259V37.2455H33.7268V58.8126H30.7259V55.8117H40.2892V70.4872H30.7259V67.4862H33.7268V95.1946H14.7842V92.1936ZM20.786 92.1936H17.7851V89.1927H30.7259V92.1936H27.725V64.4853H37.2883V67.4862H34.2874V58.8126H37.2883V61.8135H27.725V34.2446H38.7888V37.2455H35.7878V28.4296H38.7888V31.4306H17.7851V28.4296H20.786V92.1936Z" fill="#F9AB00"/>
<path d="M37.8986 25.4287H56.8412V95.1946H37.8986V25.4287ZM43.9004 31.4306V89.1927H50.8393V31.4306H43.9004Z" fill="#F9AB00"/>
<path d="M59.8618 92.5451L51.916 25.4287H71.1403L72.6854 74.3304L69.6873 74.4252V71.4243H70.1558V74.4252L67.1577 74.3304L68.7028 25.4287H87.9271L79.6662 95.1946H60.1769L59.8618 92.5451ZM65.8218 91.8422L62.8432 92.1936V89.1927H76.9999V92.1936L74.0213 91.8422L81.571 28.0782L84.5496 28.4296V31.4306H71.6089V28.4296L74.6098 28.5245L73.0619 77.4261H66.7812L65.2333 28.5245L68.2342 28.4296V31.4306H55.2934V28.4296L58.2721 28.0782L65.8218 91.8422Z" fill="#F9AB00"/>
<path d="M82.6738 92.1936V25.4287H109.866V40.2465H98.755V37.2455H101.756V57.2173H98.755V54.2164H108.179V66.8755H98.755V63.8745H101.756V83.6148H98.755V80.6139H110.008V95.1946H82.6738V92.1936ZM88.6757 92.1936H85.6748V89.1927H107.008V92.1936H104.007V83.6148H107.008V86.6157H95.7541V60.8736H105.178V63.8745H102.177V57.2173H105.178V60.2182H95.7541V34.2446H106.868V37.2455H103.867V28.4296H106.868V31.4306H85.6748V28.4296H88.6757V92.1936Z" fill="#F9AB00"/>
<path d="M17.7832 92.1936V28.4268H38.7897V37.251H30.724V58.8153H37.2948V67.4834H30.724V92.1936H17.7832Z" fill="black"/>
<path d="M40.8973 92.1936V28.4268H53.8381V92.1936H40.8973Z" fill="black"/>
<path d="M62.8461 92.1936L55.2936 28.4268H68.2344L69.6846 74.4223H70.1532L71.6146 28.4268H84.5442L77.0029 92.1936H62.8461Z" fill="black"/>
<path d="M85.6719 92.1936V28.4268H106.868V37.251H98.7577V57.22H105.183V63.88H98.7577V83.6147H107.002V92.1936H85.6719Z" fill="black"/>
<path d="M80.6009 96.612L114.986 83.278C115.586 83.0465 116.252 83.0605 116.841 83.3198C117.429 83.5792 117.892 84.0645 118.124 84.6641L121.532 93.4466C121.763 94.0462 121.749 94.7155 121.487 95.304C121.228 95.8925 120.745 96.3527 120.146 96.5869L85.7605 109.921C84.511 110.403 83.1054 109.784 82.6201 108.535L79.2148 99.7524C78.7295 98.5029 79.3514 97.0973 80.6009 96.612Z" fill="#F9AB00"/>
<path d="M81.9016 99.4374L86.2859 97.7306C87.0668 97.4266 87.7863 97.2509 88.4501 97.2062C89.1111 97.156 89.694 97.2062 90.2016 97.3624C90.7147 97.513 91.1442 97.7501 91.4956 98.0764C91.8443 98.3971 92.1036 98.7792 92.2765 99.2254L92.4216 99.5936C92.5917 100.034 92.6558 100.492 92.6112 100.966C92.5722 101.434 92.416 101.9 92.1427 102.36C91.8749 102.823 91.4761 103.258 90.949 103.665C90.4275 104.067 89.7776 104.421 88.9967 104.725L84.6125 106.432L81.9016 99.4374ZM89.3649 100.653L89.2979 100.475C89.231 100.291 89.0971 100.137 88.8963 100.018C88.6955 99.9004 88.4278 99.839 88.0931 99.839C87.764 99.8334 87.3736 99.9171 86.9217 100.096L85.7058 100.564L86.6652 103.018L87.8811 102.55C88.333 102.371 88.6788 102.171 88.9186 101.947C89.1641 101.724 89.3147 101.501 89.376 101.278C89.443 101.049 89.4374 100.84 89.3649 100.653Z" fill="black"/>
<path d="M96.91 93.6162L102.733 99.4061L99.7993 100.544L98.9961 99.7073L96.2295 100.789L96.1848 101.938L93.2509 103.076L93.6413 94.888L96.91 93.6162ZM97.5905 98.0897L96.1737 96.5614L96.1625 98.6363L97.5905 98.0897Z" fill="black"/>
<path d="M104.442 90.6917L107.722 89.4199L106.428 95.6449L107.209 97.6641L104.241 98.8131L103.46 96.7939L98.2842 93.079L101.586 91.8073L103.918 93.5922L104.442 90.6917Z" fill="black"/>
<path d="M109.026 94.1292L112.128 92.9244C112.195 93.0303 112.289 93.1112 112.418 93.1698C112.543 93.2311 112.73 93.2451 112.975 93.2144C113.226 93.1865 113.567 93.0889 113.991 92.9244C114.442 92.7542 114.772 92.6064 114.972 92.4781C115.179 92.3526 115.307 92.2439 115.352 92.1546C115.396 92.0654 115.407 91.9928 115.385 91.9315C115.363 91.8952 115.324 91.8618 115.274 91.8311C115.229 91.8032 115.134 91.7865 114.995 91.7865C114.861 91.7865 114.666 91.8144 114.415 91.8646C114.169 91.9092 113.837 91.9956 113.422 92.1211C112.499 92.4056 111.729 92.5981 111.112 92.7012C110.493 92.7989 110 92.8128 109.629 92.7459C109.249 92.6734 108.954 92.5395 108.736 92.3443C108.513 92.1435 108.346 91.8952 108.234 91.5968C108.117 91.3068 108.078 91 108.123 90.6709C108.167 90.3446 108.318 90.0099 108.569 89.6669C108.823 89.3266 109.205 88.9863 109.718 88.6517C110.231 88.317 110.892 87.9907 111.704 87.67C112.529 87.352 113.249 87.154 113.868 87.0787C114.493 86.9978 115.031 87.009 115.486 87.1122C115.937 87.2181 116.311 87.3911 116.601 87.6365C116.891 87.8819 117.12 88.1775 117.293 88.5178L114.203 89.7226C114.136 89.6194 114.038 89.5386 113.913 89.4772C113.793 89.4186 113.617 89.4047 113.388 89.4326C113.157 89.4549 112.847 89.5414 112.462 89.6892C112.083 89.8398 111.799 89.9681 111.614 90.0796C111.428 90.1912 111.308 90.2916 111.257 90.3808C111.213 90.4701 111.204 90.5454 111.235 90.6039C111.249 90.6569 111.283 90.6988 111.336 90.7267C111.394 90.7573 111.486 90.7713 111.614 90.7713C111.748 90.7657 111.941 90.735 112.195 90.682C112.446 90.6318 112.786 90.5482 113.21 90.4366C114.152 90.1466 114.939 89.9541 115.564 89.8565C116.188 89.7617 116.69 89.7449 117.07 89.8119C117.455 89.8732 117.753 89.9987 117.962 90.1912C118.177 90.378 118.341 90.6235 118.453 90.9275C118.565 91.2175 118.598 91.5271 118.553 91.8534C118.509 92.1825 118.347 92.52 118.074 92.8686C117.806 93.22 117.404 93.5686 116.869 93.9172C116.339 94.2603 115.642 94.5977 114.772 94.9324C113.907 95.2755 113.148 95.4958 112.496 95.5906C111.849 95.6799 111.297 95.6771 110.845 95.5795C110.39 95.4763 110.019 95.2978 109.729 95.044C109.434 94.793 109.199 94.4862 109.026 94.1292Z" fill="black"/>
</svg>
