<svg width="137" height="18" viewBox="0 0 137 18" fill="none" xmlns="http://www.w3.org/2000/svg">
<path d="M8.97872 2.01825L2.46952 6.66895C1.10564 7.64341 0.794485 9.53271 1.77453 10.8888L1.7781 10.8938C2.75815 12.2499 4.65828 12.5593 6.02216 11.5848L12.5314 6.93411C13.8952 5.95964 14.2064 4.07034 13.2263 2.71423L13.2228 2.70929C12.2427 1.35317 10.3426 1.04379 8.97872 2.01825Z" fill="#EA4335" stroke="#1E1E1E" stroke-width="0.337054" stroke-miterlimit="10"/>
<path d="M1.77858 7.36033L1.77501 7.36527C0.794966 8.72138 1.10612 10.6107 2.47 11.5851L8.97921 16.2358C10.3431 17.2103 12.2432 16.9009 13.2233 15.5448L13.2268 15.5399C14.2069 14.1838 13.8957 12.2945 12.5318 11.32L6.02264 6.66929C4.65876 5.69483 2.75863 6.00422 1.77858 7.36033Z" fill="#4285F4" stroke="#1E1E1E" stroke-width="0.337054" stroke-miterlimit="10"/>
<path d="M24.6929 6.66552L18.1837 11.3162C16.8198 12.2907 16.5087 14.18 17.4887 15.5361L17.4923 15.541C18.4723 16.8971 20.3725 17.2065 21.7363 16.2321L28.2455 11.5814C29.6094 10.6069 29.9206 8.71761 28.9405 7.3615L28.937 7.35656C27.9569 6.00044 26.0568 5.69106 24.6929 6.66552Z" fill="#F9AB00" stroke="#1E1E1E" stroke-width="0.337054" stroke-miterlimit="10"/>
<path d="M17.4918 2.71088L17.4882 2.71582C16.5082 4.07193 16.8193 5.96124 18.1832 6.9357L24.6924 11.5864C26.0563 12.5609 27.9564 12.2515 28.9365 10.8954L28.94 10.8904C29.9201 9.53431 29.6089 7.645 28.2451 6.67054L21.7358 2.01985C20.372 1.04538 18.4718 1.35477 17.4918 2.71088Z" fill="#34A853" stroke="#1E1E1E" stroke-width="0.337054" stroke-miterlimit="10"/>
<path d="M40.9964 14H37.125V3.07903H41.0284C42.1269 3.07903 43.0725 3.29766 43.8653 3.73493C44.658 4.16864 45.2677 4.79254 45.6943 5.60664C46.1245 6.42073 46.3396 7.39481 46.3396 8.52885C46.3396 9.66645 46.1245 10.6441 45.6943 11.4617C45.2677 12.2794 44.6545 12.9068 43.8546 13.3441C43.0583 13.7814 42.1056 14 40.9964 14ZM39.434 12.0216H40.9004C41.583 12.0216 42.1571 11.9008 42.6228 11.659C43.0921 11.4137 43.444 11.0351 43.6786 10.5232C43.9168 10.0077 44.0359 9.34295 44.0359 8.52885C44.0359 7.72187 43.9168 7.06241 43.6786 6.55049C43.444 6.03857 43.0938 5.66174 42.6281 5.42C42.1624 5.17826 41.5883 5.05739 40.9057 5.05739H39.434V12.0216ZM51.1394 14.16C50.2969 14.16 49.5716 13.9893 48.9637 13.6481C48.3594 13.3032 47.8937 12.8162 47.5666 12.1869C47.2396 11.5542 47.076 10.8058 47.076 9.94196C47.076 9.09943 47.2396 8.35999 47.5666 7.72364C47.8937 7.0873 48.3541 6.59137 48.9477 6.23587C49.545 5.88037 50.2453 5.70262 51.0488 5.70262C51.5891 5.70262 52.0921 5.78972 52.5578 5.96392C53.0271 6.13456 53.4359 6.39229 53.7843 6.73713C54.1363 7.08197 54.41 7.51568 54.6055 8.03826C54.8011 8.55729 54.8988 9.1652 54.8988 9.86198V10.4859H47.9826V9.0781H52.7605C52.7605 8.75104 52.6894 8.46131 52.5472 8.2089C52.405 7.9565 52.2077 7.75919 51.9553 7.61699C51.7064 7.47124 51.4167 7.39836 51.0861 7.39836C50.7412 7.39836 50.4355 7.47835 50.1689 7.63832C49.9058 7.79474 49.6996 8.00627 49.5503 8.27289C49.401 8.53596 49.3246 8.82925 49.321 9.15275V10.4912C49.321 10.8965 49.3957 11.2467 49.545 11.5417C49.6978 11.8368 49.9129 12.0643 50.1902 12.2243C50.4675 12.3843 50.7963 12.4642 51.1767 12.4642C51.4291 12.4642 51.6602 12.4287 51.87 12.3576C52.0797 12.2865 52.2592 12.1798 52.4085 12.0376C52.5578 11.8954 52.6716 11.7212 52.7498 11.5151L54.8508 11.6537C54.7442 12.1585 54.5255 12.5993 54.1949 12.9762C53.8679 13.3494 53.4448 13.6409 52.9258 13.8507C52.4103 14.0569 51.8149 14.16 51.1394 14.16ZM63.1968 5.80927L60.3332 14H57.7736L54.9101 5.80927H57.3097L59.0108 11.6697H59.0961L60.7918 5.80927H63.1968ZM63.8013 14V3.07903H71.0321V4.98274H66.1102V7.585H70.5522V9.4887H66.1102V14H63.8013ZM75.0734 14.16C74.2309 14.16 73.5057 13.9893 72.8978 13.6481C72.2934 13.3032 71.8277 12.8162 71.5007 12.1869C71.1736 11.5542 71.0101 10.8058 71.0101 9.94196C71.0101 9.09943 71.1736 8.35999 71.5007 7.72364C71.8277 7.0873 72.2881 6.59137 72.8818 6.23587C73.479 5.88037 74.1794 5.70262 74.9828 5.70262C75.5231 5.70262 76.0262 5.78972 76.4919 5.96392C76.9611 6.13456 77.37 6.39229 77.7184 6.73713C78.0703 7.08197 78.344 7.51568 78.5396 8.03826C78.7351 8.55729 78.8329 9.1652 78.8329 9.86198V10.4859H71.9166V9.0781H76.6945C76.6945 8.75104 76.6234 8.46131 76.4812 8.2089C76.339 7.9565 76.1417 7.75919 75.8893 7.61699C75.6405 7.47124 75.3507 7.39836 75.0201 7.39836C74.6753 7.39836 74.3696 7.47835 74.1029 7.63832C73.8399 7.79474 73.6337 8.00627 73.4844 8.27289C73.335 8.53596 73.2586 8.82925 73.2551 9.15275V10.4912C73.2551 10.8965 73.3297 11.2467 73.479 11.5417C73.6319 11.8368 73.847 12.0643 74.1243 12.2243C74.4015 12.3843 74.7304 12.4642 75.1108 12.4642C75.3632 12.4642 75.5942 12.4287 75.804 12.3576C76.0137 12.2865 76.1933 12.1798 76.3426 12.0376C76.4919 11.8954 76.6056 11.7212 76.6839 11.5151L78.7849 11.6537C78.6782 12.1585 78.4596 12.5993 78.129 12.9762C77.8019 13.3494 77.3789 13.6409 76.8598 13.8507C76.3444 14.0569 75.7489 14.16 75.0734 14.16ZM86.5296 8.14491L84.4499 8.27289C84.4144 8.09514 84.3379 7.93517 84.2206 7.79297C84.1033 7.64721 83.9486 7.53167 83.7567 7.44635C83.5683 7.35748 83.3425 7.31304 83.0794 7.31304C82.7275 7.31304 82.4307 7.3877 82.1889 7.53701C81.9472 7.68276 81.8263 7.87829 81.8263 8.12358C81.8263 8.31911 81.9045 8.48441 82.0609 8.6195C82.2174 8.75459 82.4858 8.86302 82.8661 8.94479L84.3486 9.24341C85.1449 9.40694 85.7386 9.67001 86.1296 10.0326C86.5207 10.3952 86.7162 10.8716 86.7162 11.4617C86.7162 11.9985 86.558 12.4696 86.2416 12.8748C85.9288 13.2801 85.4986 13.5965 84.9512 13.824C84.4072 14.048 83.7798 14.16 83.0688 14.16C81.9845 14.16 81.1206 13.9342 80.4772 13.4827C79.8373 13.0277 79.4622 12.4091 79.352 11.627L81.5863 11.5097C81.6539 11.8403 81.8174 12.0927 82.0769 12.2669C82.3365 12.4376 82.6688 12.5229 83.0741 12.5229C83.4723 12.5229 83.7922 12.4465 84.034 12.2936C84.2793 12.1372 84.4037 11.9363 84.4072 11.691C84.4037 11.4848 84.3166 11.316 84.1459 11.1844C83.9753 11.0493 83.7122 10.9463 83.3567 10.8752L81.9383 10.5925C81.1384 10.4326 80.543 10.1553 80.1519 9.76066C79.7644 9.36605 79.5707 8.86302 79.5707 8.25156C79.5707 7.72542 79.7129 7.27216 79.9973 6.89177C80.2852 6.51139 80.6887 6.2181 81.2077 6.01191C81.7303 5.80572 82.3418 5.70262 83.0421 5.70262C84.0766 5.70262 84.8907 5.92126 85.4844 6.35852C86.0816 6.79579 86.43 7.39125 86.5296 8.14491ZM91.9027 5.80927V7.51568H86.9701V5.80927H91.9027ZM88.0899 3.84691H90.3616V11.4831C90.3616 11.6928 90.3936 11.8563 90.4576 11.9736C90.5215 12.0874 90.6104 12.1674 90.7242 12.2136C90.8415 12.2598 90.9766 12.2829 91.1294 12.2829C91.2361 12.2829 91.3427 12.274 91.4494 12.2563C91.556 12.2349 91.6378 12.2189 91.6947 12.2083L92.052 13.8987C91.9382 13.9342 91.7782 13.9751 91.572 14.0213C91.3659 14.0711 91.1152 14.1013 90.8202 14.112C90.2727 14.1333 89.7928 14.0604 89.3804 13.8933C88.9716 13.7263 88.6534 13.4667 88.4259 13.1148C88.1983 12.7629 88.0864 12.3185 88.0899 11.7817V3.84691ZM95.6992 14V3.07903H98.0082V12.0963H102.69V14H95.6992ZM105.912 14.1546C105.389 14.1546 104.923 14.064 104.514 13.8827C104.106 13.6978 103.782 13.4259 103.544 13.0668C103.309 12.7042 103.192 12.2527 103.192 11.7124C103.192 11.2573 103.276 10.8752 103.443 10.5659C103.61 10.2566 103.837 10.0077 104.125 9.81932C104.413 9.6309 104.74 9.4887 105.106 9.39272C105.476 9.29673 105.864 9.22919 106.269 9.19008C106.745 9.14031 107.129 9.0941 107.421 9.05144C107.712 9.00522 107.924 8.93768 108.055 8.8488C108.187 8.75993 108.253 8.62839 108.253 8.4542V8.4222C108.253 8.08448 108.146 7.82318 107.933 7.63832C107.723 7.45346 107.424 7.36103 107.037 7.36103C106.628 7.36103 106.303 7.45169 106.061 7.63299C105.819 7.81074 105.659 8.03471 105.581 8.30489L103.48 8.13425C103.587 7.63655 103.796 7.20639 104.109 6.84378C104.422 6.47761 104.826 6.19677 105.32 6.00124C105.817 5.80216 106.393 5.70262 107.047 5.70262C107.502 5.70262 107.938 5.75595 108.354 5.8626C108.773 5.96925 109.145 6.13456 109.468 6.35852C109.795 6.58249 110.053 6.87044 110.242 7.22239C110.43 7.57078 110.524 7.98849 110.524 8.47553V14H108.37V12.8642H108.306C108.174 13.1201 107.998 13.3459 107.778 13.5414C107.558 13.7334 107.293 13.8845 106.983 13.9947C106.674 14.1013 106.317 14.1546 105.912 14.1546ZM106.562 12.5869C106.896 12.5869 107.191 12.5211 107.447 12.3896C107.703 12.2545 107.904 12.0732 108.05 11.8457C108.196 11.6181 108.269 11.3604 108.269 11.0725V10.2033C108.197 10.2495 108.1 10.2921 107.975 10.3312C107.854 10.3668 107.718 10.4006 107.565 10.4326C107.412 10.461 107.259 10.4877 107.106 10.5125C106.953 10.5339 106.815 10.5534 106.69 10.5712C106.423 10.6103 106.191 10.6725 105.992 10.7578C105.792 10.8432 105.638 10.9587 105.528 11.1045C105.417 11.2467 105.362 11.4244 105.362 11.6377C105.362 11.947 105.474 12.1834 105.698 12.3469C105.926 12.5069 106.214 12.5869 106.562 12.5869ZM115.376 17.2422C114.64 17.2422 114.009 17.1408 113.483 16.9382C112.96 16.7391 112.544 16.4672 112.235 16.1223C111.926 15.7775 111.725 15.39 111.633 14.9599L113.734 14.6772C113.798 14.8408 113.899 14.9936 114.038 15.1358C114.176 15.278 114.359 15.3918 114.587 15.4771C114.818 15.566 115.099 15.6104 115.429 15.6104C115.923 15.6104 116.331 15.4895 116.65 15.2478C116.974 15.0096 117.136 14.6097 117.136 14.048V12.5496H117.04C116.94 12.7771 116.791 12.9922 116.592 13.1948C116.393 13.3974 116.137 13.5627 115.824 13.6907C115.511 13.8187 115.138 13.8827 114.704 13.8827C114.089 13.8827 113.529 13.7405 113.024 13.4561C112.523 13.1681 112.123 12.7291 111.825 12.139C111.53 11.5453 111.382 10.7952 111.382 9.88864C111.382 8.96078 111.533 8.18579 111.835 7.56367C112.137 6.94154 112.539 6.47584 113.04 6.16655C113.545 5.85727 114.098 5.70262 114.699 5.70262C115.157 5.70262 115.541 5.78083 115.851 5.93725C116.16 6.09012 116.409 6.28209 116.597 6.51316C116.789 6.74068 116.937 6.96465 117.04 7.18506H117.125V5.80927H119.381V14.08C119.381 14.7768 119.21 15.3598 118.869 15.829C118.528 16.2983 118.055 16.6503 117.45 16.8849C116.85 17.1231 116.158 17.2422 115.376 17.2422ZM115.424 12.1763C115.79 12.1763 116.099 12.0856 116.352 11.9043C116.608 11.7195 116.803 11.4564 116.938 11.1151C117.077 10.7703 117.146 10.3579 117.146 9.87797C117.146 9.39805 117.079 8.98211 116.944 8.63017C116.809 8.27467 116.613 7.99916 116.357 7.80363C116.101 7.60811 115.79 7.51034 115.424 7.51034C115.051 7.51034 114.736 7.61166 114.48 7.8143C114.224 8.01338 114.03 8.29067 113.899 8.64617C113.767 9.00167 113.702 9.41227 113.702 9.87797C113.702 10.3508 113.767 10.7596 113.899 11.1045C114.034 11.4457 114.228 11.7106 114.48 11.899C114.736 12.0839 115.051 12.1763 115.424 12.1763ZM124.289 14.16C123.46 14.16 122.744 13.984 122.14 13.6321C121.539 13.2766 121.075 12.7824 120.748 12.1496C120.421 11.5133 120.257 10.7756 120.257 9.93663C120.257 9.09054 120.421 8.3511 120.748 7.71831C121.075 7.08196 121.539 6.58782 122.14 6.23587C122.744 5.88037 123.46 5.70262 124.289 5.70262C125.117 5.70262 125.831 5.88037 126.432 6.23587C127.037 6.58782 127.502 7.08196 127.829 7.71831C128.156 8.3511 128.32 9.09054 128.32 9.93663C128.32 10.7756 128.156 11.5133 127.829 12.1496C127.502 12.7824 127.037 13.2766 126.432 13.6321C125.831 13.984 125.117 14.16 124.289 14.16ZM124.299 12.4002C124.676 12.4002 124.991 12.2936 125.243 12.0803C125.495 11.8634 125.686 11.5684 125.814 11.1951C125.945 10.8218 126.011 10.397 126.011 9.92063C126.011 9.44426 125.945 9.01944 125.814 8.64617C125.686 8.27289 125.495 7.97783 125.243 7.76097C124.991 7.54412 124.676 7.43569 124.299 7.43569C123.919 7.43569 123.599 7.54412 123.339 7.76097C123.083 7.97783 122.89 8.27289 122.758 8.64617C122.63 9.01944 122.566 9.44426 122.566 9.92063C122.566 10.397 122.63 10.8218 122.758 11.1951C122.89 11.5684 123.083 11.8634 123.339 12.0803C123.599 12.2936 123.919 12.4002 124.299 12.4002ZM136.011 8.14491L133.932 8.27289C133.896 8.09514 133.82 7.93517 133.702 7.79297C133.585 7.64721 133.43 7.53167 133.238 7.44635C133.05 7.35748 132.824 7.31304 132.561 7.31304C132.209 7.31304 131.912 7.3877 131.671 7.53701C131.429 7.68276 131.308 7.87829 131.308 8.12358C131.308 8.31911 131.386 8.48441 131.543 8.6195C131.699 8.75459 131.968 8.86302 132.348 8.94479L133.83 9.24341C134.627 9.40694 135.22 9.67001 135.611 10.0326C136.002 10.3952 136.198 10.8716 136.198 11.4617C136.198 11.9985 136.04 12.4696 135.723 12.8748C135.411 13.2801 134.98 13.5965 134.433 13.824C133.889 14.048 133.262 14.16 132.551 14.16C131.466 14.16 130.602 13.9342 129.959 13.4827C129.319 13.0277 128.944 12.4091 128.834 11.627L131.068 11.5097C131.136 11.8403 131.299 12.0927 131.559 12.2669C131.818 12.4376 132.151 12.5229 132.556 12.5229C132.954 12.5229 133.274 12.4465 133.516 12.2936C133.761 12.1372 133.885 11.9363 133.889 11.691C133.885 11.4848 133.798 11.316 133.628 11.1844C133.457 11.0493 133.194 10.9463 132.838 10.8752L131.42 10.5925C130.62 10.4326 130.025 10.1553 129.634 9.76066C129.246 9.36605 129.052 8.86302 129.052 8.25156C129.052 7.72542 129.195 7.27216 129.479 6.89177C129.767 6.51139 130.17 6.2181 130.689 6.01191C131.212 5.80572 131.824 5.70262 132.524 5.70262C133.558 5.70262 134.372 5.92126 134.966 6.35852C135.563 6.79579 135.912 7.39125 136.011 8.14491Z" fill="#1E1E1E"/>
</svg>
