<svg width="184" height="182" viewBox="0 0 184 182" fill="none" xmlns="http://www.w3.org/2000/svg">
<g filter="url(#filter0_d_7821_4890)">
<circle cx="95.408" cy="86.6162" r="86.6162" fill="#4285F4"/>
<path d="M23.2326 81.1347L31.4426 84.8998L30.9978 89.4047L15.2719 93.0103L15.7901 87.7623L25.3821 86.3178L25.3958 86.1785L16.3129 82.4679L16.721 78.3345L26.3891 76.4755L26.4029 76.3362L17.2438 73.0401L17.762 67.7921L32.4791 74.4038L32.0342 78.9087L23.2464 80.9954L23.2326 81.1347ZM35.7725 64.1963C35.2299 65.5122 34.5388 66.5355 33.6991 67.2661C32.8534 68.0112 31.9185 68.4628 30.8941 68.621C29.8728 68.7719 28.8192 68.6236 27.7334 68.1759C26.6404 67.7252 25.7863 67.0828 25.1711 66.2487C24.5416 65.4086 24.1966 64.4292 24.1362 63.3106C24.0686 62.189 24.3016 60.981 24.8353 59.6867C25.3749 58.378 26.064 57.3496 26.9024 56.6016C27.7451 55.8637 28.6771 55.4193 29.6985 55.2683C30.7228 55.1102 31.7815 55.2564 32.8745 55.7071C33.9531 56.1518 34.805 56.7891 35.4304 57.6191C36.057 58.4663 36.4041 59.4508 36.4716 60.5724C36.5392 61.6939 36.3062 62.9019 35.7725 64.1963ZM32.9339 63.0006C33.0851 62.6339 33.1127 62.2709 33.0169 61.9117C32.9108 61.5566 32.6897 61.2257 32.3535 60.9188C32.0173 60.6119 31.576 60.3458 31.0295 60.1205C30.483 59.8952 29.9823 59.7729 29.5276 59.7536C29.08 59.7373 28.7006 59.8207 28.3896 60.0038C28.0785 60.1868 27.8459 60.4653 27.6918 60.8392C27.5317 61.2275 27.4974 61.5962 27.5891 61.9453C27.6748 62.3087 27.8821 62.6424 28.2112 62.9463C28.5402 63.2503 28.9815 63.5164 29.5352 63.7447C30.0745 63.967 30.5787 64.0908 31.0479 64.116C31.5027 64.1352 31.8907 64.0512 32.2119 63.864C32.5361 63.6695 32.7767 63.3817 32.9339 63.0006ZM41.2517 53.0414L38.7016 56.9777L29.0665 50.7355L31.5406 46.9167L33.3814 48.1093L33.4576 47.9918C32.9209 47.3754 32.6301 46.7514 32.5851 46.1199C32.5379 45.4776 32.7088 44.8561 33.0978 44.2556C33.3178 43.9161 33.5791 43.6128 33.882 43.3456L36.8293 45.2551C36.6521 45.3998 36.4617 45.6008 36.2579 45.8581C36.0477 46.1111 35.8664 46.3551 35.7142 46.5901C35.4689 46.9687 35.3198 47.3633 35.2669 47.7739C35.2206 48.1887 35.2795 48.5698 35.4438 48.9172C35.608 49.2645 35.8728 49.5566 36.2384 49.7934L41.2517 53.0414ZM35.2529 35.6201L46.9913 45.4264L43.9843 49.0258L32.246 39.2195L35.2529 35.6201ZM51.7228 41.3631C51.0239 41.9699 50.2405 42.3667 49.3728 42.5536C48.4713 42.7491 47.5592 42.6655 46.6364 42.3026C45.7196 41.9347 44.8405 41.2661 43.9991 40.297C43.0864 39.2457 42.532 38.2334 42.336 37.2602C42.1487 36.3207 42.2052 35.4426 42.5054 34.6257C42.8115 33.8037 43.3023 33.0995 43.9777 32.5131C44.4711 32.0848 44.9636 31.786 45.4552 31.6167C45.9359 31.4466 46.4066 31.3778 46.8675 31.4103C47.3342 31.4377 47.7647 31.5481 48.1591 31.7413L48.212 31.6954L44.3876 27.2904L47.9293 24.2156L57.9567 35.7656L54.4503 38.8098L53.2112 37.3826L53.1231 37.459C53.243 37.87 53.2761 38.2996 53.2224 38.748C53.173 39.2131 53.0223 39.6684 52.7704 40.1137C52.5243 40.554 52.1751 40.9705 51.7228 41.3631ZM50.9539 37.8435C51.2711 37.5682 51.4762 37.2408 51.5691 36.8614C51.6561 36.4871 51.6313 36.0967 51.4946 35.6901C51.3587 35.2725 51.1097 34.8552 50.7476 34.4381C50.3703 34.0035 49.9874 33.687 49.5989 33.4887C49.1994 33.2896 48.8134 33.2127 48.4408 33.2581C48.0631 33.2976 47.7127 33.4576 47.3897 33.738C47.0607 34.0236 46.8561 34.3455 46.7757 34.7037C46.6894 35.067 46.7197 35.4579 46.8666 35.8762C47.0143 36.2836 47.2743 36.7017 47.6465 37.1305C48.0085 37.5475 48.3863 37.8581 48.7799 38.0623C49.1677 38.2716 49.5474 38.3591 49.9193 38.3247C50.286 38.2844 50.6309 38.124 50.9539 37.8435ZM70.2508 29.7742C68.7931 30.4009 67.3656 30.6845 65.9684 30.6248C64.5324 30.5734 63.2502 30.151 62.1217 29.3578C60.9973 28.5543 60.1079 27.3916 59.4536 25.8696C58.7807 24.3047 58.5553 22.8353 58.7774 21.4614C59.0015 20.112 59.5726 18.9097 60.4905 17.8547C61.4084 16.7996 62.5927 15.9602 64.0432 15.3366C65.0508 14.9034 66.0319 14.6255 66.9867 14.5028C67.9415 14.3802 68.8403 14.4128 69.683 14.6008C70.5391 14.7999 71.3025 15.1575 71.9731 15.6735C72.6436 16.1895 73.2077 16.8614 73.6652 17.6891L69.2706 19.5786C68.9247 18.9315 68.4273 18.523 67.7786 18.3532C67.1268 18.1763 66.4008 18.2599 65.6005 18.6039C64.8788 18.9142 64.3339 19.3306 63.9658 19.8529C63.5977 20.3752 63.4074 20.9862 63.395 21.6858C63.3897 22.3823 63.5621 23.1379 63.9124 23.9525C64.2841 24.8171 64.7251 25.4784 65.2352 25.9363C65.7485 26.4015 66.3146 26.6745 66.9336 26.7555C67.5567 26.8262 68.2219 26.7095 68.9293 26.4054C69.6939 26.0767 70.247 25.6399 70.5885 25.0952C70.934 24.5402 71.0247 23.9339 70.8606 23.2764L75.2551 21.3869C75.4693 22.023 75.5421 22.724 75.4735 23.4901C75.4091 24.2459 75.1914 24.9999 74.8205 25.752C74.418 26.5685 73.8363 27.3224 73.0752 28.0137C72.3212 28.7019 71.3798 29.2887 70.2508 29.7742ZM79.9433 10.1245L83.3131 25.0442L78.7382 26.0775L75.3683 11.1578L79.9433 10.1245ZM88.516 24.7613C87.6703 24.8213 86.9283 24.7492 86.29 24.545C84.8954 24.1215 84.1464 23.1804 84.0429 21.7218C83.9575 20.5193 84.3514 19.5868 85.2245 18.9244C86.0317 18.3213 87.1421 17.9267 88.5559 17.7406C89.2819 17.6423 89.8635 17.5426 90.3008 17.4414C90.7303 17.3407 91.0374 17.2176 91.222 17.0719C91.4144 16.9257 91.5026 16.7401 91.4866 16.5151L91.4841 16.4802C91.4637 16.1931 91.3198 15.9772 91.0522 15.8324C90.7923 15.6871 90.4568 15.6291 90.0456 15.6582C89.5879 15.6907 89.2257 15.8061 88.959 16.0044C88.6996 16.1943 88.5509 16.4622 88.5131 16.808L84.2304 17.1119C84.2429 16.4092 84.4496 15.7512 84.8506 15.1379C85.2649 14.4925 85.8982 13.968 86.7507 13.5645C87.6032 13.1609 88.6579 12.9145 89.9148 12.8253C90.8303 12.7603 91.6632 12.7948 92.4134 12.9287C93.1637 13.0626 93.815 13.2854 94.3674 13.5971C94.912 13.9094 95.336 14.2809 95.6395 14.7116C95.9507 15.1418 96.1251 15.6206 96.1625 16.1482L96.7191 23.9921L92.3433 24.3026L92.2285 22.6849L92.1354 22.6915C91.9091 23.1287 91.6194 23.4962 91.2662 23.7942C90.5733 24.358 89.6565 24.6804 88.516 24.7613ZM89.844 22.0471C90.1931 22.0223 90.5259 21.9324 90.8424 21.7774C91.1589 21.6224 91.4017 21.418 91.5709 21.1643C91.7472 20.9022 91.8235 20.6044 91.7999 20.2708L91.733 19.3281C91.4597 19.4333 91.1895 19.5266 90.9224 19.6079C90.6625 19.6809 90.3216 19.7675 89.8998 19.8676C89.5462 19.9395 89.2569 20.038 89.0319 20.1631C88.5979 20.42 88.3954 20.7541 88.4246 21.1653C88.4466 21.4756 88.5878 21.7073 88.8482 21.8604C89.1086 22.0135 89.4405 22.0757 89.844 22.0471ZM104.158 25.064C102.87 24.8924 101.773 24.5854 100.867 24.1429C99.9698 23.6937 99.2936 23.1445 98.8387 22.4954C98.3848 21.8385 98.1635 21.1146 98.1748 20.3236L102.778 20.937C102.8 21.3009 102.967 21.6057 103.28 21.8514C103.601 22.0904 104.024 22.2448 104.548 22.3147C104.987 22.3733 105.351 22.355 105.638 22.2599C105.933 22.1658 106.095 22.007 106.125 21.7834C106.179 21.3825 105.723 21.0353 104.757 20.7419L102.515 20.0782C101.232 19.6953 100.3 19.1827 99.719 18.5402C99.1386 17.89 98.9086 17.1139 99.0288 16.2119C99.1357 15.4101 99.468 14.7717 100.026 14.2967C100.577 13.813 101.314 13.4876 102.239 13.3205C103.172 13.1468 104.256 13.1421 105.489 13.3065C106.723 13.4709 107.77 13.7674 108.631 14.1961C109.5 14.6257 110.142 15.1625 110.559 15.8065C110.984 16.4439 111.159 17.1616 111.084 17.9599L106.828 17.3926C106.841 17.057 106.692 16.7663 106.379 16.5207C106.076 16.2683 105.689 16.1108 105.218 16.0481C104.802 15.9926 104.45 16.0124 104.163 16.1075C103.876 16.1949 103.718 16.3543 103.687 16.5856C103.665 16.7552 103.728 16.9245 103.878 17.0936C104.027 17.2704 104.336 17.4254 104.805 17.5585L107.386 18.3263C108.686 18.7035 109.625 19.1896 110.205 19.7848C110.786 20.3723 111.021 21.0823 110.91 21.915C110.8 22.74 110.436 23.4094 109.818 23.9235C109.2 24.4452 108.398 24.8053 107.414 25.0037C106.438 25.2032 105.353 25.2233 104.158 25.064ZM116.897 28.1667C115.671 27.7374 114.659 27.2141 113.861 26.5969C113.074 25.975 112.523 25.3 112.209 24.5721C111.898 23.8368 111.828 23.083 112 22.3107L116.383 23.8455C116.33 24.2063 116.432 24.5387 116.688 24.8427C116.955 25.1419 117.337 25.3789 117.836 25.5537C118.255 25.7002 118.614 25.7561 118.915 25.7213C119.223 25.689 119.414 25.5665 119.489 25.3536C119.622 24.9718 119.246 24.5394 118.361 24.0562L116.3 22.9513C115.122 22.3161 114.313 21.6249 113.874 20.8778C113.438 20.1234 113.37 19.3168 113.671 18.4579C113.938 17.6945 114.393 17.1368 115.035 16.7849C115.673 16.4231 116.461 16.2542 117.401 16.2782C118.35 16.2974 119.412 16.5127 120.586 16.9241C121.761 17.3354 122.726 17.8382 123.482 18.4327C124.246 19.0296 124.766 19.6857 125.043 20.4008C125.33 21.1111 125.356 21.8495 125.12 22.6159L121.068 21.1968C121.149 20.8709 121.062 20.5559 120.806 20.2519C120.559 19.9432 120.212 19.7104 119.765 19.5536C119.368 19.4148 119.02 19.3628 118.719 19.3976C118.421 19.4251 118.233 19.5489 118.156 19.7691C118.1 19.9306 118.128 20.1094 118.24 20.3054C118.35 20.5088 118.621 20.7232 119.053 20.9487L121.425 22.2243C122.621 22.8573 123.442 23.5241 123.889 24.2245C124.339 24.9176 124.425 25.6606 124.147 26.4534C123.872 27.2389 123.38 27.8206 122.671 28.1985C121.959 28.5838 121.101 28.7738 120.098 28.7685C119.101 28.7658 118.034 28.5652 116.897 28.1667ZM139.322 36.7404L137.404 39.4851L127.171 32.334L135.933 19.7967L146.204 26.9745L144.286 29.7191L137.878 25.2413L136.401 27.3548L142.273 31.4583L140.402 34.136L134.53 30.0325L132.953 32.2894L139.322 36.7404ZM141.772 44.022L138.603 40.5642L147.067 32.8078L150.204 36.2312L148.587 37.7131L148.65 37.7819C149.389 37.4949 150.131 37.4584 150.876 37.6726C151.632 37.8872 152.33 38.3443 152.971 39.0439C153.592 39.7205 154.001 40.4375 154.199 41.1949C154.381 41.946 154.357 42.6799 154.128 43.3966C153.904 44.108 153.485 44.7448 152.872 45.3071L147.479 50.2495L144.31 46.7917L149.066 42.4327C149.485 42.049 149.699 41.6262 149.708 41.1642C149.728 40.7026 149.541 40.2568 149.147 39.8267C148.884 39.54 148.606 39.3462 148.314 39.2454C148.01 39.1331 147.706 39.1115 147.4 39.1808C147.094 39.25 146.803 39.4107 146.528 39.663L141.772 44.022ZM151.309 57.0285C150.609 55.816 150.216 54.66 150.129 53.5606C150.027 52.4516 150.226 51.443 150.726 50.5349C151.226 49.6268 152.008 48.8655 153.072 48.2511C154.109 47.6522 155.145 47.3688 156.178 47.4009C157.225 47.4252 158.204 47.7445 159.116 48.3589C160.038 48.9761 160.831 49.8607 161.496 51.0126C161.986 51.8613 162.317 52.6987 162.489 53.5247C162.66 54.3508 162.666 55.138 162.505 55.8864C162.341 56.6454 162.017 57.3357 161.531 57.9572C161.057 58.5816 160.425 59.1212 159.637 59.5762L158.819 60.0487L154.572 52.6929C154.247 52.9076 153.994 53.1614 153.813 53.4546C153.612 53.7767 153.515 54.1293 153.521 54.5123C153.533 54.8914 153.65 55.2729 153.872 55.6568C154.035 55.9398 154.214 56.1729 154.41 56.3563C154.606 56.5397 154.814 56.6753 155.036 56.7631C155.264 56.847 155.492 56.8768 155.721 56.8527L157.856 60.5508C157.084 60.8166 156.317 60.8644 155.554 60.6941C154.759 60.5153 154 60.1183 153.277 59.5031C152.56 58.884 151.904 58.0591 151.309 57.0285ZM158.568 55.0876C158.775 54.9323 158.944 54.7584 159.075 54.5658C159.481 53.963 159.461 53.2743 159.014 52.4996C158.788 52.1089 158.529 51.823 158.236 51.642C157.744 51.3509 157.182 51.3341 156.55 51.5916L158.568 55.0876ZM156.661 67.8142L155.053 63.4083L165.838 59.4727L167.398 63.7471L165.337 64.499L165.385 64.6305C166.2 64.5731 166.874 64.7166 167.405 65.0608C167.946 65.4098 168.34 65.9203 168.585 66.5926C168.724 66.9725 168.809 67.3638 168.84 67.7665L165.541 68.9704C165.532 68.7418 165.486 68.4687 165.403 68.1512C165.328 67.8309 165.242 67.5393 165.146 67.2763C164.991 66.8525 164.766 66.4959 164.47 66.2065C164.167 65.9198 163.827 65.7374 163.451 65.6594C163.074 65.5814 162.682 65.6171 162.272 65.7664L156.661 67.8142ZM154.489 78.6283C154.274 77.371 154.244 76.2516 154.4 75.2702C154.556 74.2888 154.874 73.4966 155.355 72.8937C155.836 72.2907 156.44 71.8957 157.165 71.7086L157.923 76.1478C157.686 76.2357 157.506 76.3809 157.382 76.5835C157.163 76.9603 157.118 77.5321 157.249 78.2988C157.485 79.6788 158.189 80.2687 159.362 80.0683L161.283 79.7402L161.259 79.6022C160.856 79.5053 160.491 79.3073 160.164 79.0082C159.828 78.7026 159.545 78.3208 159.317 77.8627C159.097 77.4032 158.937 76.8822 158.837 76.2995C158.68 75.3794 158.724 74.5078 158.97 73.6846C159.225 72.8204 159.724 72.0921 160.467 71.4996C161.219 70.9135 162.224 70.513 163.481 70.2982C164.861 70.0625 166.015 70.1179 166.942 70.4645C167.842 70.792 168.564 71.2961 169.106 71.9768C169.65 72.6651 169.998 73.4539 170.15 74.3433C170.26 74.9873 170.259 75.5634 170.149 76.0715C170.046 76.5782 169.862 77.0278 169.598 77.4202C169.334 77.8125 169.017 78.1271 168.647 78.3639L168.662 78.4559L170.652 78.116L171.434 82.6932L160.14 84.6224C159.19 84.7848 158.329 84.6438 157.559 84.1994C156.795 83.746 156.15 83.0434 155.625 82.0916C155.099 81.1398 154.72 79.9854 154.489 78.6283ZM162.026 77.5065C162.135 78.1428 162.45 78.6019 162.971 78.8836C163.502 79.1718 164.174 79.2464 164.986 79.1076C165.554 79.0106 166.023 78.8476 166.394 78.6185C166.772 78.3804 167.038 78.0904 167.192 77.7483C167.356 77.4126 167.401 77.0301 167.328 76.6008C167.254 76.1714 167.085 75.8294 166.821 75.5747C166.555 75.3124 166.205 75.1354 165.772 75.0438C165.347 74.9586 164.854 74.9638 164.295 75.0594C163.743 75.1537 163.285 75.3148 162.921 75.5426C162.557 75.7627 162.296 76.04 162.14 76.3743C161.992 76.7074 161.954 77.0848 162.026 77.5065ZM155.756 88.6901C155.78 88.1929 155.839 87.7091 155.933 87.2387C156.026 86.7761 156.144 86.3614 156.287 85.9947L159.161 87.1654L159.145 87.2347C158.965 87.7319 158.866 88.1631 158.848 88.5282C158.822 89.041 158.969 89.3831 159.287 89.5547L159.492 89.6583L171.698 85.6852L171.456 90.556L163.417 92.2595L163.41 92.3994L171.239 94.9375L170.995 99.8549L158.797 94.4833C158.172 94.2186 157.622 93.8525 157.146 93.385C156.114 92.3759 155.65 90.8109 155.756 88.6901Z" fill="#CDFFDA"/>
<path d="M147.061 88.6078C147.061 61.6654 123.883 39.824 95.2894 39.824C66.6981 39.824 43.5198 61.6654 43.5198 88.6078C43.5198 115.55 66.6981 137.392 95.2894 137.392C123.883 137.392 147.061 115.55 147.061 88.6078Z" fill="#0DA84A" stroke="#CDFFDA" stroke-width="2.6549" stroke-miterlimit="10" stroke-linejoin="round"/>
<path d="M117.64 88.6078C117.64 61.6654 107.632 39.824 95.289 39.824C82.9478 39.824 72.9398 61.6654 72.9398 88.6078C72.9398 115.55 82.9478 137.392 95.289 137.392C107.632 137.392 117.64 115.55 117.64 88.6078Z" stroke="#CDFFDA" stroke-width="2.6549" stroke-miterlimit="10" stroke-linejoin="round"/>
<path d="M47.1556 70.5312H143.389" stroke="#CDFFDA" stroke-width="2.6549" stroke-miterlimit="10" stroke-linejoin="round"/>
<path d="M47.1556 106.601H143.389" stroke="#CDFFDA" stroke-width="2.6549" stroke-miterlimit="10" stroke-linejoin="round"/>
<path d="M164.687 108.677C165.477 108.838 165.986 109.613 165.802 110.398C162.167 125.868 153.303 139.709 140.62 149.672C127.547 159.941 111.228 165.452 94.4552 165.263C77.6825 165.074 61.4983 159.196 48.6713 148.635C36.2261 138.388 27.6918 124.351 24.4235 108.803C24.2577 108.014 24.7843 107.252 25.5776 107.109C26.3617 106.968 27.1112 107.486 27.2755 108.266C30.4179 123.176 38.6063 136.637 50.5428 146.465C62.8548 156.602 78.3894 162.244 94.4887 162.425C110.588 162.607 126.252 157.317 138.8 147.46C150.966 137.904 159.47 124.631 162.964 109.794C163.146 109.019 163.907 108.519 164.687 108.677Z" fill="#CDFFDA"/>
</g>
<defs>
<filter id="filter0_d_7821_4890" x="0.79187" y="0" width="181.232" height="181.232" filterUnits="userSpaceOnUse" color-interpolation-filters="sRGB">
<feFlood flood-opacity="0" result="BackgroundImageFix"/>
<feColorMatrix in="SourceAlpha" type="matrix" values="0 0 0 0 0 0 0 0 0 0 0 0 0 0 0 0 0 0 127 0" result="hardAlpha"/>
<feOffset dx="-4" dy="4"/>
<feGaussianBlur stdDeviation="2"/>
<feComposite in2="hardAlpha" operator="out"/>
<feColorMatrix type="matrix" values="0 0 0 0 0 0 0 0 0 0 0 0 0 0 0 0 0 0 0.25 0"/>
<feBlend mode="normal" in2="BackgroundImageFix" result="effect1_dropShadow_7821_4890"/>
<feBlend mode="normal" in="SourceGraphic" in2="effect1_dropShadow_7821_4890" result="shape"/>
</filter>
</defs>
</svg>
